<?xml version="1.0" encoding="UTF-8" standalone="no"?>
<!DOCTYPE svg PUBLIC "-//W3C//DTD SVG 1.1//EN" "http://www.w3.org/Graphics/SVG/1.1/DTD/svg11.dtd">
<svg width="100%" height="100%" viewBox="0 0 4096 4096" version="1.1" xmlns="http://www.w3.org/2000/svg" xmlns:xlink="http://www.w3.org/1999/xlink" xml:space="preserve" xmlns:serif="http://www.serif.com/" style="fill-rule:evenodd;clip-rule:evenodd;stroke-linejoin:round;stroke-miterlimit:2;">
    <g id="Ring">
        <g id="Blue" transform="matrix(0.906271,0,0,0.906271,191.957,191.957)">
            <path d="M2048,0C3178.32,0 4096,917.678 4096,2048C4096,3178.32 3178.32,4096 2048,4096C917.678,4096 0,3178.32 0,2048C0,917.678 917.678,0 2048,0ZM2048,737.28C2771.41,737.28 3358.72,1324.59 3358.72,2048C3358.72,2771.41 2771.41,3358.72 2048,3358.72C1324.59,3358.72 737.28,2771.41 737.28,2048C737.28,1324.59 1324.59,737.28 2048,737.28Z" style="fill:rgb(19,85,150);"/>
        </g>
        <g id="Inner" transform="matrix(0.594644,0,0,0.594644,830.17,830.17)">
            <path d="M2048,0C3178.32,0 4096,917.678 4096,2048C4096,3178.32 3178.32,4096 2048,4096C917.678,4096 0,3178.32 0,2048C0,917.678 917.678,0 2048,0ZM2048,204.8C3065.29,204.8 3891.2,1030.71 3891.2,2048C3891.2,3065.29 3065.29,3891.2 2048,3891.2C1030.71,3891.2 204.8,3065.29 204.8,2048C204.8,1030.71 1030.71,204.8 2048,204.8Z" style="fill:rgb(252,207,9);"/>
        </g>
        <g id="Outer" transform="matrix(0.950493,0,0,0.950493,101.391,101.391)">
            <path d="M2048,0C3178.32,0 4096,917.678 4096,2048C4096,3178.32 3178.32,4096 2048,4096C917.678,4096 0,3178.32 0,2048C0,917.678 917.678,0 2048,0ZM2048,122.88C3110.5,122.88 3973.12,985.497 3973.12,2048C3973.12,3110.5 3110.5,3973.12 2048,3973.12C985.497,3973.12 122.88,3110.5 122.88,2048C122.88,985.497 985.497,122.88 2048,122.88Z" style="fill:rgb(252,207,9);"/>
        </g>
    </g>
    <g id="CSS-Logo" serif:id="CSS Logo" transform="matrix(2.03699,0,0,2.03699,1348.08,1263.79)">
        <g transform="matrix(1,0,0,1,343.603,371.223)">
            <path d="M0,-331.197L-302.909,-331.197L-302.909,-31.235L-303.093,0L0,0L0,-331.197Z" style="fill:rgb(0,85,150);fill-rule:nonzero;"/>
        </g>
        <g transform="matrix(1,0,0,1,646.712,40.0256)">
            <path d="M0,331.197L-0.156,299.963L-0.156,0L-303.109,0L-303.109,331.197L0,331.197Z" style="fill:rgb(3,59,94);fill-rule:nonzero;"/>
        </g>
        <g transform="matrix(1,0,0,1,40.5103,768.369)">
            <path d="M0,-397.146L-0.189,-364.828C-0.324,-347.43 -0.484,-331.207 -0.484,-316.162C-0.484,-226.905 4.405,-177.425 40.683,-142.627C88.738,-96.541 182.654,-35.475 303.088,0C303.09,-0.001 303.091,-0.001 303.093,-0.002L303.093,-397.146L0,-397.146Z" style="fill:rgb(3,59,94);fill-rule:nonzero;"/>
        </g>
        <g transform="matrix(1,0,0,1,646.712,768.367)">
            <path d="M0,-397.144L-303.109,-397.144L-303.109,0C-182.668,-35.475 -88.743,-96.54 -40.7,-142.625C-4.387,-177.514 0.467,-226.949 0.467,-316.16C0.467,-331.249 0.342,-347.428 0.161,-364.894L0,-397.144Z" style="fill:rgb(0,85,150);fill-rule:nonzero;"/>
        </g>
        <g transform="matrix(1,0,0,1,281.406,121.115)">
            <path d="M0,23.452C0,23.452 6.883,16.981 6.883,10.717C6.883,-3.503 -0.742,-2.514 -4.08,-2.514C-11.705,-2.514 -22.091,9.356 -22.091,9.356C-20.937,6.76 -18.959,2.144 -18.382,0.701C-18.135,0.124 -17.846,-0.618 -17.517,-1.401C-15.849,-5.565 -15.746,-10.192 -17.228,-14.425C-19,-19.906 -22.792,-22.256 -25.883,-26.089C-28.974,-29.922 -30.458,-31.488 -30.458,-31.488C-30.458,-31.488 -31.653,-30.128 -34.992,-26.006C-38.33,-21.885 -41.875,-19.824 -43.647,-14.342C-45.109,-10.086 -44.977,-5.444 -43.276,-1.277C-42.987,-0.453 -42.658,0.248 -42.411,0.825C-41.833,2.267 -39.855,6.884 -38.701,9.48C-38.701,9.48 -49.087,-2.39 -56.712,-2.39C-60.009,-2.39 -67.675,-3.338 -67.675,10.84C-67.675,17.105 -60.792,23.576 -60.792,23.576C-60.792,23.576 -59.803,18.465 -52.302,18.465C-47.15,18.465 -43.647,23.864 -43.647,29.964C-43.647,34.951 -44.677,39.155 -45.914,39.691C-43.485,41.337 -41.146,43.112 -38.907,45.008C-37.341,46.574 -30.417,54.94 -30.417,54.94C-30.417,54.94 -23.493,46.697 -21.926,45.008C-19.671,43.114 -17.318,41.34 -14.878,39.691C-16.115,39.155 -17.146,34.992 -17.146,29.964C-17.146,23.905 -13.642,18.465 -8.49,18.465C-1.03,18.424 0,23.452 0,23.452" style="fill:rgb(255,207,1);fill-rule:nonzero;"/>
        </g>
        <g transform="matrix(1,0,0,1,417.382,111.388)">
            <path d="M0,42.864L-0.577,45.831L12.694,38.165L12.694,64.172L19.124,64.172L19.124,38.165L32.395,45.831L31.777,42.864L45.873,42.575L39.072,30.293L41.916,29.304L34.95,25.306L52.137,15.373L49.293,14.426L56.094,2.102L42.04,1.814L42.616,-1.154L25.1,8.944L25.1,-11.252L22.833,-9.273L15.909,-21.308L8.985,-9.273L6.677,-11.252L6.677,8.944L-10.798,-1.154L-10.222,1.814L-24.276,2.102L-17.517,14.426L-20.36,15.373L-3.174,25.306L-10.139,29.304L-7.254,30.293L-14.055,42.575L0,42.864Z" style="fill:rgb(255,207,1);fill-rule:nonzero;"/>
        </g>
        <g transform="matrix(-1,0,0,1,197.094,52.029)">
            <rect x="40.672" y="370.364" width="115.75" height="16.486" style="fill:rgb(255,207,1);"/>
        </g>
        <g transform="matrix(-1,0,0,1,197.094,-82.859)">
            <rect x="40.672" y="437.808" width="115.75" height="16.486" style="fill:rgb(255,207,1);"/>
        </g>
        <g transform="matrix(-1,0,0,1,197.094,-15.413)">
            <rect x="40.672" y="404.085" width="115.75" height="16.486" style="fill:rgb(255,207,1);"/>
        </g>
        <g transform="matrix(-1,0,0,1,197.094,-150.301)">
            <rect x="40.672" y="471.529" width="115.75" height="16.486" style="fill:rgb(255,207,1);"/>
        </g>
        <g transform="matrix(1,0,0,1,0,-150.301)">
            <rect x="530.784" y="471.529" width="115.749" height="16.486" style="fill:rgb(255,207,1);"/>
        </g>
        <g transform="matrix(1,0,0,1,0,-82.859)">
            <rect x="530.784" y="437.808" width="115.749" height="16.486" style="fill:rgb(255,207,1);"/>
        </g>
        <g transform="matrix(1,0,0,1,0,52.029)">
            <rect x="530.784" y="370.364" width="115.749" height="16.486" style="fill:rgb(255,207,1);"/>
        </g>
        <g transform="matrix(1,0,0,1,0,-15.413)">
            <rect x="530.784" y="404.085" width="115.749" height="16.486" style="fill:rgb(255,207,1);"/>
        </g>
        <g transform="matrix(1,0,0,1,0,-33.823)">
            <path d="M365.995,443.925L321.212,443.925L321.212,399.141L365.995,399.141L365.995,443.925ZM379.172,385.965L308.035,385.965L308.035,457.101L379.172,457.101L379.172,385.965Z" style="fill:white;fill-rule:nonzero;"/>
        </g>
        <g transform="matrix(1,0,0,1,0,-34.578)">
            <path d="M406.784,485.468L280.424,485.468L280.424,359.108L406.784,359.108L406.784,485.468ZM419.96,415.7L419.96,389.957L454.48,389.957L454.48,326.564L465.232,326.564L465.044,313.388L441.304,313.388L441.304,376.78L419.96,376.78L419.96,345.931L390.312,345.931L390.312,304.44L449.052,304.44L474.836,278.657L464.832,270.026L443.594,291.264L422.375,291.264L422.375,281.842L409.199,281.842L409.199,291.264L377.135,291.264L377.135,345.931L350.191,345.931L350.191,281.842L337.014,281.842L337.014,345.931L310.071,345.931L310.071,291.264L278.007,291.264L278.007,282.15L264.831,281.928L264.831,291.264L243.611,291.264L221.593,269.244L212.276,278.562L238.154,304.44L296.894,304.44L296.894,345.931L267.247,345.931L267.247,376.78L245.903,376.78L245.903,313.388L221.264,313.388L221.264,326.564L232.727,326.564L232.727,389.957L267.247,389.957L267.247,415.7L221.264,415.7L221.264,428.876L267.247,428.876L267.247,454.619L232.727,454.619L232.727,518.012L221.369,518.012L221.149,531.188L245.903,531.188L245.903,467.795L267.247,467.795L267.247,498.645L296.894,498.645L296.894,540.137L238.154,540.137L213.045,565.245L222.901,574.025L243.611,553.313L264.831,553.313L264.831,564.242L278.007,564.242L278.007,553.313L310.071,553.313L310.071,498.645L337.014,498.645L337.014,564.242L350.191,564.242L350.191,498.645L377.135,498.645L377.135,553.313L409.199,553.313L409.199,564.242L422.375,564.242L422.375,553.313L443.594,553.313L464.859,574.577L474.332,565.414L449.052,540.137L390.312,540.137L390.312,498.645L419.96,498.645L419.96,467.795L441.304,467.795L441.304,531.188L465.177,531.188L465.177,518.012L454.48,518.012L454.48,454.619L419.96,454.619L419.96,428.876L465.177,428.876L465.177,415.7L419.96,415.7Z" style="fill:white;fill-rule:nonzero;"/>
        </g>
        <g transform="matrix(1,0,0,1,204.358,217.16)">
            <path d="M0,20.545C-5.665,20.545 -10.273,15.937 -10.273,10.273C-10.273,4.608 -5.665,-0 0,-0C5.664,-0 10.272,4.608 10.272,10.273C10.272,15.937 5.664,20.545 0,20.545M18.934,21.049C20.753,17.867 21.808,14.193 21.808,10.273C21.808,-1.752 12.025,-11.535 0,-11.535C-12.025,-11.535 -21.809,-1.752 -21.809,10.273C-21.809,22.297 -12.025,32.08 0,32.08C3.921,32.08 7.594,31.025 10.777,29.207L11.379,29.81L19.537,21.652L18.934,21.049Z" style="fill:white;fill-rule:nonzero;"/>
        </g>
        <g transform="matrix(1,0,0,1,211.622,277.971)">
            <path d="M0,14.527C-4.006,18.533 -10.523,18.532 -14.528,14.527C-18.533,10.522 -18.533,4.006 -14.527,0C-10.522,-4.006 -4.005,-4.006 0,0C4.005,4.005 4.005,10.522 0,14.527M13.745,1.495C12.781,-2.041 10.929,-5.385 8.157,-8.157C-0.346,-16.66 -14.181,-16.66 -22.684,-8.157C-31.187,0.346 -31.187,14.181 -22.685,22.684C-14.182,31.187 -0.347,31.187 8.157,22.684C10.929,19.911 12.781,16.568 13.745,13.031L14.598,13.031L14.598,1.495L13.745,1.495Z" style="fill:white;fill-rule:nonzero;"/>
        </g>
        <g transform="matrix(1,0,0,1,211.622,380.447)">
            <path d="M0,14.527C-4.006,18.532 -10.523,18.532 -14.528,14.527C-18.533,10.522 -18.533,4.005 -14.527,0C-10.522,-4.006 -4.005,-4.006 0,0C4.005,4.005 4.005,10.522 0,14.527M13.745,1.495C12.781,-2.041 10.929,-5.385 8.157,-8.158C-0.346,-16.66 -14.181,-16.66 -22.684,-8.157C-31.187,0.346 -31.187,14.181 -22.685,22.684C-14.182,31.187 -0.347,31.187 8.157,22.684C10.929,19.911 12.781,16.568 13.745,13.031L14.598,13.031L14.598,1.495L13.745,1.495Z" style="fill:white;fill-rule:nonzero;"/>
        </g>
        <g transform="matrix(1,0,0,1,211.622,482.759)">
            <path d="M0,14.527C-4.006,18.533 -10.523,18.532 -14.528,14.527C-18.533,10.522 -18.533,4.006 -14.527,0C-10.522,-4.006 -4.005,-4.006 0,0C4.005,4.005 4.005,10.521 0,14.527M13.745,1.495C12.781,-2.041 10.929,-5.385 8.157,-8.158C-0.346,-16.66 -14.181,-16.66 -22.684,-8.158C-31.187,0.346 -31.187,14.181 -22.685,22.684C-14.182,31.187 -0.347,31.187 8.157,22.683C10.929,19.911 12.781,16.568 13.745,13.031L14.598,13.031L14.598,1.495L13.745,1.495Z" style="fill:white;fill-rule:nonzero;"/>
        </g>
        <g transform="matrix(1,0,0,1,214.63,547.986)">
            <path d="M0,0.001C0,5.665 -4.608,10.273 -10.272,10.273C-15.937,10.273 -20.545,5.665 -20.545,0.001C-20.545,-5.664 -15.937,-10.271 -10.272,-10.271C-4.608,-10.271 0,-5.664 0,0.001M0.505,-18.934C-2.678,-20.753 -6.352,-21.808 -10.272,-21.808C-22.297,-21.808 -32.08,-12.024 -32.08,0.001C-32.08,12.026 -22.297,21.809 -10.272,21.809C1.752,21.809 11.535,12.026 11.535,0.001C11.535,-3.92 10.481,-7.594 8.662,-10.776L9.265,-11.379L1.107,-19.536L0.505,-18.934Z" style="fill:white;fill-rule:nonzero;"/>
        </g>
        <g transform="matrix(1,0,0,1,278.683,557.312)">
            <path d="M0,-16.589C4.006,-12.584 4.005,-6.067 0,-2.062C-4.005,1.944 -10.522,1.944 -14.527,-2.062C-18.533,-6.068 -18.533,-12.584 -14.527,-16.589C-10.522,-20.595 -4.005,-20.595 0,-16.589M-13.032,-30.335C-16.568,-29.37 -19.912,-27.519 -22.684,-24.746C-31.187,-16.243 -31.187,-2.408 -22.684,6.095C-14.181,14.598 -0.346,14.598 8.157,6.096C16.66,-2.407 16.66,-16.242 8.157,-24.746C5.384,-27.519 2.041,-29.37 -1.496,-30.335L-1.496,-31.187L-13.032,-31.187L-13.032,-30.335Z" style="fill:white;fill-rule:nonzero;"/>
        </g>
        <g transform="matrix(1,0,0,1,350.819,557.312)">
            <path d="M0,-16.589C4.006,-12.584 4.006,-6.067 0,-2.062C-4.005,1.944 -10.521,1.944 -14.527,-2.062C-18.533,-6.068 -18.533,-12.584 -14.527,-16.589C-10.522,-20.595 -4.005,-20.595 0,-16.589M-13.032,-30.335C-16.568,-29.37 -19.912,-27.519 -22.684,-24.746C-31.187,-16.243 -31.187,-2.408 -22.684,6.095C-14.181,14.598 -0.345,14.598 8.157,6.096C16.66,-2.407 16.66,-16.242 8.157,-24.746C5.384,-27.519 2.041,-29.37 -1.496,-30.335L-1.496,-31.187L-13.032,-31.187L-13.032,-30.335Z" style="fill:white;fill-rule:nonzero;"/>
        </g>
        <g transform="matrix(1,0,0,1,423.05,557.312)">
            <path d="M0,-16.589C4.006,-12.584 4.006,-6.067 0,-2.062C-4.005,1.944 -10.521,1.944 -14.527,-2.062C-18.532,-6.068 -18.532,-12.584 -14.527,-16.589C-10.522,-20.595 -4.005,-20.595 0,-16.589M-13.031,-30.335C-16.568,-29.37 -19.911,-27.519 -22.684,-24.746C-31.187,-16.243 -31.187,-2.408 -22.684,6.095C-14.181,14.598 -0.345,14.598 8.157,6.096C16.66,-2.407 16.66,-16.242 8.157,-24.746C5.384,-27.519 2.042,-29.37 -1.496,-30.335L-1.496,-31.187L-13.031,-31.187L-13.031,-30.335Z" style="fill:white;fill-rule:nonzero;"/>
        </g>
        <g transform="matrix(1,0,0,1,482.868,558.259)">
            <path d="M0,-20.545C5.665,-20.545 10.273,-15.937 10.273,-10.273C10.273,-4.608 5.665,-0 0,-0C-5.665,-0 -10.272,-4.608 -10.272,-10.273C-10.272,-15.937 -5.665,-20.545 0,-20.545M-18.934,-21.05C-20.753,-17.867 -21.808,-14.193 -21.808,-10.273C-21.808,1.752 -12.025,11.535 0,11.535C12.025,11.535 21.809,1.752 21.809,-10.273C21.809,-22.297 12.025,-32.08 0,-32.08C-3.921,-32.08 -7.594,-31.025 -10.777,-29.207L-11.38,-29.81L-19.537,-21.652L-18.934,-21.05Z" style="fill:white;fill-rule:nonzero;"/>
        </g>
        <g transform="matrix(1,0,0,1,472.81,227.432)">
            <path d="M0,0.001C0,-5.664 4.608,-10.272 10.272,-10.272C15.937,-10.272 20.544,-5.664 20.544,0.001C20.544,5.665 15.937,10.273 10.272,10.273C4.608,10.273 0,5.665 0,0.001M-0.505,18.935C2.678,20.754 6.351,21.809 10.272,21.809C22.297,21.809 32.08,12.025 32.08,0.001C32.08,-12.025 22.297,-21.808 10.272,-21.808C-1.752,-21.808 -11.536,-12.025 -11.536,0.001C-11.536,3.922 -10.481,7.595 -8.662,10.778L-9.265,11.38L-1.107,19.538L-0.505,18.935Z" style="fill:white;fill-rule:nonzero;"/>
        </g>
        <g transform="matrix(1,0,0,1,475.819,292.498)">
            <path d="M0,-14.527C4.006,-18.533 10.522,-18.533 14.528,-14.527C18.533,-10.522 18.533,-4.006 14.527,-0C10.522,4.005 4.005,4.005 0,-0C-4.005,-4.005 -4.005,-10.522 0,-14.527M-13.746,-1.495C-12.781,2.041 -10.929,5.385 -8.157,8.157C0.346,16.66 14.181,16.66 22.684,8.157C31.187,-0.346 31.187,-14.182 22.685,-22.684C14.182,-31.187 0.347,-31.187 -8.157,-22.684C-10.929,-19.911 -12.781,-16.569 -13.746,-13.031L-14.598,-13.031L-14.598,-1.495L-13.746,-1.495Z" style="fill:white;fill-rule:nonzero;"/>
        </g>
        <g transform="matrix(1,0,0,1,475.819,394.596)">
            <path d="M0,-14.527C4.006,-18.533 10.522,-18.532 14.528,-14.527C18.533,-10.522 18.533,-4.006 14.527,-0C10.522,4.006 4.005,4.006 0,-0C-4.005,-4.005 -4.005,-10.522 0,-14.527M-13.746,-1.495C-12.781,2.041 -10.929,5.385 -8.157,8.157C0.346,16.66 14.181,16.66 22.684,8.157C31.187,-0.346 31.187,-14.181 22.685,-22.684C14.182,-31.187 0.347,-31.187 -8.157,-22.684C-10.929,-19.911 -12.781,-16.568 -13.746,-13.031L-14.598,-13.031L-14.598,-1.495L-13.746,-1.495Z" style="fill:white;fill-rule:nonzero;"/>
        </g>
        <g transform="matrix(1,0,0,1,475.819,497.285)">
            <path d="M0,-14.527C4.006,-18.533 10.522,-18.533 14.528,-14.527C18.533,-10.522 18.533,-4.006 14.527,-0C10.522,4.005 4.005,4.005 0,-0C-4.005,-4.005 -4.005,-10.522 0,-14.527M-13.746,-1.495C-12.781,2.041 -10.929,5.385 -8.157,8.158C0.346,16.66 14.181,16.66 22.684,8.158C31.187,-0.346 31.187,-14.181 22.685,-22.684C14.182,-31.187 0.347,-31.187 -8.157,-22.683C-10.929,-19.911 -12.781,-16.568 -13.746,-13.031L-14.598,-13.031L-14.598,-1.495L-13.746,-1.495Z" style="fill:white;fill-rule:nonzero;"/>
        </g>
        <g transform="matrix(1,0,0,1,264.019,218.224)">
            <path d="M0,16.333C-3.929,12.252 -3.806,5.736 0.275,1.808C4.355,-2.121 10.871,-1.998 14.8,2.083C18.729,6.164 18.605,12.679 14.524,16.608C10.444,20.537 3.928,20.413 0,16.333M12.769,30.323C16.323,29.425 19.701,27.638 22.525,24.918C31.187,16.578 31.45,2.745 23.109,-5.917C14.769,-14.58 0.936,-14.842 -7.726,-6.502C-16.389,1.838 -16.651,15.671 -8.31,24.333C-5.59,27.158 -2.283,29.073 1.235,30.104L1.219,30.957L12.752,31.175L12.769,30.323Z" style="fill:white;fill-rule:nonzero;"/>
        </g>
        <g transform="matrix(1,0,0,1,336.476,218.224)">
            <path d="M0,16.333C-3.929,12.252 -3.806,5.736 0.275,1.808C4.355,-2.121 10.871,-1.998 14.8,2.083C18.729,6.164 18.605,12.679 14.525,16.608C10.444,20.537 3.929,20.413 0,16.333M12.769,30.323C16.323,29.425 19.701,27.638 22.525,24.918C31.188,16.578 31.45,2.745 23.11,-5.917C14.769,-14.58 0.936,-14.842 -7.726,-6.502C-16.389,1.838 -16.65,15.671 -8.31,24.333C-5.59,27.158 -2.283,29.073 1.235,30.104L1.219,30.957L12.753,31.175L12.769,30.323Z" style="fill:white;fill-rule:nonzero;"/>
        </g>
        <g transform="matrix(1,0,0,1,408.387,218.224)">
            <path d="M0,16.333C-3.929,12.252 -3.806,5.736 0.275,1.808C4.355,-2.121 10.871,-1.998 14.8,2.083C18.729,6.164 18.605,12.679 14.525,16.608C10.444,20.537 3.929,20.413 0,16.333M12.769,30.323C16.323,29.425 19.701,27.638 22.525,24.918C31.188,16.578 31.45,2.745 23.11,-5.917C14.769,-14.58 0.936,-14.842 -7.726,-6.502C-16.389,1.838 -16.65,15.671 -8.31,24.333C-5.59,27.158 -2.283,29.073 1.235,30.104L1.219,30.957L12.753,31.175L12.769,30.323Z" style="fill:white;fill-rule:nonzero;"/>
        </g>
        <g transform="matrix(1,0,0,1,60.7202,749.19)">
            <path d="M0,-689.138L0,-409.203L-0.457,-335.239C-0.565,-321.736 -0.668,-308.985 -0.668,-296.984C-0.668,-210.195 4.385,-166.629 34.334,-137.899C79.428,-94.656 168.099,-36.556 282.877,-1.724C397.684,-36.56 486.353,-94.659 531.432,-137.899C561.382,-166.673 566.437,-210.233 566.437,-296.984C566.437,-312.009 566.312,-328.118 566.131,-345.511L565.813,-409.102L565.813,-689.138L0,-689.138ZM282.877,40.052L277.218,38.386C152.794,1.738 55.85,-61.776 6.611,-108.994C-37.426,-151.236 -40.72,-210.853 -40.72,-296.984C-40.72,-309.085 -40.616,-321.945 -40.507,-335.561L-40.052,-409.322L-40.052,-729.19L605.861,-729.19L605.861,-409.203L606.179,-345.818C606.36,-328.384 606.485,-312.138 606.485,-296.984C606.485,-210.899 603.193,-151.306 559.168,-109.008C509.931,-61.78 412.991,1.731 288.534,38.386L282.877,40.052Z" style="fill:rgb(255,207,1);fill-rule:nonzero;"/>
        </g>
        <g transform="matrix(1,0,0,1,347.493,647.187)">
            <path d="M0,30.406C-0.642,34.783 2.945,38.78 8.011,39.335C8.446,39.383 8.885,39.403 9.323,39.397C15.939,39.397 32.536,33.848 33.813,11.591C34.78,-4.686 29.286,-8.997 29.286,-8.997L19.15,6.978C19.15,29.938 0,30.406 0,30.406" style="fill:rgb(255,207,1);fill-rule:nonzero;"/>
        </g>
        <g transform="matrix(1,0,0,1,320.682,670.726)">
            <path d="M0,-16.527L-10.136,-32.503C-10.136,-32.503 -15.591,-28.191 -14.817,-11.881C-13.502,10.377 3.057,15.925 9.633,15.925C14.761,15.976 18.965,12.426 19.024,7.996C19.029,7.642 19.006,7.287 18.957,6.935C18.957,6.935 0,6.4 0,-16.527" style="fill:rgb(255,207,1);fill-rule:nonzero;"/>
        </g>
        <g transform="matrix(1,0,0,1,354.224,645.174)">
            <path d="M0,11.933C-0.259,4.291 0.771,-3.342 3.056,-10.727C4.681,-15.741 14.663,-21.021 14.663,-21.021C4.681,-30.613 -4.062,-17.678 -3.675,-19.216C-3.488,-22.938 -4.31,-26.646 -6.074,-30.045C-7.257,-32.143 -8.696,-34.127 -10.368,-35.961C-12.026,-34.125 -13.453,-32.141 -14.624,-30.045C-16.385,-26.645 -17.207,-22.937 -17.022,-19.216C-16.674,-17.612 -25.379,-30.613 -35.36,-21.021C-35.36,-21.021 -25.534,-15.741 -23.754,-10.727C-21.463,-3.342 -20.433,4.291 -20.698,11.933C-20.698,20.856 -15.243,23.229 -12.728,24.199L-12.728,47.894L-8.047,47.894L-8.047,24.499C-6.229,23.697 0.155,21.491 0,11.933" style="fill:rgb(255,207,1);fill-rule:nonzero;"/>
        </g>
    </g>
    <g id="Text">
        <g id="Society">
            <g transform="matrix(0.862724,0.669312,-0.612973,0.790104,2137.9,82.5946)">
                <text x="906.681px" y="3284.71px" style="font-family:'Arial-BoldMT', 'Arial', sans-serif;font-weight:700;font-size:442.849px;fill:rgb(235,235,235);">S</text>
            </g>
            <g transform="matrix(1.00506,0.426769,-0.390846,0.920456,1371.31,-246.413)">
                <text x="1234.32px" y="3524.54px" style="font-family:'Arial-BoldMT', 'Arial', sans-serif;font-weight:700;font-size:442.849px;fill:rgb(235,235,235);">O</text>
            </g>
            <g transform="matrix(1.08228,0.144688,-0.132509,0.991182,351.68,-208.63)">
                <text x="1666.76px" y="3689px" style="font-family:'Arial-BoldMT', 'Arial', sans-serif;font-weight:700;font-size:442.849px;fill:rgb(235,235,235);">C</text>
            </g>
            <g transform="matrix(1.09051,-0.0553549,0.0506954,0.998714,-376.4,119.476)">
                <text x="2071.81px" y="3725.89px" style="font-family:'Arial-BoldMT', 'Arial', sans-serif;font-weight:700;font-size:442.849px;fill:rgb(235,235,235);">I</text>
            </g>
            <g transform="matrix(1.06632,-0.235017,0.215234,0.976562,-950.28,618.436)">
                <text x="2260.62px" y="3718.54px" style="font-family:'Arial-BoldMT', 'Arial', sans-serif;font-weight:700;font-size:442.849px;fill:rgb(235,235,235);">E</text>
            </g>
            <g transform="matrix(0.986428,-0.468221,0.428808,0.903395,-1517.16,1587.6)">
                <text x="2643.47px" y="3621.75px" style="font-family:'Arial-BoldMT', 'Arial', sans-serif;font-weight:700;font-size:442.849px;fill:rgb(235,235,235);">T</text>
            </g>
            <g transform="matrix(0.856438,-0.677337,0.620322,0.784347,-1716.85,2757.85)">
                <text x="2971.48px" y="3455.36px" style="font-family:'Arial-BoldMT', 'Arial', sans-serif;font-weight:700;font-size:442.849px;fill:rgb(235,235,235);">Y</text>
            </g>
        </g>
        <g id="Computer-Science" serif:id="Computer Science">
            <g transform="matrix(-0.162994,-1.07968,0.988796,-0.149274,-1531.83,3551.56)">
                <text x="728.429px" y="2405.95px" style="font-family:'Arial-BoldMT', 'Arial', sans-serif;font-weight:700;font-size:433.333px;fill:rgb(235,235,235);">C</text>
            </g>
            <g transform="matrix(0.123321,-1.08493,0.993602,0.11294,-1452.45,2565.86)">
                <text x="679.563px" y="2061.4px" style="font-family:'Arial-BoldMT', 'Arial', sans-serif;font-weight:700;font-size:433.333px;fill:rgb(235,235,235);">O</text>
            </g>
            <g transform="matrix(0.423303,-1.00652,0.921798,0.387672,-1138.32,1764.4)">
                <text x="725.558px" y="1688.82px" style="font-family:'Arial-BoldMT', 'Arial', sans-serif;font-weight:700;font-size:433.333px;fill:rgb(235,235,235);">M</text>
            </g>
            <g transform="matrix(0.677337,-0.856438,0.784347,0.620322,-751.993,1264.26)">
                <text x="889.02px" y="1324.47px" style="font-family:'Arial-BoldMT', 'Arial', sans-serif;font-weight:700;font-size:433.333px;fill:rgb(235,235,235);">P</text>
            </g>
            <g transform="matrix(0.859967,-0.672851,0.616214,0.787579,-508.669,961.568)">
                <text x="1090.27px" y="1073.24px" style="font-family:'Arial-BoldMT', 'Arial', sans-serif;font-weight:700;font-size:433.333px;fill:rgb(235,235,235);">U</text>
            </g>
            <g transform="matrix(0.994489,-0.450847,0.412897,0.910778,-349.678,693.792)">
                <text x="1367.65px" y="865.143px" style="font-family:'Arial-BoldMT', 'Arial', sans-serif;font-weight:700;font-size:433.333px;fill:rgb(235,235,235);">T</text>
            </g>
            <g transform="matrix(1.07122,-0.211581,0.193771,0.981047,-260.88,360.498)">
                <text x="1637.12px" y="744.639px" style="font-family:'Arial-BoldMT', 'Arial', sans-serif;font-weight:700;font-size:433.333px;fill:rgb(235,235,235);">E</text>
            </g>
            <g transform="matrix(1.09023,0.0605351,-0.0554396,0.998462,-138.422,-117.201)">
                <text x="1953.43px" y="682.563px" style="font-family:'Arial-BoldMT', 'Arial', sans-serif;font-weight:700;font-size:433.333px;fill:rgb(235,235,235);">R</text>
            </g>
            <g transform="matrix(1.00974,0.415578,-0.380597,0.924741,257.042,-955.551)">
                <text x="2432.91px" y="737.599px" style="font-family:'Arial-BoldMT', 'Arial', sans-serif;font-weight:700;font-size:433.333px;fill:rgb(235,235,235);">S</text>
            </g>
            <g transform="matrix(0.877758,0.649471,-0.594801,0.803873,847.006,-1603.46)">
                <text x="2729.5px" y="863.056px" style="font-family:'Arial-BoldMT', 'Arial', sans-serif;font-weight:700;font-size:433.333px;fill:rgb(235,235,235);">C</text>
            </g>
            <g transform="matrix(0.74402,0.79919,-0.731918,0.681392,1557.43,-2054.38)">
                <text x="3000.53px" y="1078.47px" style="font-family:'Arial-BoldMT', 'Arial', sans-serif;font-weight:700;font-size:433.333px;fill:rgb(235,235,235);">I</text>
            </g>
            <g transform="matrix(0.603235,0.910153,-0.833541,0.552457,2208.27,-2294.22)">
                <text x="3098.23px" y="1174.51px" style="font-family:'Arial-BoldMT', 'Arial', sans-serif;font-weight:700;font-size:433.333px;fill:rgb(235,235,235);">E</text>
            </g>
            <g transform="matrix(0.368576,1.02782,-0.941307,0.337551,3426.73,-2408.96)">
                <text x="3274.4px" y="1443.95px" style="font-family:'Arial-BoldMT', 'Arial', sans-serif;font-weight:700;font-size:433.333px;fill:rgb(235,235,235);">N</text>
            </g>
            <g transform="matrix(0.0954311,1.08773,-0.996173,0.0873982,4830.14,-2066.39)">
                <text x="3387.22px" y="1772.95px" style="font-family:'Arial-BoldMT', 'Arial', sans-serif;font-weight:700;font-size:433.333px;fill:rgb(235,235,235);">C</text>
            </g>
            <g transform="matrix(-0.1753,1.07775,-0.987029,-0.160544,6102.88,-1217.63)">
                <text x="3412.41px" y="2119.77px" style="font-family:'Arial-BoldMT', 'Arial', sans-serif;font-weight:700;font-size:433.333px;fill:rgb(235,235,235);">E</text>
            </g>
        </g>
    </g>
    <g id="Dots" transform="matrix(1,0,0,1,4,29)">
        <g transform="matrix(1,0,0,1,-30,-50)">
            <circle cx="616.079" cy="2636.63" r="43.464" style="fill:rgb(252,207,9);"/>
            <g transform="matrix(1,0,0,1,57.19,116.668)">
                <circle cx="616.079" cy="2636.63" r="43.464" style="fill:rgb(252,207,9);"/>
            </g>
            <g transform="matrix(1,0,0,1,121.822,233.335)">
                <circle cx="616.079" cy="2636.63" r="43.464" style="fill:rgb(252,207,9);"/>
            </g>
            <g transform="matrix(1,0,0,1,197.895,340.725)">
                <circle cx="616.079" cy="2636.63" r="43.464" style="fill:rgb(252,207,9);"/>
            </g>
            <g transform="matrix(1,0,0,1,280.725,443.795)">
                <circle cx="616.079" cy="2636.63" r="43.464" style="fill:rgb(252,207,9);"/>
            </g>
        </g>
        <g>
            <g transform="matrix(-1,0,0,1,4117.88,-64)">
                <circle cx="616.079" cy="2636.63" r="43.464" style="fill:rgb(252,207,9);"/>
            </g>
            <g transform="matrix(-1,0,0,1,4060.69,52.6676)">
                <circle cx="616.079" cy="2636.63" r="43.464" style="fill:rgb(252,207,9);"/>
            </g>
            <g transform="matrix(-1,0,0,1,3996.06,169.335)">
                <circle cx="616.079" cy="2636.63" r="43.464" style="fill:rgb(252,207,9);"/>
            </g>
            <g transform="matrix(-1,0,0,1,3919.99,276.725)">
                <circle cx="616.079" cy="2636.63" r="43.464" style="fill:rgb(252,207,9);"/>
            </g>
            <g transform="matrix(-1,0,0,1,3837.16,379.795)">
                <circle cx="616.079" cy="2636.63" r="43.464" style="fill:rgb(252,207,9);"/>
            </g>
        </g>
    </g>
</svg>
