<?xml version="1.0" encoding="UTF-8" standalone="no"?>
<svg
   xmlns:serif="http://www.serif.com/"
   xmlns:dc="http://purl.org/dc/elements/1.1/"
   xmlns:cc="http://creativecommons.org/ns#"
   xmlns:rdf="http://www.w3.org/1999/02/22-rdf-syntax-ns#"
   xmlns:svg="http://www.w3.org/2000/svg"
   xmlns="http://www.w3.org/2000/svg"
   xmlns:sodipodi="http://sodipodi.sourceforge.net/DTD/sodipodi-0.dtd"
   xmlns:inkscape="http://www.inkscape.org/namespaces/inkscape"
   width="100%"
   height="100%"
   viewBox="0 0 4096 4096"
   version="1.1"
   xml:space="preserve"
   style="fill-rule:evenodd;clip-rule:evenodd;stroke-linejoin:round;stroke-miterlimit:2;"
   id="svg291"
   sodipodi:docname="CSS Circle - White.svg"
   inkscape:version="1.0.2-2 (e86c870879, 2021-01-15)"><metadata
   id="metadata297"><rdf:RDF><cc:Work
       rdf:about=""><dc:format>image/svg+xml</dc:format><dc:type
         rdf:resource="http://purl.org/dc/dcmitype/StillImage" /><dc:title></dc:title></cc:Work></rdf:RDF></metadata><defs
   id="defs295">
        
        
        
        
        
        
        
        
        
        
        
        
        
        
        
        
        
        
        
        
        
        
        
        
        
        
        
        
        
        
        
        
        
        
        
        
    
        
        
        
    </defs><sodipodi:namedview
   pagecolor="#ffffff"
   bordercolor="#666666"
   borderopacity="1"
   objecttolerance="10"
   gridtolerance="10"
   guidetolerance="10"
   inkscape:pageopacity="0"
   inkscape:pageshadow="2"
   inkscape:window-width="1920"
   inkscape:window-height="1001"
   id="namedview293"
   showgrid="false"
   inkscape:zoom="0.1432858"
   inkscape:cx="4306.1762"
   inkscape:cy="2564.0268"
   inkscape:window-x="-9"
   inkscape:window-y="-9"
   inkscape:window-maximized="1"
   inkscape:current-layer="svg291"
   inkscape:pagecheckerboard="true" />
    <g
   id="Inner"
   transform="matrix(0.594644,0,0,0.594644,830.17,830.17)"
   style="fill:#ffffff">
            <path
   d="M 2048,0 C 3178.32,0 4096,917.678 4096,2048 4096,3178.32 3178.32,4096 2048,4096 917.678,4096 0,3178.32 0,2048 0,917.678 917.678,0 2048,0 Z m 0,204.8 c 1017.29,0 1843.2,825.91 1843.2,1843.2 0,1017.29 -825.91,1843.2 -1843.2,1843.2 C 1030.71,3891.2 204.8,3065.29 204.8,2048 204.8,1030.71 1030.71,204.8 2048,204.8 Z"
   style="fill:#ffffff"
   id="path5" />
        </g><g
   id="Outer"
   transform="matrix(0.950493,0,0,0.950493,101.391,101.391)"
   style="fill:#ffffff">
            <path
   d="M 2048,0 C 3178.32,0 4096,917.678 4096,2048 4096,3178.32 3178.32,4096 2048,4096 917.678,4096 0,3178.32 0,2048 0,917.678 917.678,0 2048,0 Z m 0,122.88 c 1062.5,0 1925.12,862.617 1925.12,1925.12 0,1062.5 -862.62,1925.12 -1925.12,1925.12 C 985.497,3973.12 122.88,3110.5 122.88,2048 122.88,985.497 985.497,122.88 2048,122.88 Z"
   style="fill:#ffffff"
   id="path8" />
        </g>
    <g
   transform="matrix(2.03699,0,0,2.03699,1921.3012,1510.5)"
   id="g30"
   style="fill:#ffffff">
            <path
   d="m 0,23.452 c 0,0 6.883,-6.471 6.883,-12.735 0,-14.22 -7.625,-13.231 -10.963,-13.231 -7.625,0 -18.011,11.87 -18.011,11.87 1.154,-2.596 3.132,-7.212 3.709,-8.655 0.247,-0.577 0.536,-1.319 0.865,-2.102 1.668,-4.164 1.771,-8.791 0.289,-13.024 -1.772,-5.481 -5.564,-7.831 -8.655,-11.664 -3.091,-3.833 -4.575,-5.399 -4.575,-5.399 0,0 -1.195,1.36 -4.534,5.482 -3.338,4.121 -6.883,6.182 -8.655,11.664 -1.462,4.256 -1.33,8.898 0.371,13.065 0.289,0.824 0.618,1.525 0.865,2.102 0.578,1.442 2.556,6.059 3.71,8.655 0,0 -10.386,-11.87 -18.011,-11.87 -3.297,0 -10.963,-0.948 -10.963,13.23 0,6.265 6.883,12.736 6.883,12.736 0,0 0.989,-5.111 8.49,-5.111 5.152,0 8.655,5.399 8.655,11.499 0,4.987 -1.03,9.191 -2.267,9.727 2.429,1.646 4.768,3.421 7.007,5.317 1.566,1.566 8.49,9.932 8.49,9.932 0,0 6.924,-8.243 8.491,-9.932 2.255,-1.894 4.608,-3.668 7.048,-5.317 -1.237,-0.536 -2.268,-4.699 -2.268,-9.727 0,-6.059 3.504,-11.499 8.656,-11.499 C -1.03,18.424 0,23.452 0,23.452"
   style="fill:#ffffff;fill-rule:nonzero"
   id="path28" />
        </g><g
   transform="matrix(2.03699,0,0,2.03699,2198.283,1490.6862)"
   id="g34"
   style="fill:#ffffff">
            <path
   d="m 0,42.864 -0.577,2.967 13.271,-7.666 v 26.007 h 6.43 V 38.165 L 32.395,45.831 31.777,42.864 45.873,42.575 39.072,30.293 41.916,29.304 34.95,25.306 52.137,15.373 49.293,14.426 56.094,2.102 42.04,1.814 42.616,-1.154 25.1,8.944 V -11.252 L 22.833,-9.273 15.909,-21.308 8.985,-9.273 6.677,-11.252 V 8.944 l -17.475,-10.098 0.576,2.968 -14.054,0.288 6.759,12.324 -2.843,0.947 17.186,9.933 -6.965,3.998 2.885,0.989 -6.801,12.282 z"
   style="fill:#ffffff;fill-rule:nonzero"
   id="path32" />
        </g><g
   transform="matrix(-2.03699,0,0,2.03699,1749.5585,1369.7726)"
   id="g38"
   style="fill:#ffffff">
            <rect
   x="40.672001"
   y="370.36401"
   width="115.75"
   height="16.486"
   style="fill:#ffffff"
   id="rect36" />
        </g><g
   transform="matrix(-2.03699,0,0,2.03699,1749.5585,1095.007)"
   id="g42"
   style="fill:#ffffff">
            <rect
   x="40.672001"
   y="437.80801"
   width="115.75"
   height="16.486"
   style="fill:#ffffff"
   id="rect40" />
        </g><g
   transform="matrix(-2.03699,0,0,2.03699,1749.5585,1232.3939)"
   id="g46"
   style="fill:#ffffff">
            <rect
   x="40.672001"
   y="404.08499"
   width="115.75"
   height="16.486"
   style="fill:#ffffff"
   id="rect44" />
        </g><g
   transform="matrix(-2.03699,0,0,2.03699,1749.5585,957.62837)"
   id="g50"
   style="fill:#ffffff">
            <rect
   x="40.672001"
   y="471.52899"
   width="115.75"
   height="16.486"
   style="fill:#ffffff"
   id="rect48" />
        </g><g
   transform="matrix(2.03699,0,0,2.03699,1348.08,957.62837)"
   id="g54"
   style="fill:#ffffff">
            <rect
   x="530.784"
   y="471.52899"
   width="115.749"
   height="16.486"
   style="fill:#ffffff"
   id="rect52" />
        </g><g
   transform="matrix(2.03699,0,0,2.03699,1348.08,1095.007)"
   id="g58"
   style="fill:#ffffff">
            <rect
   x="530.784"
   y="437.80801"
   width="115.749"
   height="16.486"
   style="fill:#ffffff"
   id="rect56" />
        </g><g
   transform="matrix(2.03699,0,0,2.03699,1348.08,1369.7726)"
   id="g62"
   style="fill:#ffffff">
            <rect
   x="530.784"
   y="370.36401"
   width="115.749"
   height="16.486"
   style="fill:#ffffff"
   id="rect60" />
        </g><g
   transform="matrix(2.03699,0,0,2.03699,1348.08,1232.3939)"
   id="g66"
   style="fill:#ffffff">
            <rect
   x="530.784"
   y="404.08499"
   width="115.749"
   height="16.486"
   style="fill:#ffffff"
   id="rect64" />
        </g><g
   transform="matrix(2.03699,0,0,2.03699,1348.08,1194.8929)"
   id="g70"
   style="fill:#ffffff">
            <path
   d="m 365.995,443.925 h -44.783 v -44.784 h 44.783 z m 13.177,-57.96 h -71.137 v 71.136 h 71.137 z"
   style="fill:#ffffff;fill-rule:nonzero"
   id="path68" />
        </g><g
   transform="matrix(2.03699,0,0,2.03699,1348.08,1193.355)"
   id="g74"
   style="fill:#ffffff">
            <path
   d="m 406.784,485.468 h -126.36 v -126.36 h 126.36 z M 419.96,415.7 v -25.743 h 34.52 v -63.393 h 10.752 l -0.188,-13.176 h -23.74 V 376.78 H 419.96 V 345.931 H 390.312 V 304.44 h 58.74 l 25.784,-25.783 -10.004,-8.631 -21.238,21.238 h -21.219 v -9.422 h -13.176 v 9.422 h -32.064 v 54.667 h -26.944 v -64.089 h -13.177 v 64.089 h -26.943 v -54.667 h -32.064 v -9.114 l -13.176,-0.222 v 9.336 h -21.22 l -22.018,-22.02 -9.317,9.318 25.878,25.878 h 58.74 v 41.491 h -29.647 v 30.849 h -21.344 v -63.392 h -24.639 v 13.176 h 11.463 v 63.393 h 34.52 V 415.7 h -45.983 v 13.176 h 45.983 v 25.743 h -34.52 v 63.393 h -11.358 l -0.22,13.176 h 24.754 v -63.393 h 21.344 v 30.85 h 29.647 v 41.492 h -58.74 l -25.109,25.108 9.856,8.78 20.71,-20.712 h 21.22 v 10.929 h 13.176 v -10.929 h 32.064 v -54.668 h 26.943 v 65.597 h 13.177 v -65.597 h 26.944 v 54.668 h 32.064 v 10.929 h 13.176 v -10.929 h 21.219 l 21.265,21.264 9.473,-9.163 -25.28,-25.277 h -58.74 v -41.492 h 29.648 v -30.85 h 21.344 v 63.393 h 23.873 V 518.012 H 454.48 v -63.393 h -34.52 v -25.743 h 45.217 V 415.7 Z"
   style="fill:#ffffff;fill-rule:nonzero"
   id="path72" />
        </g><g
   transform="matrix(2.03699,0,0,2.03699,1764.3552,1706.1427)"
   id="g78"
   style="fill:#ffffff">
            <path
   d="m 0,20.545 c -5.665,0 -10.273,-4.608 -10.273,-10.272 C -10.273,4.608 -5.665,0 0,0 5.664,0 10.272,4.608 10.272,10.273 10.272,15.937 5.664,20.545 0,20.545 m 18.934,0.504 c 1.819,-3.182 2.874,-6.856 2.874,-10.776 0,-12.025 -9.783,-21.808 -21.808,-21.808 -12.025,0 -21.809,9.783 -21.809,21.808 0,12.024 9.784,21.807 21.809,21.807 3.921,0 7.594,-1.055 10.777,-2.873 l 0.602,0.603 8.158,-8.158 z"
   style="fill:#ffffff;fill-rule:nonzero"
   id="path76" />
        </g><g
   transform="matrix(2.03699,0,0,2.03699,1779.1519,1830.0141)"
   id="g82"
   style="fill:#ffffff">
            <path
   d="m 0,14.527 c -4.006,4.006 -10.523,4.005 -14.528,0 C -18.533,10.522 -18.533,4.006 -14.527,0 -10.522,-4.006 -4.005,-4.006 0,0 4.005,4.005 4.005,10.522 0,14.527 M 13.745,1.495 c -0.964,-3.536 -2.816,-6.88 -5.588,-9.652 -8.503,-8.503 -22.338,-8.503 -30.841,0 -8.503,8.503 -8.503,22.338 -10e-4,30.841 8.503,8.503 22.338,8.503 30.842,0 2.772,-2.773 4.624,-6.116 5.588,-9.653 h 0.853 V 1.495 Z"
   style="fill:#ffffff;fill-rule:nonzero"
   id="path80" />
        </g><g
   transform="matrix(2.03699,0,0,2.03699,1779.1519,2038.7567)"
   id="g86"
   style="fill:#ffffff">
            <path
   d="m 0,14.527 c -4.006,4.005 -10.523,4.005 -14.528,0 C -18.533,10.522 -18.533,4.005 -14.527,0 -10.522,-4.006 -4.005,-4.006 0,0 4.005,4.005 4.005,10.522 0,14.527 M 13.745,1.495 c -0.964,-3.536 -2.816,-6.88 -5.588,-9.653 -8.503,-8.502 -22.338,-8.502 -30.841,10e-4 -8.503,8.503 -8.503,22.338 -10e-4,30.841 8.503,8.503 22.338,8.503 30.842,0 2.772,-2.773 4.624,-6.116 5.588,-9.653 h 0.853 V 1.495 Z"
   style="fill:#ffffff;fill-rule:nonzero"
   id="path84" />
        </g><g
   transform="matrix(2.03699,0,0,2.03699,1779.1519,2247.1653)"
   id="g90"
   style="fill:#ffffff">
            <path
   d="m 0,14.527 c -4.006,4.006 -10.523,4.005 -14.528,0 C -18.533,10.522 -18.533,4.006 -14.527,0 -10.522,-4.006 -4.005,-4.006 0,0 4.005,4.005 4.005,10.521 0,14.527 M 13.745,1.495 c -0.964,-3.536 -2.816,-6.88 -5.588,-9.653 -8.503,-8.502 -22.338,-8.502 -30.841,0 -8.503,8.504 -8.503,22.339 -10e-4,30.842 8.503,8.503 22.338,8.503 30.842,-0.001 2.772,-2.772 4.624,-6.115 5.588,-9.652 h 0.853 V 1.495 Z"
   style="fill:#ffffff;fill-rule:nonzero"
   id="path88" />
        </g><g
   transform="matrix(2.03699,0,0,2.03699,1785.2792,2380.032)"
   id="g94"
   style="fill:#ffffff">
            <path
   d="m 0,0.001 c 0,5.664 -4.608,10.272 -10.272,10.272 -5.665,0 -10.273,-4.608 -10.273,-10.272 0,-5.665 4.608,-10.272 10.273,-10.272 C -4.608,-10.271 0,-5.664 0,0.001 m 0.505,-18.935 c -3.183,-1.819 -6.857,-2.874 -10.777,-2.874 -12.025,0 -21.808,9.784 -21.808,21.809 0,12.025 9.783,21.808 21.808,21.808 12.024,0 21.807,-9.783 21.807,-21.808 0,-3.921 -1.054,-7.595 -2.873,-10.777 l 0.603,-0.603 -8.158,-8.157 z"
   style="fill:#ffffff;fill-rule:nonzero"
   id="path92" />
        </g><g
   transform="matrix(2.03699,0,0,2.03699,1915.7545,2399.029)"
   id="g98"
   style="fill:#ffffff">
            <path
   d="m 0,-16.589 c 4.006,4.005 4.005,10.522 0,14.527 -4.005,4.006 -10.522,4.006 -14.527,0 -4.006,-4.006 -4.006,-10.522 0,-14.527 4.005,-4.006 10.522,-4.006 14.527,0 m -13.032,-13.746 c -3.536,0.965 -6.88,2.816 -9.652,5.589 -8.503,8.503 -8.503,22.338 0,30.841 8.503,8.503 22.338,8.503 30.841,0.001 8.503,-8.503 8.503,-22.338 0,-30.842 -2.773,-2.773 -6.116,-4.624 -9.653,-5.589 v -0.852 h -11.536 z"
   style="fill:#ffffff;fill-rule:nonzero"
   id="path96" />
        </g><g
   transform="matrix(2.03699,0,0,2.03699,2062.6948,2399.029)"
   id="g102"
   style="fill:#ffffff">
            <path
   d="m 0,-16.589 c 4.006,4.005 4.006,10.522 0,14.527 -4.005,4.006 -10.521,4.006 -14.527,0 -4.006,-4.006 -4.006,-10.522 0,-14.527 4.005,-4.006 10.522,-4.006 14.527,0 m -13.032,-13.746 c -3.536,0.965 -6.88,2.816 -9.652,5.589 -8.503,8.503 -8.503,22.338 0,30.841 8.503,8.503 22.339,8.503 30.841,0.001 8.503,-8.503 8.503,-22.338 0,-30.842 -2.773,-2.773 -6.116,-4.624 -9.653,-5.589 v -0.852 h -11.536 z"
   style="fill:#ffffff;fill-rule:nonzero"
   id="path100" />
        </g><g
   transform="matrix(2.03699,0,0,2.03699,2209.8286,2399.029)"
   id="g106"
   style="fill:#ffffff">
            <path
   d="m 0,-16.589 c 4.006,4.005 4.006,10.522 0,14.527 -4.005,4.006 -10.521,4.006 -14.527,0 -4.005,-4.006 -4.005,-10.522 0,-14.527 4.005,-4.006 10.522,-4.006 14.527,0 m -13.031,-13.746 c -3.537,0.965 -6.88,2.816 -9.653,5.589 -8.503,8.503 -8.503,22.338 0,30.841 8.503,8.503 22.339,8.503 30.841,0.001 8.503,-8.503 8.503,-22.338 0,-30.842 -2.773,-2.773 -6.115,-4.624 -9.653,-5.589 v -0.852 h -11.535 z"
   style="fill:#ffffff;fill-rule:nonzero"
   id="path104" />
        </g><g
   transform="matrix(2.03699,0,0,2.03699,2331.6773,2400.958)"
   id="g110"
   style="fill:#ffffff">
            <path
   d="m 0,-20.545 c 5.665,0 10.273,4.608 10.273,10.272 C 10.273,-4.608 5.665,0 0,0 c -5.665,0 -10.272,-4.608 -10.272,-10.273 0,-5.664 4.607,-10.272 10.272,-10.272 m -18.934,-0.505 c -1.819,3.183 -2.874,6.857 -2.874,10.777 0,12.025 9.783,21.808 21.808,21.808 12.025,0 21.809,-9.783 21.809,-21.808 0,-12.024 -9.784,-21.807 -21.809,-21.807 -3.921,0 -7.594,1.055 -10.777,2.873 l -0.603,-0.603 -8.157,8.158 z"
   style="fill:#ffffff;fill-rule:nonzero"
   id="path108" />
        </g><g
   transform="matrix(2.03699,0,0,2.03699,2311.1892,1727.0667)"
   id="g114"
   style="fill:#ffffff">
            <path
   d="m 0,0.001 c 0,-5.665 4.608,-10.273 10.272,-10.273 5.665,0 10.272,4.608 10.272,10.273 0,5.664 -4.607,10.272 -10.272,10.272 C 4.608,10.273 0,5.665 0,0.001 m -0.505,18.934 c 3.183,1.819 6.856,2.874 10.777,2.874 12.025,0 21.808,-9.784 21.808,-21.808 0,-12.026 -9.783,-21.809 -21.808,-21.809 -12.024,0 -21.808,9.783 -21.808,21.809 0,3.921 1.055,7.594 2.874,10.777 l -0.603,0.602 8.158,8.158 z"
   style="fill:#ffffff;fill-rule:nonzero"
   id="path112" />
        </g><g
   transform="matrix(2.03699,0,0,2.03699,2317.3185,1859.6055)"
   id="g118"
   style="fill:#ffffff">
            <path
   d="m 0,-14.527 c 4.006,-4.006 10.522,-4.006 14.528,0 C 18.533,-10.522 18.533,-4.006 14.527,0 10.522,4.005 4.005,4.005 0,0 -4.005,-4.005 -4.005,-10.522 0,-14.527 m -13.746,13.032 c 0.965,3.536 2.817,6.88 5.589,9.652 8.503,8.503 22.338,8.503 30.841,0 8.503,-8.503 8.503,-22.339 10e-4,-30.841 -8.503,-8.503 -22.338,-8.503 -30.842,0 -2.772,2.773 -4.624,6.115 -5.589,9.653 h -0.852 v 11.536 z"
   style="fill:#ffffff;fill-rule:nonzero"
   id="path116" />
        </g><g
   transform="matrix(2.03699,0,0,2.03699,2317.3185,2067.5781)"
   id="g122"
   style="fill:#ffffff">
            <path
   d="m 0,-14.527 c 4.006,-4.006 10.522,-4.005 14.528,0 C 18.533,-10.522 18.533,-4.006 14.527,0 10.522,4.006 4.005,4.006 0,0 -4.005,-4.005 -4.005,-10.522 0,-14.527 m -13.746,13.032 c 0.965,3.536 2.817,6.88 5.589,9.652 8.503,8.503 22.338,8.503 30.841,0 8.503,-8.503 8.503,-22.338 10e-4,-30.841 -8.503,-8.503 -22.338,-8.503 -30.842,0 -2.772,2.773 -4.624,6.116 -5.589,9.653 h -0.852 v 11.536 z"
   style="fill:#ffffff;fill-rule:nonzero"
   id="path120" />
        </g><g
   transform="matrix(2.03699,0,0,2.03699,2317.3185,2276.7546)"
   id="g126"
   style="fill:#ffffff">
            <path
   d="m 0,-14.527 c 4.006,-4.006 10.522,-4.006 14.528,0 C 18.533,-10.522 18.533,-4.006 14.527,0 10.522,4.005 4.005,4.005 0,0 -4.005,-4.005 -4.005,-10.522 0,-14.527 m -13.746,13.032 c 0.965,3.536 2.817,6.88 5.589,9.653 8.503,8.502 22.338,8.502 30.841,0 8.503,-8.504 8.503,-22.339 10e-4,-30.842 -8.503,-8.503 -22.338,-8.503 -30.842,0.001 -2.772,2.772 -4.624,6.115 -5.589,9.652 h -0.852 v 11.536 z"
   style="fill:#ffffff;fill-rule:nonzero"
   id="path124" />
        </g><g
   transform="matrix(2.03699,0,0,2.03699,1885.8841,1708.3101)"
   id="g130"
   style="fill:#ffffff">
            <path
   d="M 0,16.333 C -3.929,12.252 -3.806,5.736 0.275,1.808 4.355,-2.121 10.871,-1.998 14.8,2.083 18.729,6.164 18.605,12.679 14.524,16.608 10.444,20.537 3.928,20.413 0,16.333 m 12.769,13.99 c 3.554,-0.898 6.932,-2.685 9.756,-5.405 8.662,-8.34 8.925,-22.173 0.584,-30.835 -8.34,-8.663 -22.173,-8.925 -30.835,-0.585 -8.663,8.34 -8.925,22.173 -0.584,30.835 2.72,2.825 6.027,4.74 9.545,5.771 l -0.016,0.853 11.533,0.218 z"
   style="fill:#ffffff;fill-rule:nonzero"
   id="path128" />
        </g><g
   transform="matrix(2.03699,0,0,2.03699,2033.4782,1708.3101)"
   id="g134"
   style="fill:#ffffff">
            <path
   d="M 0,16.333 C -3.929,12.252 -3.806,5.736 0.275,1.808 4.355,-2.121 10.871,-1.998 14.8,2.083 18.729,6.164 18.605,12.679 14.525,16.608 10.444,20.537 3.929,20.413 0,16.333 m 12.769,13.99 c 3.554,-0.898 6.932,-2.685 9.756,-5.405 8.663,-8.34 8.925,-22.173 0.585,-30.835 -8.341,-8.663 -22.174,-8.925 -30.836,-0.585 -8.663,8.34 -8.924,22.173 -0.584,30.835 2.72,2.825 6.027,4.74 9.545,5.771 l -0.016,0.853 11.534,0.218 z"
   style="fill:#ffffff;fill-rule:nonzero"
   id="path132" />
        </g><g
   transform="matrix(2.03699,0,0,2.03699,2179.9602,1708.3101)"
   id="g138"
   style="fill:#ffffff">
            <path
   d="M 0,16.333 C -3.929,12.252 -3.806,5.736 0.275,1.808 4.355,-2.121 10.871,-1.998 14.8,2.083 18.729,6.164 18.605,12.679 14.525,16.608 10.444,20.537 3.929,20.413 0,16.333 m 12.769,13.99 c 3.554,-0.898 6.932,-2.685 9.756,-5.405 8.663,-8.34 8.925,-22.173 0.585,-30.835 -8.341,-8.663 -22.174,-8.925 -30.836,-0.585 -8.663,8.34 -8.924,22.173 -0.584,30.835 2.72,2.825 6.027,4.74 9.545,5.771 l -0.016,0.853 11.534,0.218 z"
   style="fill:#ffffff;fill-rule:nonzero"
   id="path136" />
        </g><g
   transform="matrix(2.03699,0,0,2.03699,1471.7664,2789.8825)"
   id="g142"
   style="fill:#ffffff">
            <path
   d="m 0,-689.138 v 279.935 l -0.457,73.964 c -0.108,13.503 -0.211,26.254 -0.211,38.255 0,86.789 5.053,130.355 35.002,159.085 45.094,43.243 133.765,101.343 248.543,136.175 114.807,-34.836 203.476,-92.935 248.555,-136.175 29.95,-28.774 35.005,-72.334 35.005,-159.085 0,-15.025 -0.125,-31.134 -0.306,-48.527 l -0.318,-63.591 v -280.036 z m 282.877,729.19 -5.659,-1.666 C 152.794,1.738 55.85,-61.776 6.611,-108.994 c -44.037,-42.242 -47.331,-101.859 -47.331,-187.99 0,-12.101 0.104,-24.961 0.213,-38.577 l 0.455,-73.761 V -729.19 h 645.913 v 319.987 l 0.318,63.385 c 0.181,17.434 0.306,33.68 0.306,48.834 0,86.085 -3.292,145.678 -47.317,187.976 C 509.931,-61.78 412.991,1.731 288.534,38.386 Z"
   style="fill:#ffffff;fill-rule:nonzero"
   id="path140" />
        </g><g
   transform="matrix(2.03699,0,0,2.03699,2055.9198,2582.1034)"
   id="g146"
   style="fill:#ffffff">
            <path
   d="m 0,30.406 c -0.642,4.377 2.945,8.374 8.011,8.929 0.435,0.048 0.874,0.068 1.312,0.062 6.616,0 23.213,-5.549 24.49,-27.806 C 34.78,-4.686 29.286,-8.997 29.286,-8.997 L 19.15,6.978 C 19.15,29.938 0,30.406 0,30.406"
   style="fill:#ffffff;fill-rule:nonzero"
   id="path144" />
        </g><g
   transform="matrix(2.03699,0,0,2.03699,2001.306,2630.0522)"
   id="g150"
   style="fill:#ffffff">
            <path
   d="m 0,-16.527 -10.136,-15.976 c 0,0 -5.455,4.312 -4.681,20.622 1.315,22.258 17.874,27.806 24.45,27.806 5.128,0.051 9.332,-3.499 9.391,-7.929 C 19.029,7.642 19.006,7.287 18.957,6.935 18.957,6.935 0,6.4 0,-16.527"
   style="fill:#ffffff;fill-rule:nonzero"
   id="path148" />
        </g><g
   transform="matrix(2.03699,0,0,2.03699,2069.6307,2578.003)"
   id="g154"
   style="fill:#ffffff">
            <path
   d="m 0,11.933 c -0.259,-7.642 0.771,-15.275 3.056,-22.66 1.625,-5.014 11.607,-10.294 11.607,-10.294 -9.982,-9.592 -18.725,3.343 -18.338,1.805 0.187,-3.722 -0.635,-7.43 -2.399,-10.829 -1.183,-2.098 -2.622,-4.082 -4.294,-5.916 -1.658,1.836 -3.085,3.82 -4.256,5.916 -1.761,3.4 -2.583,7.108 -2.398,10.829 0.348,1.604 -8.357,-11.397 -18.338,-1.805 0,0 9.826,5.28 11.606,10.294 2.291,7.385 3.321,15.018 3.056,22.66 0,8.923 5.455,11.296 7.97,12.266 v 23.695 h 4.681 V 24.499 C -6.229,23.697 0.155,21.491 0,11.933"
   style="fill:#ffffff;fill-rule:nonzero"
   id="path152" />
        </g>
    <g
   id="Text"
   style="fill:#ffffff">
        <g
   id="Society"
   style="fill:#ffffff">
            <g
   transform="matrix(0.862724,0.669312,-0.612973,0.790104,2137.9,82.5946)"
   id="g159"
   style="fill:#ffffff">
                <text
   x="906.681px"
   y="3284.71px"
   style="font-family:'Arial-BoldMT', 'Arial', sans-serif;font-weight:700;font-size:442.849px;fill:#ffffff"
   id="text157">S</text>
            </g>
            <g
   transform="matrix(1.00506,0.426769,-0.390846,0.920456,1371.31,-246.413)"
   id="g163"
   style="fill:#ffffff">
                <text
   x="1234.32px"
   y="3524.54px"
   style="font-family:'Arial-BoldMT', 'Arial', sans-serif;font-weight:700;font-size:442.849px;fill:#ffffff"
   id="text161">O</text>
            </g>
            <g
   transform="matrix(1.08228,0.144688,-0.132509,0.991182,351.68,-208.63)"
   id="g167"
   style="fill:#ffffff">
                <text
   x="1666.76px"
   y="3689px"
   style="font-family:'Arial-BoldMT', 'Arial', sans-serif;font-weight:700;font-size:442.849px;fill:#ffffff"
   id="text165">C</text>
            </g>
            <g
   transform="matrix(1.09051,-0.0553549,0.0506954,0.998714,-376.4,119.476)"
   id="g171"
   style="fill:#ffffff">
                <text
   x="2071.81px"
   y="3725.89px"
   style="font-family:'Arial-BoldMT', 'Arial', sans-serif;font-weight:700;font-size:442.849px;fill:#ffffff"
   id="text169">I</text>
            </g>
            <g
   transform="matrix(1.06632,-0.235017,0.215234,0.976562,-950.28,618.436)"
   id="g175"
   style="fill:#ffffff">
                <text
   x="2260.62px"
   y="3718.54px"
   style="font-family:'Arial-BoldMT', 'Arial', sans-serif;font-weight:700;font-size:442.849px;fill:#ffffff"
   id="text173">E</text>
            </g>
            <g
   transform="matrix(0.986428,-0.468221,0.428808,0.903395,-1517.16,1587.6)"
   id="g179"
   style="fill:#ffffff">
                <text
   x="2643.47px"
   y="3621.75px"
   style="font-family:'Arial-BoldMT', 'Arial', sans-serif;font-weight:700;font-size:442.849px;fill:#ffffff"
   id="text177">T</text>
            </g>
            <g
   transform="matrix(0.856438,-0.677337,0.620322,0.784347,-1716.85,2757.85)"
   id="g183"
   style="fill:#ffffff">
                <text
   x="2971.48px"
   y="3455.36px"
   style="font-family:'Arial-BoldMT', 'Arial', sans-serif;font-weight:700;font-size:442.849px;fill:#ffffff"
   id="text181">Y</text>
            </g>
        </g>
        <g
   id="Computer-Science"
   serif:id="Computer Science"
   style="fill:#ffffff">
            <g
   transform="matrix(-0.162994,-1.07968,0.988796,-0.149274,-1531.83,3551.56)"
   id="g188"
   style="fill:#ffffff">
                <text
   x="728.429px"
   y="2405.95px"
   style="font-family:'Arial-BoldMT', 'Arial', sans-serif;font-weight:700;font-size:433.333px;fill:#ffffff"
   id="text186">C</text>
            </g>
            <g
   transform="matrix(0.123321,-1.08493,0.993602,0.11294,-1452.45,2565.86)"
   id="g192"
   style="fill:#ffffff">
                <text
   x="679.563px"
   y="2061.4px"
   style="font-family:'Arial-BoldMT', 'Arial', sans-serif;font-weight:700;font-size:433.333px;fill:#ffffff"
   id="text190">O</text>
            </g>
            <g
   transform="matrix(0.423303,-1.00652,0.921798,0.387672,-1138.32,1764.4)"
   id="g196"
   style="fill:#ffffff">
                <text
   x="725.558px"
   y="1688.82px"
   style="font-family:'Arial-BoldMT', 'Arial', sans-serif;font-weight:700;font-size:433.333px;fill:#ffffff"
   id="text194">M</text>
            </g>
            <g
   transform="matrix(0.677337,-0.856438,0.784347,0.620322,-751.993,1264.26)"
   id="g200"
   style="fill:#ffffff">
                <text
   x="889.02px"
   y="1324.47px"
   style="font-family:'Arial-BoldMT', 'Arial', sans-serif;font-weight:700;font-size:433.333px;fill:#ffffff"
   id="text198">P</text>
            </g>
            <g
   transform="matrix(0.859967,-0.672851,0.616214,0.787579,-508.669,961.568)"
   id="g204"
   style="fill:#ffffff">
                <text
   x="1090.27px"
   y="1073.24px"
   style="font-family:'Arial-BoldMT', 'Arial', sans-serif;font-weight:700;font-size:433.333px;fill:#ffffff"
   id="text202">U</text>
            </g>
            <g
   transform="matrix(0.994489,-0.450847,0.412897,0.910778,-349.678,693.792)"
   id="g208"
   style="fill:#ffffff">
                <text
   x="1367.65px"
   y="865.143px"
   style="font-family:'Arial-BoldMT', 'Arial', sans-serif;font-weight:700;font-size:433.333px;fill:#ffffff"
   id="text206">T</text>
            </g>
            <g
   transform="matrix(1.07122,-0.211581,0.193771,0.981047,-260.88,360.498)"
   id="g212"
   style="fill:#ffffff">
                <text
   x="1637.12px"
   y="744.639px"
   style="font-family:'Arial-BoldMT', 'Arial', sans-serif;font-weight:700;font-size:433.333px;fill:#ffffff"
   id="text210">E</text>
            </g>
            <g
   transform="matrix(1.09023,0.0605351,-0.0554396,0.998462,-138.422,-117.201)"
   id="g216"
   style="fill:#ffffff">
                <text
   x="1953.43px"
   y="682.563px"
   style="font-family:'Arial-BoldMT', 'Arial', sans-serif;font-weight:700;font-size:433.333px;fill:#ffffff"
   id="text214">R</text>
            </g>
            <g
   transform="matrix(1.00974,0.415578,-0.380597,0.924741,257.042,-955.551)"
   id="g220"
   style="fill:#ffffff">
                <text
   x="2432.91px"
   y="737.599px"
   style="font-family:'Arial-BoldMT', 'Arial', sans-serif;font-weight:700;font-size:433.333px;fill:#ffffff"
   id="text218">S</text>
            </g>
            <g
   transform="matrix(0.877758,0.649471,-0.594801,0.803873,847.006,-1603.46)"
   id="g224"
   style="fill:#ffffff">
                <text
   x="2729.5px"
   y="863.056px"
   style="font-family:'Arial-BoldMT', 'Arial', sans-serif;font-weight:700;font-size:433.333px;fill:#ffffff"
   id="text222">C</text>
            </g>
            <g
   transform="matrix(0.74402,0.79919,-0.731918,0.681392,1557.43,-2054.38)"
   id="g228"
   style="fill:#ffffff">
                <text
   x="3000.53px"
   y="1078.47px"
   style="font-family:'Arial-BoldMT', 'Arial', sans-serif;font-weight:700;font-size:433.333px;fill:#ffffff"
   id="text226">I</text>
            </g>
            <g
   transform="matrix(0.603235,0.910153,-0.833541,0.552457,2208.27,-2294.22)"
   id="g232"
   style="fill:#ffffff">
                <text
   x="3098.23px"
   y="1174.51px"
   style="font-family:'Arial-BoldMT', 'Arial', sans-serif;font-weight:700;font-size:433.333px;fill:#ffffff"
   id="text230">E</text>
            </g>
            <g
   transform="matrix(0.368576,1.02782,-0.941307,0.337551,3426.73,-2408.96)"
   id="g236"
   style="fill:#ffffff">
                <text
   x="3274.4px"
   y="1443.95px"
   style="font-family:'Arial-BoldMT', 'Arial', sans-serif;font-weight:700;font-size:433.333px;fill:#ffffff"
   id="text234">N</text>
            </g>
            <g
   transform="matrix(0.0954311,1.08773,-0.996173,0.0873982,4830.14,-2066.39)"
   id="g240"
   style="fill:#ffffff">
                <text
   x="3387.22px"
   y="1772.95px"
   style="font-family:'Arial-BoldMT', 'Arial', sans-serif;font-weight:700;font-size:433.333px;fill:#ffffff"
   id="text238">C</text>
            </g>
            <g
   transform="matrix(-0.1753,1.07775,-0.987029,-0.160544,6102.88,-1217.63)"
   id="g244"
   style="fill:#ffffff">
                <text
   x="3412.41px"
   y="2119.77px"
   style="font-family:'Arial-BoldMT', 'Arial', sans-serif;font-weight:700;font-size:433.333px;fill:#ffffff"
   id="text242">E</text>
            </g>
        </g>
    </g>
    <g
   id="Dots"
   transform="matrix(1,0,0,1,4,29)"
   style="fill:#ffffff">
        <g
   transform="matrix(1,0,0,1,-30,-50)"
   id="g266"
   style="fill:#ffffff">
            <circle
   cx="616.079"
   cy="2636.63"
   r="43.464"
   style="fill:#ffffff"
   id="circle248" />
            <g
   transform="matrix(1,0,0,1,57.19,116.668)"
   id="g252"
   style="fill:#ffffff">
                <circle
   cx="616.079"
   cy="2636.63"
   r="43.464"
   style="fill:#ffffff"
   id="circle250" />
            </g>
            <g
   transform="matrix(1,0,0,1,121.822,233.335)"
   id="g256"
   style="fill:#ffffff">
                <circle
   cx="616.079"
   cy="2636.63"
   r="43.464"
   style="fill:#ffffff"
   id="circle254" />
            </g>
            <g
   transform="matrix(1,0,0,1,197.895,340.725)"
   id="g260"
   style="fill:#ffffff">
                <circle
   cx="616.079"
   cy="2636.63"
   r="43.464"
   style="fill:#ffffff"
   id="circle258" />
            </g>
            <g
   transform="matrix(1,0,0,1,280.725,443.795)"
   id="g264"
   style="fill:#ffffff">
                <circle
   cx="616.079"
   cy="2636.63"
   r="43.464"
   style="fill:#ffffff"
   id="circle262" />
            </g>
        </g>
        <g
   id="g288"
   style="fill:#ffffff">
            <g
   transform="matrix(-1,0,0,1,4117.88,-64)"
   id="g270"
   style="fill:#ffffff">
                <circle
   cx="616.079"
   cy="2636.63"
   r="43.464"
   style="fill:#ffffff"
   id="circle268" />
            </g>
            <g
   transform="matrix(-1,0,0,1,4060.69,52.6676)"
   id="g274"
   style="fill:#ffffff">
                <circle
   cx="616.079"
   cy="2636.63"
   r="43.464"
   style="fill:#ffffff"
   id="circle272" />
            </g>
            <g
   transform="matrix(-1,0,0,1,3996.06,169.335)"
   id="g278"
   style="fill:#ffffff">
                <circle
   cx="616.079"
   cy="2636.63"
   r="43.464"
   style="fill:#ffffff"
   id="circle276" />
            </g>
            <g
   transform="matrix(-1,0,0,1,3919.99,276.725)"
   id="g282"
   style="fill:#ffffff">
                <circle
   cx="616.079"
   cy="2636.63"
   r="43.464"
   style="fill:#ffffff"
   id="circle280" />
            </g>
            <g
   transform="matrix(-1,0,0,1,3837.16,379.795)"
   id="g286"
   style="fill:#ffffff">
                <circle
   cx="616.079"
   cy="2636.63"
   r="43.464"
   style="fill:#ffffff"
   id="circle284" />
            </g>
        </g>
    </g>
</svg>
