<?xml version="1.0" encoding="UTF-8" standalone="no"?>
<svg
   xmlns:dc="http://purl.org/dc/elements/1.1/"
   xmlns:cc="http://creativecommons.org/ns#"
   xmlns:rdf="http://www.w3.org/1999/02/22-rdf-syntax-ns#"
   xmlns:svg="http://www.w3.org/2000/svg"
   xmlns="http://www.w3.org/2000/svg"
   xmlns:sodipodi="http://sodipodi.sourceforge.net/DTD/sodipodi-0.dtd"
   xmlns:inkscape="http://www.inkscape.org/namespaces/inkscape"
   version="1.1"
   id="svg2"
   xml:space="preserve"
   width="2048"
   height="2048"
   viewBox="0 0 2048 2048"
   sodipodi:docname="CSS Circuit White.svg"
   inkscape:version="1.0.2-2 (e86c870879, 2021-01-15)"
   inkscape:export-filename="C:\Users\jerem\projects\css\logos-and-branding\CSS Circuit\CSS Circuit White.png"
   inkscape:export-xdpi="192"
   inkscape:export-ydpi="192"><metadata
     id="metadata8"><rdf:RDF><cc:Work
         rdf:about=""><dc:format>image/svg+xml</dc:format><dc:type
           rdf:resource="http://purl.org/dc/dcmitype/StillImage" /><dc:title></dc:title></cc:Work></rdf:RDF></metadata><defs
     id="defs6"><clipPath
       clipPathUnits="userSpaceOnUse"
       id="clipPath26"><path
         d="M 0,809.243 H 2040 V 0 H 0 Z"
         id="path24"
         inkscape:connector-curvature="0" /></clipPath></defs><sodipodi:namedview
     pagecolor="#ffffff"
     bordercolor="#666666"
     borderopacity="1"
     objecttolerance="10"
     gridtolerance="10"
     guidetolerance="10"
     inkscape:pageopacity="0"
     inkscape:pageshadow="2"
     inkscape:window-width="1920"
     inkscape:window-height="1001"
     id="namedview4"
     showgrid="false"
     inkscape:zoom="0.2492647"
     inkscape:cx="-277.51186"
     inkscape:cy="471.64673"
     inkscape:window-x="-9"
     inkscape:window-y="-9"
     inkscape:window-maximized="1"
     inkscape:current-layer="g10"
     inkscape:document-rotation="0"
     inkscape:pagecheckerboard="true" /><g
     id="g10"
     inkscape:groupmode="layer"
     inkscape:label="CSS Logo"
     transform="matrix(1.3333333,0,0,-1.3333333,0,1078.9907)"><g
       id="g152"
       transform="matrix(4.1065815,0,0,4.1065815,-894.09174,-1689.8187)"
       style="fill:#ffffff"><path
         inkscape:connector-curvature="0"
         id="path60"
         style="fill:#ffffff;fill-opacity:1;fill-rule:nonzero;stroke:none"
         d="m 427.01383,399.14061 h -44.783 v 44.784 h 44.783 z m 13.177,57.96 h -71.137 v -71.136 h 71.137 z" /><path
         inkscape:connector-curvature="0"
         id="path62"
         style="fill:#ffffff;fill-opacity:1;fill-rule:nonzero;stroke:none"
         d="m 467.80283,358.35261 h -126.36 v 126.36 h 126.36 z m 13.176,69.768 v 25.743 h 34.52 v 63.393 h 10.752 l -0.188,13.176 h -23.74 v -63.392 h -21.344 v 30.849 h -29.648 v 41.491 h 58.74 l 25.784,25.783 -10.004,8.631 -21.238,-21.238 h -21.219 v 9.422 h -13.176 v -9.422 h -32.064 v -54.667 h -26.944 v 64.089 h -13.177 v -64.089 h -26.943 v 54.667 h -32.064 v 9.114 l -13.176,0.222 v -9.336 h -21.22 l -22.018,22.02 -9.317,-9.318 25.878,-25.878 h 58.74 v -41.491 h -29.647 v -30.849 h -21.344 v 63.392 h -24.639 v -13.176 h 11.463 v -63.393 h 34.52 v -25.743 h -45.983 v -13.176 h 45.983 v -25.743 h -34.52 v -63.393 h -11.358 l -0.22,-13.176 h 24.754 v 63.393 h 21.344 v -30.85 h 29.647 v -41.492 h -58.74 l -25.109,-25.108 9.856,-8.78 20.71,20.712 h 21.22 v -10.929 h 13.176 v 10.929 h 32.064 v 54.668 h 26.943 v -65.597 h 13.177 v 65.597 h 26.944 v -54.668 h 32.064 v -10.929 h 13.176 v 10.929 h 21.219 l 21.265,-21.264 9.473,9.163 -25.28,25.277 h -58.74 v 41.492 h 29.648 v 30.85 h 21.344 v -63.393 h 23.873 v 13.176 h -10.697 v 63.393 h -34.52 v 25.743 h 45.217 v 13.176 z" /><g
         transform="translate(265.37673,571.53811)"
         id="g64"
         style="fill:#ffffff"><path
           inkscape:connector-curvature="0"
           id="path66"
           style="fill:#ffffff;fill-opacity:1;fill-rule:nonzero;stroke:none"
           d="m 0,0 c -5.665,0 -10.273,4.608 -10.273,10.272 0,5.665 4.608,10.273 10.273,10.273 5.664,0 10.272,-4.608 10.272,-10.273 C 10.272,4.608 5.664,0 0,0 m 18.934,-0.504 c 1.819,3.182 2.874,6.856 2.874,10.776 0,12.025 -9.783,21.808 -21.808,21.808 -12.025,0 -21.809,-9.783 -21.809,-21.808 0,-12.024 9.784,-21.807 21.809,-21.807 3.921,0 7.594,1.055 10.777,2.873 l 0.602,-0.603 8.158,8.158 z" /></g><g
         transform="translate(272.64043,516.74511)"
         id="g68"
         style="fill:#ffffff"><path
           inkscape:connector-curvature="0"
           id="path70"
           style="fill:#ffffff;fill-opacity:1;fill-rule:nonzero;stroke:none"
           d="m 0,0 c -4.006,-4.006 -10.523,-4.005 -14.528,0 -4.005,4.005 -4.005,10.521 0.001,14.527 4.005,4.006 10.522,4.006 14.527,0 C 4.005,10.522 4.005,4.005 0,0 m 13.745,13.032 c -0.964,3.536 -2.816,6.88 -5.588,9.652 -8.503,8.503 -22.338,8.503 -30.841,0 -8.503,-8.503 -8.503,-22.338 -10e-4,-30.841 8.503,-8.503 22.338,-8.503 30.842,0 2.772,2.773 4.624,6.116 5.588,9.653 h 0.853 v 11.536 z" /></g><g
         transform="translate(272.64043,414.26901)"
         id="g72"
         style="fill:#ffffff"><path
           inkscape:connector-curvature="0"
           id="path74"
           style="fill:#ffffff;fill-opacity:1;fill-rule:nonzero;stroke:none"
           d="m 0,0 c -4.006,-4.005 -10.523,-4.005 -14.528,0 -4.005,4.005 -4.005,10.522 0.001,14.527 4.005,4.006 10.522,4.006 14.527,0 C 4.005,10.522 4.005,4.005 0,0 m 13.745,13.032 c -0.964,3.536 -2.816,6.88 -5.588,9.653 -8.503,8.502 -22.338,8.502 -30.841,-10e-4 -8.503,-8.503 -8.503,-22.338 -10e-4,-30.841 8.503,-8.503 22.338,-8.503 30.842,0 2.772,2.773 4.624,6.116 5.588,9.653 h 0.853 v 11.536 z" /></g><g
         transform="translate(272.64043,311.95701)"
         id="g76"
         style="fill:#ffffff"><path
           inkscape:connector-curvature="0"
           id="path78"
           style="fill:#ffffff;fill-opacity:1;fill-rule:nonzero;stroke:none"
           d="m 0,0 c -4.006,-4.006 -10.523,-4.005 -14.528,0 -4.005,4.005 -4.005,10.521 0.001,14.527 4.005,4.006 10.522,4.006 14.527,0 C 4.005,10.522 4.005,4.006 0,0 m 13.745,13.032 c -0.964,3.536 -2.816,6.88 -5.588,9.653 -8.503,8.502 -22.338,8.502 -30.841,0 -8.503,-8.504 -8.503,-22.339 -10e-4,-30.842 8.503,-8.503 22.338,-8.503 30.842,10e-4 2.772,2.772 4.624,6.115 5.588,9.652 h 0.853 v 11.536 z" /></g><g
         transform="translate(275.64873,261.25591)"
         id="g80"
         style="fill:#ffffff"><path
           inkscape:connector-curvature="0"
           id="path82"
           style="fill:#ffffff;fill-opacity:1;fill-rule:nonzero;stroke:none"
           d="m 0,0 c 0,-5.664 -4.608,-10.272 -10.272,-10.272 -5.665,0 -10.273,4.608 -10.273,10.272 0,5.665 4.608,10.272 10.273,10.272 C -4.608,10.272 0,5.665 0,0 m 0.505,18.935 c -3.183,1.819 -6.857,2.874 -10.777,2.874 -12.025,0 -21.808,-9.784 -21.808,-21.809 0,-12.025 9.783,-21.808 21.808,-21.808 12.024,0 21.807,9.783 21.807,21.808 0,3.921 -1.054,7.595 -2.873,10.777 l 0.603,0.603 -8.158,8.157 z" /></g><g
         transform="translate(339.70143,268.51951)"
         id="g84"
         style="fill:#ffffff"><path
           inkscape:connector-curvature="0"
           id="path86"
           style="fill:#ffffff;fill-opacity:1;fill-rule:nonzero;stroke:none"
           d="m 0,0 c 4.006,-4.005 4.005,-10.522 0,-14.527 -4.005,-4.006 -10.522,-4.006 -14.527,0 -4.006,4.006 -4.006,10.522 0,14.527 C -10.522,4.006 -4.005,4.006 0,0 m -13.032,13.746 c -3.536,-0.965 -6.88,-2.816 -9.652,-5.589 -8.503,-8.503 -8.503,-22.338 0,-30.841 8.503,-8.503 22.338,-8.503 30.841,-10e-4 8.503,8.503 8.503,22.338 0,30.842 -2.773,2.773 -6.116,4.624 -9.653,5.589 v 0.852 h -11.536 z" /></g><g
         transform="translate(411.83813,268.51951)"
         id="g88"
         style="fill:#ffffff"><path
           inkscape:connector-curvature="0"
           id="path90"
           style="fill:#ffffff;fill-opacity:1;fill-rule:nonzero;stroke:none"
           d="m 0,0 c 4.006,-4.005 4.006,-10.522 0,-14.527 -4.005,-4.006 -10.521,-4.006 -14.527,0 -4.006,4.006 -4.006,10.522 0,14.527 C -10.522,4.006 -4.005,4.006 0,0 m -13.032,13.746 c -3.536,-0.965 -6.88,-2.816 -9.652,-5.589 -8.503,-8.503 -8.503,-22.338 0,-30.841 8.503,-8.503 22.339,-8.503 30.841,-10e-4 8.503,8.503 8.503,22.338 0,30.842 -2.773,2.773 -6.116,4.624 -9.653,5.589 v 0.852 h -11.536 z" /></g><g
         transform="translate(484.06913,268.51951)"
         id="g92"
         style="fill:#ffffff"><path
           inkscape:connector-curvature="0"
           id="path94"
           style="fill:#ffffff;fill-opacity:1;fill-rule:nonzero;stroke:none"
           d="m 0,0 c 4.006,-4.005 4.006,-10.522 0,-14.527 -4.005,-4.006 -10.521,-4.006 -14.527,0 -4.005,4.006 -4.005,10.522 0,14.527 C -10.522,4.006 -4.005,4.006 0,0 m -13.031,13.746 c -3.537,-0.965 -6.88,-2.816 -9.653,-5.589 -8.503,-8.503 -8.503,-22.338 0,-30.841 8.503,-8.503 22.339,-8.503 30.841,-10e-4 8.503,8.503 8.503,22.338 0,30.842 -2.773,2.773 -6.115,4.624 -9.653,5.589 v 0.852 h -11.535 z" /></g><g
         transform="translate(543.88653,271.52831)"
         id="g96"
         style="fill:#ffffff"><path
           inkscape:connector-curvature="0"
           id="path98"
           style="fill:#ffffff;fill-opacity:1;fill-rule:nonzero;stroke:none"
           d="m 0,0 c 5.665,0 10.273,-4.608 10.273,-10.272 0,-5.665 -4.608,-10.273 -10.273,-10.273 -5.665,0 -10.272,4.608 -10.272,10.273 C -10.272,-4.608 -5.665,0 0,0 m -18.934,0.505 c -1.819,-3.183 -2.874,-6.857 -2.874,-10.777 0,-12.025 9.783,-21.808 21.808,-21.808 12.025,0 21.809,9.783 21.809,21.808 0,12.024 -9.784,21.807 -21.809,21.807 -3.921,0 -7.594,-1.055 -10.777,-2.873 l -0.603,0.603 -8.157,-8.158 z" /></g><g
         transform="translate(533.82933,581.81011)"
         id="g100"
         style="fill:#ffffff"><path
           inkscape:connector-curvature="0"
           id="path102"
           style="fill:#ffffff;fill-opacity:1;fill-rule:nonzero;stroke:none"
           d="m 0,0 c 0,5.665 4.608,10.273 10.272,10.273 5.665,0 10.272,-4.608 10.272,-10.273 0,-5.664 -4.607,-10.272 -10.272,-10.272 C 4.608,-10.272 0,-5.664 0,0 m -0.505,-18.934 c 3.183,-1.819 6.856,-2.874 10.777,-2.874 12.025,0 21.808,9.784 21.808,21.808 0,12.026 -9.783,21.809 -21.808,21.809 -12.024,0 -21.808,-9.783 -21.808,-21.809 0,-3.921 1.055,-7.594 2.874,-10.777 l -0.603,-0.602 8.158,-8.158 z" /></g><g
         transform="translate(536.83763,531.27201)"
         id="g104"
         style="fill:#ffffff"><path
           inkscape:connector-curvature="0"
           id="path106"
           style="fill:#ffffff;fill-opacity:1;fill-rule:nonzero;stroke:none"
           d="M 0,0 C 4.006,4.006 10.522,4.006 14.528,0 18.533,-4.005 18.533,-10.521 14.527,-14.527 10.522,-18.532 4.005,-18.532 0,-14.527 -4.005,-10.522 -4.005,-4.005 0,0 m -13.746,-13.032 c 0.965,-3.536 2.817,-6.88 5.589,-9.652 8.503,-8.503 22.338,-8.503 30.841,0 8.503,8.503 8.503,22.339 10e-4,30.841 -8.503,8.503 -22.338,8.503 -30.842,0 -2.772,-2.773 -4.624,-6.115 -5.589,-9.653 h -0.852 v -11.536 z" /></g><g
         transform="translate(536.83763,429.17331)"
         id="g108"
         style="fill:#ffffff"><path
           inkscape:connector-curvature="0"
           id="path110"
           style="fill:#ffffff;fill-opacity:1;fill-rule:nonzero;stroke:none"
           d="M 0,0 C 4.006,4.006 10.522,4.005 14.528,0 18.533,-4.005 18.533,-10.521 14.527,-14.527 10.522,-18.533 4.005,-18.533 0,-14.527 -4.005,-10.522 -4.005,-4.005 0,0 m -13.746,-13.032 c 0.965,-3.536 2.817,-6.88 5.589,-9.652 8.503,-8.503 22.338,-8.503 30.841,0 8.503,8.503 8.503,22.338 10e-4,30.841 -8.503,8.503 -22.338,8.503 -30.842,0 -2.772,-2.773 -4.624,-6.116 -5.589,-9.653 h -0.852 v -11.536 z" /></g><g
         transform="translate(536.83763,326.48441)"
         id="g112"
         style="fill:#ffffff"><path
           inkscape:connector-curvature="0"
           id="path114"
           style="fill:#ffffff;fill-opacity:1;fill-rule:nonzero;stroke:none"
           d="M 0,0 C 4.006,4.006 10.522,4.006 14.528,0 18.533,-4.005 18.533,-10.521 14.527,-14.527 10.522,-18.532 4.005,-18.532 0,-14.527 -4.005,-10.522 -4.005,-4.005 0,0 m -13.746,-13.032 c 0.965,-3.536 2.817,-6.88 5.589,-9.653 8.503,-8.502 22.338,-8.502 30.841,0 8.503,8.504 8.503,22.339 10e-4,30.842 C 14.182,16.66 0.347,16.66 -8.157,8.156 -10.929,5.384 -12.781,2.041 -13.746,-1.496 h -0.852 v -11.536 z" /></g><g
         transform="translate(325.03833,574.68561)"
         id="g116"
         style="fill:#ffffff"><path
           inkscape:connector-curvature="0"
           id="path118"
           style="fill:#ffffff;fill-opacity:1;fill-rule:nonzero;stroke:none"
           d="M 0,0 C -3.929,4.081 -3.806,10.597 0.275,14.525 4.355,18.454 10.871,18.331 14.8,14.25 18.729,10.169 18.605,3.654 14.524,-0.275 10.444,-4.204 3.928,-4.08 0,0 m 12.769,-13.99 c 3.554,0.898 6.932,2.685 9.756,5.405 8.662,8.34 8.925,22.173 0.584,30.835 -8.34,8.663 -22.173,8.925 -30.835,0.585 C -16.389,14.495 -16.651,0.662 -8.31,-8 c 2.72,-2.825 6.027,-4.74 9.545,-5.771 l -0.016,-0.853 11.533,-0.218 z" /></g><g
         transform="translate(397.49443,574.68561)"
         id="g120"
         style="fill:#ffffff"><path
           inkscape:connector-curvature="0"
           id="path122"
           style="fill:#ffffff;fill-opacity:1;fill-rule:nonzero;stroke:none"
           d="M 0,0 C -3.929,4.081 -3.806,10.597 0.275,14.525 4.355,18.454 10.871,18.331 14.8,14.25 18.729,10.169 18.605,3.654 14.525,-0.275 10.444,-4.204 3.929,-4.08 0,0 m 12.769,-13.99 c 3.554,0.898 6.932,2.685 9.756,5.405 8.663,8.34 8.925,22.173 0.585,30.835 C 14.769,30.913 0.936,31.175 -7.726,22.835 -16.389,14.495 -16.65,0.662 -8.31,-8 c 2.72,-2.825 6.027,-4.74 9.545,-5.771 l -0.016,-0.853 11.534,-0.218 z" /></g><g
         transform="translate(469.40603,574.68561)"
         id="g124"
         style="fill:#ffffff"><path
           inkscape:connector-curvature="0"
           id="path126"
           style="fill:#ffffff;fill-opacity:1;fill-rule:nonzero;stroke:none"
           d="M 0,0 C -3.929,4.081 -3.806,10.597 0.275,14.525 4.355,18.454 10.871,18.331 14.8,14.25 18.729,10.169 18.605,3.654 14.525,-0.275 10.444,-4.204 3.929,-4.08 0,0 m 12.769,-13.99 c 3.554,0.898 6.932,2.685 9.756,5.405 8.663,8.34 8.925,22.173 0.585,30.835 C 14.769,30.913 0.936,31.175 -7.726,22.835 -16.389,14.495 -16.65,0.662 -8.31,-8 c 2.72,-2.825 6.027,-4.74 9.545,-5.771 l -0.016,-0.853 11.534,-0.218 z" /></g></g></g></svg>
