<?xml version="1.0" encoding="UTF-8" standalone="no"?>
<!-- Created with Inkscape (http://www.inkscape.org/) -->

<svg
   xmlns:dc="http://purl.org/dc/elements/1.1/"
   xmlns:cc="http://creativecommons.org/ns#"
   xmlns:rdf="http://www.w3.org/1999/02/22-rdf-syntax-ns#"
   xmlns:svg="http://www.w3.org/2000/svg"
   xmlns="http://www.w3.org/2000/svg"
   xmlns:sodipodi="http://sodipodi.sourceforge.net/DTD/sodipodi-0.dtd"
   xmlns:inkscape="http://www.inkscape.org/namespaces/inkscape"
   version="1.1"
   id="svg2"
   xml:space="preserve"
   width="1078.9907"
   height="1078.9907"
   viewBox="0 0 1078.9907 1078.9907"
   sodipodi:docname="CSS Logo All Black.svg"
   inkscape:version="0.92.3 (2405546, 2018-03-11)"><metadata
     id="metadata8"><rdf:RDF><cc:Work
         rdf:about=""><dc:format>image/svg+xml</dc:format><dc:type
           rdf:resource="http://purl.org/dc/dcmitype/StillImage" /><dc:title /></cc:Work></rdf:RDF></metadata><defs
     id="defs6"><clipPath
       clipPathUnits="userSpaceOnUse"
       id="clipPath26"><path
         d="M 0,809.243 H 2040 V 0 H 0 Z"
         id="path24"
         inkscape:connector-curvature="0" /></clipPath></defs><sodipodi:namedview
     pagecolor="#ffffff"
     bordercolor="#666666"
     borderopacity="1"
     objecttolerance="10"
     gridtolerance="10"
     guidetolerance="10"
     inkscape:pageopacity="0"
     inkscape:pageshadow="2"
     inkscape:window-width="1920"
     inkscape:window-height="1001"
     id="namedview4"
     showgrid="false"
     inkscape:zoom="0.24926471"
     inkscape:cx="-102.42645"
     inkscape:cy="1070.2765"
     inkscape:window-x="2391"
     inkscape:window-y="-9"
     inkscape:window-maximized="1"
     inkscape:current-layer="g10" /><g
     id="g10"
     inkscape:groupmode="layer"
     inkscape:label="CSS Logo"
     transform="matrix(1.3333333,0,0,-1.3333333,0,1078.9907)"><g
       id="g491"
       style="fill:#000000"
       transform="translate(3.8506911,-3.8588056e-4)"><g
         transform="translate(338.57394,664.6762)"
         id="g36"
         style="fill:#000000"><path
           inkscape:connector-curvature="0"
           id="path38"
           style="fill:#000000;fill-opacity:1;fill-rule:nonzero;stroke:none"
           d="m 0,0 c 0,0 6.883,6.471 6.883,12.735 0,14.22 -7.625,13.231 -10.963,13.231 -7.625,0 -18.011,-11.87 -18.011,-11.87 1.154,2.596 3.132,7.212 3.709,8.655 0.247,0.577 0.536,1.319 0.865,2.102 1.668,4.164 1.771,8.791 0.289,13.024 -1.772,5.481 -5.564,7.831 -8.655,11.664 -3.091,3.833 -4.575,5.399 -4.575,5.399 0,0 -1.195,-1.36 -4.534,-5.482 -3.338,-4.121 -6.883,-6.182 -8.655,-11.664 -1.462,-4.256 -1.33,-8.898 0.371,-13.065 0.289,-0.824 0.618,-1.525 0.865,-2.102 0.578,-1.442 2.556,-6.059 3.71,-8.655 0,0 -10.386,11.87 -18.011,11.87 -3.297,0 -10.963,0.948 -10.963,-13.23 0,-6.265 6.883,-12.736 6.883,-12.736 0,0 0.989,5.111 8.49,5.111 5.152,0 8.655,-5.399 8.655,-11.499 0,-4.987 -1.03,-9.191 -2.267,-9.727 2.429,-1.646 4.768,-3.421 7.007,-5.317 1.566,-1.566 8.49,-9.932 8.49,-9.932 0,0 6.924,8.243 8.491,9.932 2.255,1.894 4.608,3.668 7.048,5.317 -1.237,0.536 -2.268,4.699 -2.268,9.727 0,6.059 3.504,11.499 8.656,11.499 C -1.03,5.028 0,0 0,0" /></g><g
         transform="translate(474.54994,654.9907)"
         id="g40"
         style="fill:#000000"><path
           inkscape:connector-curvature="0"
           id="path42"
           style="fill:#000000;fill-opacity:1;fill-rule:nonzero;stroke:none"
           d="m 0,0 -0.577,-2.967 13.271,7.666 v -26.007 h 3.009 0.371 3.05 V 4.699 L 32.395,-2.967 31.777,0 45.873,0.289 39.072,12.571 41.916,13.56 34.95,17.558 52.137,27.491 49.293,28.438 56.094,40.762 42.04,41.05 42.616,44.018 25.1,33.92 V 54.116 L 22.833,52.137 15.909,64.172 8.985,52.137 6.677,54.116 V 33.92 l -17.475,10.098 0.576,-2.968 -14.054,-0.288 6.759,-12.324 -2.843,-0.947 17.186,-9.933 -6.965,-3.998 2.885,-0.989 -6.801,-12.282 z" /></g><path
         inkscape:connector-curvature="0"
         id="path44"
         style="fill:#000000;fill-opacity:1;fill-rule:nonzero;stroke:none"
         d="M 213.59014,386.85 H 97.840143 V 370.364 H 213.59014 Z" /><path
         inkscape:connector-curvature="0"
         id="path46"
         style="fill:#000000;fill-opacity:1;fill-rule:nonzero;stroke:none"
         d="M 213.59014,454.294 H 97.840143 V 437.808 H 213.59014 Z" /><path
         inkscape:connector-curvature="0"
         id="path48"
         style="fill:#000000;fill-opacity:1;fill-rule:nonzero;stroke:none"
         d="M 213.59014,420.571 H 97.840143 V 404.085 H 213.59014 Z" /><path
         inkscape:connector-curvature="0"
         id="path50"
         style="fill:#000000;fill-opacity:1;fill-rule:nonzero;stroke:none"
         d="M 213.59014,488.015 H 97.840143 V 471.529 H 213.59014 Z" /><path
         inkscape:connector-curvature="0"
         id="path52"
         style="fill:#000000;fill-opacity:1;fill-rule:nonzero;stroke:none"
         d="m 587.95214,471.529 h 115.749 v 16.486 h -115.749 z" /><path
         inkscape:connector-curvature="0"
         id="path54"
         style="fill:#000000;fill-opacity:1;fill-rule:nonzero;stroke:none"
         d="m 587.95214,437.808 h 115.749 v 16.486 h -115.749 z" /><path
         inkscape:connector-curvature="0"
         id="path56"
         style="fill:#000000;fill-opacity:1;fill-rule:nonzero;stroke:none"
         d="m 587.95214,370.364 h 115.749 v 16.486 h -115.749 z" /><path
         inkscape:connector-curvature="0"
         id="path58"
         style="fill:#000000;fill-opacity:1;fill-rule:nonzero;stroke:none"
         d="m 587.95214,404.085 h 115.749 v 16.486 h -115.749 z" /><path
         inkscape:connector-curvature="0"
         id="path60"
         style="fill:#000000;fill-opacity:1;fill-rule:nonzero;stroke:none"
         d="m 423.16314,399.141 h -44.783 v 44.784 h 44.783 z m 13.177,57.96 h -71.137 v -71.136 h 71.137 z" /><path
         inkscape:connector-curvature="0"
         id="path62"
         style="fill:#000000;fill-opacity:1;fill-rule:nonzero;stroke:none"
         d="m 463.95214,358.353 h -126.36 v 126.36 h 126.36 z m 13.176,69.768 v 25.743 h 34.52 v 63.393 h 10.752 l -0.188,13.176 h -23.74 v -63.392 h -21.344 v 30.849 h -29.648 v 41.491 h 58.74 l 25.784,25.783 -10.004,8.631 -21.238,-21.238 h -21.219 v 9.422 h -13.176 v -9.422 h -32.064 V 497.89 h -26.944 v 64.089 h -13.177 V 497.89 h -26.943 v 54.667 h -32.064 v 9.114 l -13.176,0.222 v -9.336 h -21.22 l -22.018,22.02 -9.317,-9.318 25.878,-25.878 h 58.74 V 497.89 h -29.647 v -30.849 h -21.344 v 63.392 h -24.639 v -13.176 h 11.463 v -63.393 h 34.52 v -25.743 h -45.983 v -13.176 h 45.983 v -25.743 h -34.52 v -63.393 h -11.358 l -0.22,-13.176 h 24.754 v 63.393 h 21.344 v -30.85 h 29.647 v -41.492 h -58.74 l -25.109,-25.108 9.856,-8.78 20.71,20.712 h 21.22 v -10.929 h 13.176 v 10.929 h 32.064 v 54.668 h 26.943 v -65.597 h 13.177 v 65.597 h 26.944 v -54.668 h 32.064 v -10.929 h 13.176 v 10.929 h 21.219 l 21.265,-21.264 9.473,9.163 -25.28,25.277 h -58.74 v 41.492 h 29.648 v 30.85 h 21.344 v -63.393 h 23.873 v 13.176 h -10.697 v 63.393 h -34.52 v 25.743 h 45.217 v 13.176 z" /><g
         transform="translate(261.52604,571.5385)"
         id="g64"
         style="fill:#000000"><path
           inkscape:connector-curvature="0"
           id="path66"
           style="fill:#000000;fill-opacity:1;fill-rule:nonzero;stroke:none"
           d="m 0,0 c -5.665,0 -10.273,4.608 -10.273,10.272 0,5.665 4.608,10.273 10.273,10.273 5.664,0 10.272,-4.608 10.272,-10.273 C 10.272,4.608 5.664,0 0,0 m 18.934,-0.504 c 1.819,3.182 2.874,6.856 2.874,10.776 0,12.025 -9.783,21.808 -21.808,21.808 -12.025,0 -21.809,-9.783 -21.809,-21.808 0,-12.024 9.784,-21.807 21.809,-21.807 3.921,0 7.594,1.055 10.777,2.873 l 0.602,-0.603 8.158,8.158 z" /></g><g
         transform="translate(268.78974,516.7455)"
         id="g68"
         style="fill:#000000"><path
           inkscape:connector-curvature="0"
           id="path70"
           style="fill:#000000;fill-opacity:1;fill-rule:nonzero;stroke:none"
           d="m 0,0 c -4.006,-4.006 -10.523,-4.005 -14.528,0 -4.005,4.005 -4.005,10.521 0.001,14.527 4.005,4.006 10.522,4.006 14.527,0 C 4.005,10.522 4.005,4.005 0,0 m 13.745,13.032 c -0.964,3.536 -2.816,6.88 -5.588,9.652 -8.503,8.503 -22.338,8.503 -30.841,0 -8.503,-8.503 -8.503,-22.338 -10e-4,-30.841 8.503,-8.503 22.338,-8.503 30.842,0 2.772,2.773 4.624,6.116 5.588,9.653 h 0.853 v 11.536 z" /></g><g
         transform="translate(268.78974,414.2694)"
         id="g72"
         style="fill:#000000"><path
           inkscape:connector-curvature="0"
           id="path74"
           style="fill:#000000;fill-opacity:1;fill-rule:nonzero;stroke:none"
           d="m 0,0 c -4.006,-4.005 -10.523,-4.005 -14.528,0 -4.005,4.005 -4.005,10.522 0.001,14.527 4.005,4.006 10.522,4.006 14.527,0 C 4.005,10.522 4.005,4.005 0,0 m 13.745,13.032 c -0.964,3.536 -2.816,6.88 -5.588,9.653 -8.503,8.502 -22.338,8.502 -30.841,-10e-4 -8.503,-8.503 -8.503,-22.338 -10e-4,-30.841 8.503,-8.503 22.338,-8.503 30.842,0 2.772,2.773 4.624,6.116 5.588,9.653 h 0.853 v 11.536 z" /></g><g
         transform="translate(268.78974,311.9574)"
         id="g76"
         style="fill:#000000"><path
           inkscape:connector-curvature="0"
           id="path78"
           style="fill:#000000;fill-opacity:1;fill-rule:nonzero;stroke:none"
           d="m 0,0 c -4.006,-4.006 -10.523,-4.005 -14.528,0 -4.005,4.005 -4.005,10.521 0.001,14.527 4.005,4.006 10.522,4.006 14.527,0 C 4.005,10.522 4.005,4.006 0,0 m 13.745,13.032 c -0.964,3.536 -2.816,6.88 -5.588,9.653 -8.503,8.502 -22.338,8.502 -30.841,0 -8.503,-8.504 -8.503,-22.339 -10e-4,-30.842 8.503,-8.503 22.338,-8.503 30.842,10e-4 2.772,2.772 4.624,6.115 5.588,9.652 h 0.853 v 11.536 z" /></g><g
         transform="translate(271.79804,261.2563)"
         id="g80"
         style="fill:#000000"><path
           inkscape:connector-curvature="0"
           id="path82"
           style="fill:#000000;fill-opacity:1;fill-rule:nonzero;stroke:none"
           d="m 0,0 c 0,-5.664 -4.608,-10.272 -10.272,-10.272 -5.665,0 -10.273,4.608 -10.273,10.272 0,5.665 4.608,10.272 10.273,10.272 C -4.608,10.272 0,5.665 0,0 m 0.505,18.935 c -3.183,1.819 -6.857,2.874 -10.777,2.874 -12.025,0 -21.808,-9.784 -21.808,-21.809 0,-12.025 9.783,-21.808 21.808,-21.808 12.024,0 21.807,9.783 21.807,21.808 0,3.921 -1.054,7.595 -2.873,10.777 l 0.603,0.603 -8.158,8.157 z" /></g><g
         transform="translate(335.85074,268.5199)"
         id="g84"
         style="fill:#000000"><path
           inkscape:connector-curvature="0"
           id="path86"
           style="fill:#000000;fill-opacity:1;fill-rule:nonzero;stroke:none"
           d="m 0,0 c 4.006,-4.005 4.005,-10.522 0,-14.527 -4.005,-4.006 -10.522,-4.006 -14.527,0 -4.006,4.006 -4.006,10.522 0,14.527 C -10.522,4.006 -4.005,4.006 0,0 m -13.032,13.746 c -3.536,-0.965 -6.88,-2.816 -9.652,-5.589 -8.503,-8.503 -8.503,-22.338 0,-30.841 8.503,-8.503 22.338,-8.503 30.841,-10e-4 8.503,8.503 8.503,22.338 0,30.842 -2.773,2.773 -6.116,4.624 -9.653,5.589 v 0.852 h -11.536 z" /></g><g
         transform="translate(407.98744,268.5199)"
         id="g88"
         style="fill:#000000"><path
           inkscape:connector-curvature="0"
           id="path90"
           style="fill:#000000;fill-opacity:1;fill-rule:nonzero;stroke:none"
           d="m 0,0 c 4.006,-4.005 4.006,-10.522 0,-14.527 -4.005,-4.006 -10.521,-4.006 -14.527,0 -4.006,4.006 -4.006,10.522 0,14.527 C -10.522,4.006 -4.005,4.006 0,0 m -13.032,13.746 c -3.536,-0.965 -6.88,-2.816 -9.652,-5.589 -8.503,-8.503 -8.503,-22.338 0,-30.841 8.503,-8.503 22.339,-8.503 30.841,-10e-4 8.503,8.503 8.503,22.338 0,30.842 -2.773,2.773 -6.116,4.624 -9.653,5.589 v 0.852 h -11.536 z" /></g><g
         transform="translate(480.21844,268.5199)"
         id="g92"
         style="fill:#000000"><path
           inkscape:connector-curvature="0"
           id="path94"
           style="fill:#000000;fill-opacity:1;fill-rule:nonzero;stroke:none"
           d="m 0,0 c 4.006,-4.005 4.006,-10.522 0,-14.527 -4.005,-4.006 -10.521,-4.006 -14.527,0 -4.005,4.006 -4.005,10.522 0,14.527 C -10.522,4.006 -4.005,4.006 0,0 m -13.031,13.746 c -3.537,-0.965 -6.88,-2.816 -9.653,-5.589 -8.503,-8.503 -8.503,-22.338 0,-30.841 8.503,-8.503 22.339,-8.503 30.841,-10e-4 8.503,8.503 8.503,22.338 0,30.842 -2.773,2.773 -6.115,4.624 -9.653,5.589 v 0.852 h -11.535 z" /></g><g
         transform="translate(540.03584,271.5287)"
         id="g96"
         style="fill:#000000"><path
           inkscape:connector-curvature="0"
           id="path98"
           style="fill:#000000;fill-opacity:1;fill-rule:nonzero;stroke:none"
           d="m 0,0 c 5.665,0 10.273,-4.608 10.273,-10.272 0,-5.665 -4.608,-10.273 -10.273,-10.273 -5.665,0 -10.272,4.608 -10.272,10.273 C -10.272,-4.608 -5.665,0 0,0 m -18.934,0.505 c -1.819,-3.183 -2.874,-6.857 -2.874,-10.777 0,-12.025 9.783,-21.808 21.808,-21.808 12.025,0 21.809,9.783 21.809,21.808 0,12.024 -9.784,21.807 -21.809,21.807 -3.921,0 -7.594,-1.055 -10.777,-2.873 l -0.603,0.603 -8.157,-8.158 z" /></g><g
         transform="translate(529.97864,581.8105)"
         id="g100"
         style="fill:#000000"><path
           inkscape:connector-curvature="0"
           id="path102"
           style="fill:#000000;fill-opacity:1;fill-rule:nonzero;stroke:none"
           d="m 0,0 c 0,5.665 4.608,10.273 10.272,10.273 5.665,0 10.272,-4.608 10.272,-10.273 0,-5.664 -4.607,-10.272 -10.272,-10.272 C 4.608,-10.272 0,-5.664 0,0 m -0.505,-18.934 c 3.183,-1.819 6.856,-2.874 10.777,-2.874 12.025,0 21.808,9.784 21.808,21.808 0,12.026 -9.783,21.809 -21.808,21.809 -12.024,0 -21.808,-9.783 -21.808,-21.809 0,-3.921 1.055,-7.594 2.874,-10.777 l -0.603,-0.602 8.158,-8.158 z" /></g><g
         transform="translate(532.98694,531.2724)"
         id="g104"
         style="fill:#000000"><path
           inkscape:connector-curvature="0"
           id="path106"
           style="fill:#000000;fill-opacity:1;fill-rule:nonzero;stroke:none"
           d="M 0,0 C 4.006,4.006 10.522,4.006 14.528,0 18.533,-4.005 18.533,-10.521 14.527,-14.527 10.522,-18.532 4.005,-18.532 0,-14.527 -4.005,-10.522 -4.005,-4.005 0,0 m -13.746,-13.032 c 0.965,-3.536 2.817,-6.88 5.589,-9.652 8.503,-8.503 22.338,-8.503 30.841,0 8.503,8.503 8.503,22.339 10e-4,30.841 -8.503,8.503 -22.338,8.503 -30.842,0 -2.772,-2.773 -4.624,-6.115 -5.589,-9.653 h -0.852 v -11.536 z" /></g><g
         transform="translate(532.98694,429.1737)"
         id="g108"
         style="fill:#000000"><path
           inkscape:connector-curvature="0"
           id="path110"
           style="fill:#000000;fill-opacity:1;fill-rule:nonzero;stroke:none"
           d="M 0,0 C 4.006,4.006 10.522,4.005 14.528,0 18.533,-4.005 18.533,-10.521 14.527,-14.527 10.522,-18.533 4.005,-18.533 0,-14.527 -4.005,-10.522 -4.005,-4.005 0,0 m -13.746,-13.032 c 0.965,-3.536 2.817,-6.88 5.589,-9.652 8.503,-8.503 22.338,-8.503 30.841,0 8.503,8.503 8.503,22.338 10e-4,30.841 -8.503,8.503 -22.338,8.503 -30.842,0 -2.772,-2.773 -4.624,-6.116 -5.589,-9.653 h -0.852 v -11.536 z" /></g><g
         transform="translate(532.98694,326.4848)"
         id="g112"
         style="fill:#000000"><path
           inkscape:connector-curvature="0"
           id="path114"
           style="fill:#000000;fill-opacity:1;fill-rule:nonzero;stroke:none"
           d="M 0,0 C 4.006,4.006 10.522,4.006 14.528,0 18.533,-4.005 18.533,-10.521 14.527,-14.527 10.522,-18.532 4.005,-18.532 0,-14.527 -4.005,-10.522 -4.005,-4.005 0,0 m -13.746,-13.032 c 0.965,-3.536 2.817,-6.88 5.589,-9.653 8.503,-8.502 22.338,-8.502 30.841,0 8.503,8.504 8.503,22.339 10e-4,30.842 C 14.182,16.66 0.347,16.66 -8.157,8.156 -10.929,5.384 -12.781,2.041 -13.746,-1.496 h -0.852 v -11.536 z" /></g><g
         transform="translate(321.18764,574.686)"
         id="g116"
         style="fill:#000000"><path
           inkscape:connector-curvature="0"
           id="path118"
           style="fill:#000000;fill-opacity:1;fill-rule:nonzero;stroke:none"
           d="M 0,0 C -3.929,4.081 -3.806,10.597 0.275,14.525 4.355,18.454 10.871,18.331 14.8,14.25 18.729,10.169 18.605,3.654 14.524,-0.275 10.444,-4.204 3.928,-4.08 0,0 m 12.769,-13.99 c 3.554,0.898 6.932,2.685 9.756,5.405 8.662,8.34 8.925,22.173 0.584,30.835 -8.34,8.663 -22.173,8.925 -30.835,0.585 C -16.389,14.495 -16.651,0.662 -8.31,-8 c 2.72,-2.825 6.027,-4.74 9.545,-5.771 l -0.016,-0.853 11.533,-0.218 z" /></g><g
         transform="translate(393.64374,574.686)"
         id="g120"
         style="fill:#000000"><path
           inkscape:connector-curvature="0"
           id="path122"
           style="fill:#000000;fill-opacity:1;fill-rule:nonzero;stroke:none"
           d="M 0,0 C -3.929,4.081 -3.806,10.597 0.275,14.525 4.355,18.454 10.871,18.331 14.8,14.25 18.729,10.169 18.605,3.654 14.525,-0.275 10.444,-4.204 3.929,-4.08 0,0 m 12.769,-13.99 c 3.554,0.898 6.932,2.685 9.756,5.405 8.663,8.34 8.925,22.173 0.585,30.835 C 14.769,30.913 0.936,31.175 -7.726,22.835 -16.389,14.495 -16.65,0.662 -8.31,-8 c 2.72,-2.825 6.027,-4.74 9.545,-5.771 l -0.016,-0.853 11.534,-0.218 z" /></g><g
         transform="translate(465.55534,574.686)"
         id="g124"
         style="fill:#000000"><path
           inkscape:connector-curvature="0"
           id="path126"
           style="fill:#000000;fill-opacity:1;fill-rule:nonzero;stroke:none"
           d="M 0,0 C -3.929,4.081 -3.806,10.597 0.275,14.525 4.355,18.454 10.871,18.331 14.8,14.25 18.729,10.169 18.605,3.654 14.525,-0.275 10.444,-4.204 3.929,-4.08 0,0 m 12.769,-13.99 c 3.554,0.898 6.932,2.685 9.756,5.405 8.663,8.34 8.925,22.173 0.585,30.835 C 14.769,30.913 0.936,31.175 -7.726,22.835 -16.389,14.495 -16.65,0.662 -8.31,-8 c 2.72,-2.825 6.027,-4.74 9.545,-5.771 l -0.016,-0.853 11.534,-0.218 z" /></g><g
         transform="translate(117.88834,749.1909)"
         id="g128"
         style="fill:#000000"><path
           inkscape:connector-curvature="0"
           id="path130"
           style="fill:#000000;fill-opacity:1;fill-rule:nonzero;stroke:none"
           d="m 0,0 v -279.935 l -0.457,-73.964 c -0.108,-13.503 -0.211,-26.254 -0.211,-38.255 0,-86.789 5.053,-130.355 35.002,-159.085 45.094,-43.243 133.765,-101.343 248.543,-136.175 114.807,34.836 203.476,92.935 248.555,136.175 29.95,28.774 35.005,72.334 35.005,159.085 0,15.025 -0.125,31.134 -0.306,48.527 l -0.318,63.591 V 0 Z m 282.877,-729.19 -5.659,1.666 c -124.424,36.648 -221.368,100.162 -270.607,147.38 -44.037,42.242 -47.331,101.859 -47.331,187.99 0,12.101 0.104,24.961 0.213,38.577 l 0.455,73.761 V 40.052 h 645.913 v -319.987 l 0.318,-63.385 c 0.181,-17.434 0.306,-33.68 0.306,-48.834 0,-86.085 -3.292,-145.678 -47.317,-187.976 -49.237,-47.228 -146.177,-110.739 -270.634,-147.394 z" /></g><g
         transform="translate(404.66084,131.6498)"
         id="g220"
         style="fill:#000000"><path
           inkscape:connector-curvature="0"
           id="path222"
           style="fill:#000000;fill-opacity:1;fill-rule:nonzero;stroke:none"
           d="m 0,0 c -0.642,-4.377 2.945,-8.374 8.011,-8.929 0.435,-0.048 0.874,-0.068 1.312,-0.062 6.616,0 23.213,5.549 24.49,27.806 0.967,16.277 -4.527,20.588 -4.527,20.588 L 19.15,23.428 C 19.15,0.468 0,0 0,0" /></g><g
         transform="translate(377.85024,155.0444)"
         id="g224"
         style="fill:#000000"><path
           inkscape:connector-curvature="0"
           id="path226"
           style="fill:#000000;fill-opacity:1;fill-rule:nonzero;stroke:none"
           d="m 0,0 -10.136,15.976 c 0,0 -5.455,-4.312 -4.681,-20.622 1.315,-22.258 17.874,-27.806 24.45,-27.806 5.128,-0.051 9.332,3.499 9.391,7.929 0.005,0.354 -0.018,0.709 -0.067,1.061 C 18.957,-23.462 0,-22.927 0,0" /></g><g
         transform="translate(411.39224,152.1362)"
         id="g228"
         style="fill:#000000"><path
           inkscape:connector-curvature="0"
           id="path230"
           style="fill:#000000;fill-opacity:1;fill-rule:nonzero;stroke:none"
           d="m 0,0 c -0.259,7.642 0.771,15.275 3.056,22.66 1.625,5.014 11.607,10.294 11.607,10.294 -9.982,9.592 -18.725,-3.343 -18.338,-1.805 0.187,3.722 -0.635,7.43 -2.399,10.829 -1.183,2.098 -2.622,4.082 -4.294,5.916 -1.658,-1.836 -3.085,-3.82 -4.256,-5.916 -1.761,-3.4 -2.583,-7.108 -2.398,-10.829 0.348,-1.604 -8.357,11.397 -18.338,1.805 0,0 9.826,-5.28 11.606,-10.294 2.291,-7.385 3.321,-15.018 3.056,-22.66 0,-8.923 5.455,-11.296 7.97,-12.266 v -23.695 h 4.681 v 23.395 C -6.229,-11.764 0.155,-9.558 0,0" /></g></g></g></svg>