<?xml version="1.0" encoding="UTF-8" standalone="no"?>
<svg
   xmlns:dc="http://purl.org/dc/elements/1.1/"
   xmlns:cc="http://creativecommons.org/ns#"
   xmlns:rdf="http://www.w3.org/1999/02/22-rdf-syntax-ns#"
   xmlns:svg="http://www.w3.org/2000/svg"
   xmlns="http://www.w3.org/2000/svg"
   xmlns:sodipodi="http://sodipodi.sourceforge.net/DTD/sodipodi-0.dtd"
   xmlns:inkscape="http://www.inkscape.org/namespaces/inkscape"
   width="100%"
   height="100%"
   viewBox="0 0 2040 810"
   version="1.1"
   xml:space="preserve"
   style="fill-rule:evenodd;clip-rule:evenodd;stroke-linejoin:round;stroke-miterlimit:2;"
   id="svg235"
   sodipodi:docname="CSS Logo White.svg"
   inkscape:version="1.0.2-2 (e86c870879, 2021-01-15)"><metadata
   id="metadata241"><rdf:RDF><cc:Work
       rdf:about=""><dc:format>image/svg+xml</dc:format><dc:type
         rdf:resource="http://purl.org/dc/dcmitype/StillImage" /><dc:title></dc:title></cc:Work></rdf:RDF></metadata><defs
   id="defs239">
        
        
        
        
        
        
        
        
        
        
        
        
        
        
        
        
        
        
        
        
        
        
        
        
        
        
        
        
        
        
        
        
        
        
        
        
        
        
        
        
        
        
        
        
        
        
        
        
        
        
        
        
        
        
        
        
        
        
    </defs><sodipodi:namedview
   pagecolor="#ffffff"
   bordercolor="#666666"
   borderopacity="1"
   objecttolerance="10"
   gridtolerance="10"
   guidetolerance="10"
   inkscape:pageopacity="0"
   inkscape:pageshadow="2"
   inkscape:window-width="1920"
   inkscape:window-height="1001"
   id="namedview237"
   showgrid="false"
   inkscape:pagecheckerboard="true"
   inkscape:zoom="0.59558824"
   inkscape:cx="1027.0443"
   inkscape:cy="405"
   inkscape:window-x="-9"
   inkscape:window-y="-9"
   inkscape:window-maximized="1"
   inkscape:current-layer="svg235" />
    <g
   id="g467"><g
     transform="translate(281.406,121.115)"
     id="g20"
     style="fill:#ffffff">
            <path
   d="m 0,23.452 c 0,0 6.883,-6.471 6.883,-12.735 0,-14.22 -7.625,-13.231 -10.963,-13.231 -7.625,0 -18.011,11.87 -18.011,11.87 1.154,-2.596 3.132,-7.212 3.709,-8.655 0.247,-0.577 0.536,-1.319 0.865,-2.102 1.668,-4.164 1.771,-8.791 0.289,-13.024 -1.772,-5.481 -5.564,-7.831 -8.655,-11.664 -3.091,-3.833 -4.575,-5.399 -4.575,-5.399 0,0 -1.195,1.36 -4.534,5.482 -3.338,4.121 -6.883,6.182 -8.655,11.664 -1.462,4.256 -1.33,8.898 0.371,13.065 0.289,0.824 0.618,1.525 0.865,2.102 0.578,1.442 2.556,6.059 3.71,8.655 0,0 -10.386,-11.87 -18.011,-11.87 -3.297,0 -10.963,-0.948 -10.963,13.23 0,6.265 6.883,12.736 6.883,12.736 0,0 0.989,-5.111 8.49,-5.111 5.152,0 8.655,5.399 8.655,11.499 0,4.987 -1.03,9.191 -2.267,9.727 2.429,1.646 4.768,3.421 7.007,5.317 1.566,1.566 8.49,9.932 8.49,9.932 0,0 6.924,-8.243 8.491,-9.932 2.255,-1.894 4.608,-3.668 7.048,-5.317 -1.237,-0.536 -2.268,-4.699 -2.268,-9.727 0,-6.059 3.504,-11.499 8.656,-11.499 C -1.03,18.424 0,23.452 0,23.452"
   style="fill:#ffffff;fill-rule:nonzero"
   id="path18" />
        </g><g
     transform="translate(417.382,111.388)"
     id="g24"
     style="fill:#ffffff">
            <path
   d="m 0,42.864 -0.577,2.967 13.271,-7.666 v 26.007 h 6.43 V 38.165 L 32.395,45.831 31.777,42.864 45.873,42.575 39.072,30.293 41.916,29.304 34.95,25.306 52.137,15.373 49.293,14.426 56.094,2.102 42.04,1.814 42.616,-1.154 25.1,8.944 V -11.252 L 22.833,-9.273 15.909,-21.308 8.985,-9.273 6.677,-11.252 V 8.944 l -17.475,-10.098 0.576,2.968 -14.054,0.288 6.759,12.324 -2.843,0.947 17.186,9.933 -6.965,3.998 2.885,0.989 -6.801,12.282 z"
   style="fill:#ffffff;fill-rule:nonzero"
   id="path22" />
        </g><g
     transform="matrix(-1,0,0,1,197.094,52.029)"
     id="g28"
     style="fill:#ffffff">
            <rect
   x="40.672001"
   y="370.36401"
   width="115.75"
   height="16.486"
   style="fill:#ffffff"
   id="rect26" />
        </g><g
     transform="matrix(-1,0,0,1,197.094,-82.859)"
     id="g32"
     style="fill:#ffffff">
            <rect
   x="40.672001"
   y="437.80801"
   width="115.75"
   height="16.486"
   style="fill:#ffffff"
   id="rect30" />
        </g><g
     transform="matrix(-1,0,0,1,197.094,-15.413)"
     id="g36"
     style="fill:#ffffff">
            <rect
   x="40.672001"
   y="404.08499"
   width="115.75"
   height="16.486"
   style="fill:#ffffff"
   id="rect34" />
        </g><g
     transform="matrix(-1,0,0,1,197.094,-150.301)"
     id="g40"
     style="fill:#ffffff">
            <rect
   x="40.672001"
   y="471.52899"
   width="115.75"
   height="16.486"
   style="fill:#ffffff"
   id="rect38" />
        </g><g
     transform="translate(0,-150.301)"
     id="g44"
     style="fill:#ffffff">
            <rect
   x="530.784"
   y="471.52899"
   width="115.749"
   height="16.486"
   style="fill:#ffffff"
   id="rect42" />
        </g><g
     transform="translate(0,-82.859)"
     id="g48"
     style="fill:#ffffff">
            <rect
   x="530.784"
   y="437.80801"
   width="115.749"
   height="16.486"
   style="fill:#ffffff"
   id="rect46" />
        </g><g
     transform="translate(0,52.029)"
     id="g52"
     style="fill:#ffffff">
            <rect
   x="530.784"
   y="370.36401"
   width="115.749"
   height="16.486"
   style="fill:#ffffff"
   id="rect50" />
        </g><g
     transform="translate(0,-15.413)"
     id="g56"
     style="fill:#ffffff">
            <rect
   x="530.784"
   y="404.08499"
   width="115.749"
   height="16.486"
   style="fill:#ffffff"
   id="rect54" />
        </g><g
     transform="translate(0,-33.823)"
     id="g60"
     style="fill:#ffffff">
            <path
   d="m 365.995,443.925 h -44.783 v -44.784 h 44.783 z m 13.177,-57.96 h -71.137 v 71.136 h 71.137 z"
   style="fill:#ffffff;fill-rule:nonzero"
   id="path58" />
        </g><g
     transform="translate(0,-34.578)"
     id="g64"
     style="fill:#ffffff">
            <path
   d="m 406.784,485.468 h -126.36 v -126.36 h 126.36 z M 419.96,415.7 v -25.743 h 34.52 v -63.393 h 10.752 l -0.188,-13.176 h -23.74 V 376.78 H 419.96 V 345.931 H 390.312 V 304.44 h 58.74 l 25.784,-25.783 -10.004,-8.631 -21.238,21.238 h -21.219 v -9.422 h -13.176 v 9.422 h -32.064 v 54.667 h -26.944 v -64.089 h -13.177 v 64.089 h -26.943 v -54.667 h -32.064 v -9.114 l -13.176,-0.222 v 9.336 h -21.22 l -22.018,-22.02 -9.317,9.318 25.878,25.878 h 58.74 v 41.491 h -29.647 v 30.849 h -21.344 v -63.392 h -24.639 v 13.176 h 11.463 v 63.393 h 34.52 V 415.7 h -45.983 v 13.176 h 45.983 v 25.743 h -34.52 v 63.393 h -11.358 l -0.22,13.176 h 24.754 v -63.393 h 21.344 v 30.85 h 29.647 v 41.492 h -58.74 l -25.109,25.108 9.856,8.78 20.71,-20.712 h 21.22 v 10.929 h 13.176 v -10.929 h 32.064 v -54.668 h 26.943 v 65.597 h 13.177 v -65.597 h 26.944 v 54.668 h 32.064 v 10.929 h 13.176 v -10.929 h 21.219 l 21.265,21.264 9.473,-9.163 -25.28,-25.277 h -58.74 v -41.492 h 29.648 v -30.85 h 21.344 v 63.393 h 23.873 V 518.012 H 454.48 v -63.393 h -34.52 v -25.743 h 45.217 V 415.7 Z"
   style="fill:#ffffff;fill-rule:nonzero"
   id="path62" />
        </g><g
     transform="translate(204.358,217.16)"
     id="g68"
     style="fill:#ffffff">
            <path
   d="m 0,20.545 c -5.665,0 -10.273,-4.608 -10.273,-10.272 C -10.273,4.608 -5.665,0 0,0 5.664,0 10.272,4.608 10.272,10.273 10.272,15.937 5.664,20.545 0,20.545 m 18.934,0.504 c 1.819,-3.182 2.874,-6.856 2.874,-10.776 0,-12.025 -9.783,-21.808 -21.808,-21.808 -12.025,0 -21.809,9.783 -21.809,21.808 0,12.024 9.784,21.807 21.809,21.807 3.921,0 7.594,-1.055 10.777,-2.873 l 0.602,0.603 8.158,-8.158 z"
   style="fill:#ffffff;fill-rule:nonzero"
   id="path66" />
        </g><g
     transform="translate(211.622,277.971)"
     id="g72"
     style="fill:#ffffff">
            <path
   d="m 0,14.527 c -4.006,4.006 -10.523,4.005 -14.528,0 C -18.533,10.522 -18.533,4.006 -14.527,0 -10.522,-4.006 -4.005,-4.006 0,0 4.005,4.005 4.005,10.522 0,14.527 M 13.745,1.495 c -0.964,-3.536 -2.816,-6.88 -5.588,-9.652 -8.503,-8.503 -22.338,-8.503 -30.841,0 -8.503,8.503 -8.503,22.338 -10e-4,30.841 8.503,8.503 22.338,8.503 30.842,0 2.772,-2.773 4.624,-6.116 5.588,-9.653 h 0.853 V 1.495 Z"
   style="fill:#ffffff;fill-rule:nonzero"
   id="path70" />
        </g><g
     transform="translate(211.622,380.447)"
     id="g76"
     style="fill:#ffffff">
            <path
   d="m 0,14.527 c -4.006,4.005 -10.523,4.005 -14.528,0 C -18.533,10.522 -18.533,4.005 -14.527,0 -10.522,-4.006 -4.005,-4.006 0,0 4.005,4.005 4.005,10.522 0,14.527 M 13.745,1.495 c -0.964,-3.536 -2.816,-6.88 -5.588,-9.653 -8.503,-8.502 -22.338,-8.502 -30.841,10e-4 -8.503,8.503 -8.503,22.338 -10e-4,30.841 8.503,8.503 22.338,8.503 30.842,0 2.772,-2.773 4.624,-6.116 5.588,-9.653 h 0.853 V 1.495 Z"
   style="fill:#ffffff;fill-rule:nonzero"
   id="path74" />
        </g><g
     transform="translate(211.622,482.759)"
     id="g80"
     style="fill:#ffffff">
            <path
   d="m 0,14.527 c -4.006,4.006 -10.523,4.005 -14.528,0 C -18.533,10.522 -18.533,4.006 -14.527,0 -10.522,-4.006 -4.005,-4.006 0,0 4.005,4.005 4.005,10.521 0,14.527 M 13.745,1.495 c -0.964,-3.536 -2.816,-6.88 -5.588,-9.653 -8.503,-8.502 -22.338,-8.502 -30.841,0 -8.503,8.504 -8.503,22.339 -10e-4,30.842 8.503,8.503 22.338,8.503 30.842,-0.001 2.772,-2.772 4.624,-6.115 5.588,-9.652 h 0.853 V 1.495 Z"
   style="fill:#ffffff;fill-rule:nonzero"
   id="path78" />
        </g><g
     transform="translate(214.63,547.986)"
     id="g84"
     style="fill:#ffffff">
            <path
   d="m 0,0.001 c 0,5.664 -4.608,10.272 -10.272,10.272 -5.665,0 -10.273,-4.608 -10.273,-10.272 0,-5.665 4.608,-10.272 10.273,-10.272 C -4.608,-10.271 0,-5.664 0,0.001 m 0.505,-18.935 c -3.183,-1.819 -6.857,-2.874 -10.777,-2.874 -12.025,0 -21.808,9.784 -21.808,21.809 0,12.025 9.783,21.808 21.808,21.808 12.024,0 21.807,-9.783 21.807,-21.808 0,-3.921 -1.054,-7.595 -2.873,-10.777 l 0.603,-0.603 -8.158,-8.157 z"
   style="fill:#ffffff;fill-rule:nonzero"
   id="path82" />
        </g><g
     transform="translate(278.683,557.312)"
     id="g88"
     style="fill:#ffffff">
            <path
   d="m 0,-16.589 c 4.006,4.005 4.005,10.522 0,14.527 -4.005,4.006 -10.522,4.006 -14.527,0 -4.006,-4.006 -4.006,-10.522 0,-14.527 4.005,-4.006 10.522,-4.006 14.527,0 m -13.032,-13.746 c -3.536,0.965 -6.88,2.816 -9.652,5.589 -8.503,8.503 -8.503,22.338 0,30.841 8.503,8.503 22.338,8.503 30.841,0.001 8.503,-8.503 8.503,-22.338 0,-30.842 -2.773,-2.773 -6.116,-4.624 -9.653,-5.589 v -0.852 h -11.536 z"
   style="fill:#ffffff;fill-rule:nonzero"
   id="path86" />
        </g><g
     transform="translate(350.819,557.312)"
     id="g92"
     style="fill:#ffffff">
            <path
   d="m 0,-16.589 c 4.006,4.005 4.006,10.522 0,14.527 -4.005,4.006 -10.521,4.006 -14.527,0 -4.006,-4.006 -4.006,-10.522 0,-14.527 4.005,-4.006 10.522,-4.006 14.527,0 m -13.032,-13.746 c -3.536,0.965 -6.88,2.816 -9.652,5.589 -8.503,8.503 -8.503,22.338 0,30.841 8.503,8.503 22.339,8.503 30.841,0.001 8.503,-8.503 8.503,-22.338 0,-30.842 -2.773,-2.773 -6.116,-4.624 -9.653,-5.589 v -0.852 h -11.536 z"
   style="fill:#ffffff;fill-rule:nonzero"
   id="path90" />
        </g><g
     transform="translate(423.05,557.312)"
     id="g96"
     style="fill:#ffffff">
            <path
   d="m 0,-16.589 c 4.006,4.005 4.006,10.522 0,14.527 -4.005,4.006 -10.521,4.006 -14.527,0 -4.005,-4.006 -4.005,-10.522 0,-14.527 4.005,-4.006 10.522,-4.006 14.527,0 m -13.031,-13.746 c -3.537,0.965 -6.88,2.816 -9.653,5.589 -8.503,8.503 -8.503,22.338 0,30.841 8.503,8.503 22.339,8.503 30.841,0.001 8.503,-8.503 8.503,-22.338 0,-30.842 -2.773,-2.773 -6.115,-4.624 -9.653,-5.589 v -0.852 h -11.535 z"
   style="fill:#ffffff;fill-rule:nonzero"
   id="path94" />
        </g><g
     transform="translate(482.868,558.259)"
     id="g100"
     style="fill:#ffffff">
            <path
   d="m 0,-20.545 c 5.665,0 10.273,4.608 10.273,10.272 C 10.273,-4.608 5.665,0 0,0 c -5.665,0 -10.272,-4.608 -10.272,-10.273 0,-5.664 4.607,-10.272 10.272,-10.272 m -18.934,-0.505 c -1.819,3.183 -2.874,6.857 -2.874,10.777 0,12.025 9.783,21.808 21.808,21.808 12.025,0 21.809,-9.783 21.809,-21.808 0,-12.024 -9.784,-21.807 -21.809,-21.807 -3.921,0 -7.594,1.055 -10.777,2.873 l -0.603,-0.603 -8.157,8.158 z"
   style="fill:#ffffff;fill-rule:nonzero"
   id="path98" />
        </g><g
     transform="translate(472.81,227.432)"
     id="g104"
     style="fill:#ffffff">
            <path
   d="m 0,0.001 c 0,-5.665 4.608,-10.273 10.272,-10.273 5.665,0 10.272,4.608 10.272,10.273 0,5.664 -4.607,10.272 -10.272,10.272 C 4.608,10.273 0,5.665 0,0.001 m -0.505,18.934 c 3.183,1.819 6.856,2.874 10.777,2.874 12.025,0 21.808,-9.784 21.808,-21.808 0,-12.026 -9.783,-21.809 -21.808,-21.809 -12.024,0 -21.808,9.783 -21.808,21.809 0,3.921 1.055,7.594 2.874,10.777 l -0.603,0.602 8.158,8.158 z"
   style="fill:#ffffff;fill-rule:nonzero"
   id="path102" />
        </g><g
     transform="translate(475.819,292.498)"
     id="g108"
     style="fill:#ffffff">
            <path
   d="m 0,-14.527 c 4.006,-4.006 10.522,-4.006 14.528,0 C 18.533,-10.522 18.533,-4.006 14.527,0 10.522,4.005 4.005,4.005 0,0 -4.005,-4.005 -4.005,-10.522 0,-14.527 m -13.746,13.032 c 0.965,3.536 2.817,6.88 5.589,9.652 8.503,8.503 22.338,8.503 30.841,0 8.503,-8.503 8.503,-22.339 10e-4,-30.841 -8.503,-8.503 -22.338,-8.503 -30.842,0 -2.772,2.773 -4.624,6.115 -5.589,9.653 h -0.852 v 11.536 z"
   style="fill:#ffffff;fill-rule:nonzero"
   id="path106" />
        </g><g
     transform="translate(475.819,394.596)"
     id="g112"
     style="fill:#ffffff">
            <path
   d="m 0,-14.527 c 4.006,-4.006 10.522,-4.005 14.528,0 C 18.533,-10.522 18.533,-4.006 14.527,0 10.522,4.006 4.005,4.006 0,0 -4.005,-4.005 -4.005,-10.522 0,-14.527 m -13.746,13.032 c 0.965,3.536 2.817,6.88 5.589,9.652 8.503,8.503 22.338,8.503 30.841,0 8.503,-8.503 8.503,-22.338 10e-4,-30.841 -8.503,-8.503 -22.338,-8.503 -30.842,0 -2.772,2.773 -4.624,6.116 -5.589,9.653 h -0.852 v 11.536 z"
   style="fill:#ffffff;fill-rule:nonzero"
   id="path110" />
        </g><g
     transform="translate(475.819,497.285)"
     id="g116"
     style="fill:#ffffff">
            <path
   d="m 0,-14.527 c 4.006,-4.006 10.522,-4.006 14.528,0 C 18.533,-10.522 18.533,-4.006 14.527,0 10.522,4.005 4.005,4.005 0,0 -4.005,-4.005 -4.005,-10.522 0,-14.527 m -13.746,13.032 c 0.965,3.536 2.817,6.88 5.589,9.653 8.503,8.502 22.338,8.502 30.841,0 8.503,-8.504 8.503,-22.339 10e-4,-30.842 -8.503,-8.503 -22.338,-8.503 -30.842,0.001 -2.772,2.772 -4.624,6.115 -5.589,9.652 h -0.852 v 11.536 z"
   style="fill:#ffffff;fill-rule:nonzero"
   id="path114" />
        </g><g
     transform="translate(264.019,218.224)"
     id="g120"
     style="fill:#ffffff">
            <path
   d="M 0,16.333 C -3.929,12.252 -3.806,5.736 0.275,1.808 4.355,-2.121 10.871,-1.998 14.8,2.083 18.729,6.164 18.605,12.679 14.524,16.608 10.444,20.537 3.928,20.413 0,16.333 m 12.769,13.99 c 3.554,-0.898 6.932,-2.685 9.756,-5.405 8.662,-8.34 8.925,-22.173 0.584,-30.835 -8.34,-8.663 -22.173,-8.925 -30.835,-0.585 -8.663,8.34 -8.925,22.173 -0.584,30.835 2.72,2.825 6.027,4.74 9.545,5.771 l -0.016,0.853 11.533,0.218 z"
   style="fill:#ffffff;fill-rule:nonzero"
   id="path118" />
        </g><g
     transform="translate(336.476,218.224)"
     id="g124"
     style="fill:#ffffff">
            <path
   d="M 0,16.333 C -3.929,12.252 -3.806,5.736 0.275,1.808 4.355,-2.121 10.871,-1.998 14.8,2.083 18.729,6.164 18.605,12.679 14.525,16.608 10.444,20.537 3.929,20.413 0,16.333 m 12.769,13.99 c 3.554,-0.898 6.932,-2.685 9.756,-5.405 8.663,-8.34 8.925,-22.173 0.585,-30.835 -8.341,-8.663 -22.174,-8.925 -30.836,-0.585 -8.663,8.34 -8.924,22.173 -0.584,30.835 2.72,2.825 6.027,4.74 9.545,5.771 l -0.016,0.853 11.534,0.218 z"
   style="fill:#ffffff;fill-rule:nonzero"
   id="path122" />
        </g><g
     transform="translate(408.387,218.224)"
     id="g128"
     style="fill:#ffffff">
            <path
   d="M 0,16.333 C -3.929,12.252 -3.806,5.736 0.275,1.808 4.355,-2.121 10.871,-1.998 14.8,2.083 18.729,6.164 18.605,12.679 14.525,16.608 10.444,20.537 3.929,20.413 0,16.333 m 12.769,13.99 c 3.554,-0.898 6.932,-2.685 9.756,-5.405 8.663,-8.34 8.925,-22.173 0.585,-30.835 -8.341,-8.663 -22.174,-8.925 -30.836,-0.585 -8.663,8.34 -8.924,22.173 -0.584,30.835 2.72,2.825 6.027,4.74 9.545,5.771 l -0.016,0.853 11.534,0.218 z"
   style="fill:#ffffff;fill-rule:nonzero"
   id="path126" />
        </g><g
     transform="translate(60.7202,749.19)"
     id="g132"
     style="fill:#ffffff">
            <path
   d="m 0,-689.138 v 279.935 l -0.457,73.964 c -0.108,13.503 -0.211,26.254 -0.211,38.255 0,86.789 5.053,130.355 35.002,159.085 45.094,43.243 133.765,101.343 248.543,136.175 114.807,-34.836 203.476,-92.935 248.555,-136.175 29.95,-28.774 35.005,-72.334 35.005,-159.085 0,-15.025 -0.125,-31.134 -0.306,-48.527 l -0.318,-63.591 v -280.036 z m 282.877,729.19 -5.659,-1.666 C 152.794,1.738 55.85,-61.776 6.611,-108.994 c -44.037,-42.242 -47.331,-101.859 -47.331,-187.99 0,-12.101 0.104,-24.961 0.213,-38.577 l 0.455,-73.761 V -729.19 h 645.913 v 319.987 l 0.318,63.385 c 0.181,17.434 0.306,33.68 0.306,48.834 0,86.085 -3.292,145.678 -47.317,187.976 C 509.931,-61.78 412.991,1.731 288.534,38.386 Z"
   style="fill:#ffffff;fill-rule:nonzero"
   id="path130" />
        </g><g
     transform="translate(887.922,158.454)"
     id="g136"
     style="fill:#ffffff">
            <path
   d="M 0,53.052 H 11.58 L 7.16,90.317 c -13.265,7.368 -28.002,12.211 -50.107,12.211 -44.002,0 -71.793,-30.528 -71.793,-72.844 0,-49.053 32.845,-79.16 74.318,-79.16 21.474,0 36.845,5.685 46.947,13.896 V -2.738 H -4.843 c -5.682,-23.368 -17.682,-34.527 -36.63,-34.527 -31.159,0 -44.002,28.21 -44.002,60.844 0,38.107 15.791,66.527 46.739,66.527 19.999,0 30.948,-12.42 38.736,-37.054"
   style="fill:#ffffff;fill-rule:nonzero"
   id="path134" />
        </g><g
     transform="translate(1028.53,183.504)"
     id="g140"
     style="fill:#ffffff">
            <path
   d="m 0,2.951 c 0,-34.107 -13.051,-64.635 -44.21,-64.635 -26.736,0 -39.37,26.947 -39.37,61.687 0,34.105 13.265,64.632 44.213,64.632 C -12.631,64.635 0,37.687 0,2.951 m 29.054,-4.422 c 0,48.21 -31.999,78.949 -71.789,78.949 -44.422,0 -69.899,-33.897 -69.899,-73.055 0,-48.211 32.214,-78.95 72.004,-78.95 44.21,0 69.684,33.896 69.684,73.056"
   style="fill:#ffffff;fill-rule:nonzero"
   id="path138" />
        </g><g
     transform="translate(1205.55,223.085)"
     id="g144"
     style="fill:#ffffff">
            <path
   d="M 0,-76.212 -41.896,35.791 h -10.106 l -44.421,-112.634 -10.737,84 c -0.211,1.474 -0.42,4.423 -0.42,5.054 0,10.317 5.263,12.843 19.999,13.474 v 10.106 h -51.79 V 25.685 c 12,-0.42 16.211,-2.948 17.685,-12.631 l 13.263,-99.58 c 0,-11.16 -3.788,-14.948 -17.893,-15.371 v -10.106 h 45.052 c 0.42,4.843 1.263,7.58 3.158,12.211 l 37.896,97.055 35.578,-97.055 c 1.895,-4.631 3.157,-7.368 3.58,-12.211 h 43.791 v 10.106 c -13.897,0.423 -17.685,4.211 -17.685,15.371 l 13.262,99.58 c 1.263,9.894 5.686,12.211 17.474,12.631 V 35.791 H -8.631 V 25.685 c 14.736,-0.631 19.999,-3.157 19.999,-13.474 0,-0.631 -0.211,-3.58 -0.417,-5.054 z"
   style="fill:#ffffff;fill-rule:nonzero"
   id="path142" />
        </g><g
     transform="translate(1322.01,181.189)"
     id="g148"
     style="fill:#ffffff">
            <path
   d="m 0,7.58 h 13.474 c 23.371,0 34.319,-10.737 34.319,-33.265 0,-19.579 -11.371,-33.053 -34.736,-33.053 H 0 Z M 0,18.528 V 52.425 C 0,64.844 9.057,66.739 26.107,67.581 V 77.687 H -46.941 V 67.581 c 14.102,-0.42 19.999,-2.737 19.999,-15.156 v -97.478 c 0,-12.211 -5.897,-14.525 -19.999,-14.948 v -10.106 h 66.523 c 40.422,0 56.21,20.843 56.21,43.791 0,26.107 -16.628,44.844 -53.896,44.844 z"
   style="fill:#ffffff;fill-rule:nonzero"
   id="path146" />
        </g><g
     transform="translate(1458.19,166.242)"
     id="g152"
     style="fill:#ffffff">
            <path
   d="m 0,39.37 c 0,25.054 12.005,39.371 35.37,39.371 25.474,0 40.422,-10.737 40.422,-41.054 v -67.792 c 0,-12.212 -6.737,-14.525 -20.628,-14.948 v -10.106 h 54.947 v 10.106 c -13.897,0.423 -19.794,2.736 -19.794,14.948 v 72.424 c 0,35.579 -26.313,52.21 -57.049,52.21 -37.057,0 -60.216,-16.631 -60.216,-52.422 v -72.212 c 0,-12.212 -5.892,-14.525 -19.788,-14.948 v -10.106 h 66.529 v 10.106 C 5.896,-44.63 0,-42.317 0,-30.105 Z"
   style="fill:#ffffff;fill-rule:nonzero"
   id="path150" />
        </g><g
     transform="translate(1715.43,258.876)"
     id="g156"
     style="fill:#ffffff">
            <path
   d="m 0,-147.793 3.154,45.688 h -9.679 c -11.582,-27.16 -14.532,-34.74 -32.845,-34.74 h -12.423 v 111.583 c 0,12.42 6.948,14.737 20.846,15.157 V 0 h -68.421 v -10.105 c 14.101,-0.42 20.839,-2.737 20.839,-15.157 V -136.845 H -90.74 c -18.314,0 -21.263,7.58 -33.051,34.74 h -9.474 l 3.155,-45.688 z"
   style="fill:#ffffff;fill-rule:nonzero"
   id="path154" />
        </g><g
     transform="translate(1825.5,162.873)"
     id="g160"
     style="fill:#ffffff">
            <path
   d="M 0,44.213 C -2.108,31.582 -5.896,25.896 -15.159,25.896 h -29.685 v 44.633 c 0,11.369 6.109,14.317 19.999,14.317 h 16.211 c 17.474,0 21.897,-6.737 35.37,-28.422 h 9.052 L 29.263,96.003 H -91.58 V 85.898 c 14.102,-0.421 19.999,-2.738 19.999,-15.157 v -97.478 c 0,-12.211 -5.897,-14.525 -19.999,-14.948 V -51.79 H 28.211 v 36.633 H 19.365 C 12,-33.051 6.314,-40.631 -10.525,-40.631 h -34.319 v 55.159 h 29.685 C -5.896,14.528 -2.108,9.054 0,-3.578 h 9.263 v 47.791 z"
   style="fill:#ffffff;fill-rule:nonzero"
   id="path158" />
        </g><g
     transform="translate(1924.42,247.508)"
     id="g164"
     style="fill:#ffffff">
            <path
   d="m 0,-125.057 v 62.318 h 11.582 c 24.211,0 35.576,-10.525 35.576,-31.79 0,-18.105 -11.365,-30.528 -36.21,-30.528 z m 19.999,-11.368 c 38.107,0 55.159,16.842 55.159,41.896 0,22.316 -18.314,35.79 -37.262,38.528 l 32,42.316 C 76.844,-4.211 84.42,0.842 95.58,1.263 V 11.368 H 60.004 C 52.844,6.317 48.004,1.051 41.473,-8.631 L 10.319,-52.002 H 0 v 38.108 C 0,-1.474 5.896,0.842 19.582,1.263 V 11.368 H -46.736 V 1.263 c 14.102,-0.421 20,-2.737 20,-15.157 v -97.477 c 0,-12.212 -5.898,-14.526 -20,-14.737 v -10.317 z"
   style="fill:#ffffff;fill-rule:nonzero"
   id="path162" />
        </g><g
     transform="translate(779.208,317.091)"
     id="g168"
     style="fill:#ffffff">
            <path
   d="M 0,123.372 -1.686,88.636 H 9.683 C 16,111.161 28,125.897 48.842,125.897 c 17.685,0 28.842,-8.42 28.842,-24.419 0,-13.265 -8.42,-19.579 -33.262,-28.002 C 14.948,63.582 -0.211,52.845 -0.211,28.003 c 0,-24.842 18.525,-42.319 48.633,-42.319 18.105,0 33.896,5.474 44.842,13.054 V 30.949 H 83.158 c -5.262,-19.369 -16,-33.685 -36.211,-33.685 -16.422,0 -24.842,9.474 -24.842,21.685 0,13.894 7.369,19.791 32.211,28.211 30.948,10.316 46.739,21.685 46.739,46.95 0,28.842 -24.423,43.578 -53.687,43.578 -20.211,0 -37.685,-6.525 -47.368,-14.316"
   style="fill:#ffffff;fill-rule:nonzero"
   id="path166" />
        </g><g
     transform="translate(1017.29,352.251)"
     id="g172"
     style="fill:#ffffff">
            <path
   d="M 0,53.053 H 11.58 L 7.16,90.318 c -13.265,7.368 -28.002,12.211 -50.107,12.211 -44.002,0 -71.79,-30.528 -71.79,-72.844 0,-49.053 32.842,-79.161 74.315,-79.161 21.474,0 36.842,5.686 46.951,13.897 V -2.737 H -4.843 c -5.682,-23.368 -17.682,-34.527 -36.63,-34.527 -31.159,0 -44.002,28.21 -44.002,60.843 0,38.108 15.791,66.528 46.739,66.528 19.999,0 30.947,-12.42 38.736,-37.054"
   style="fill:#ffffff;fill-rule:nonzero"
   id="path170" />
        </g><g
     transform="translate(1049.64,304.881)"
     id="g176"
     style="fill:#ffffff">
            <path
   d="m 0,147.793 v -10.105 c 14.105,-0.42 19.999,-2.738 19.999,-15.157 V 25.053 C 19.999,12.842 14.105,10.528 0,10.106 V 0 H 66.738 V 10.106 C 52.633,10.528 46.735,12.842 46.735,25.053 v 97.478 c 0,12.419 5.898,14.737 20.003,15.157 v 10.105 z"
   style="fill:#ffffff;fill-rule:nonzero"
   id="path174" />
        </g><g
     transform="translate(1232.36,356.671)"
     id="g180"
     style="fill:#ffffff">
            <path
   d="M 0,44.213 C -2.108,31.582 -5.896,25.897 -15.159,25.897 h -29.686 v 44.632 c 0,11.369 6.109,14.317 20,14.317 h 16.211 c 17.474,0 21.897,-6.737 35.37,-28.422 h 9.052 L 29.262,96.003 H -91.58 V 85.898 c 14.105,-0.42 19.999,-2.738 19.999,-15.157 v -97.478 c 0,-12.211 -5.894,-14.525 -19.999,-14.947 V -51.79 H 28.211 v 36.633 h -8.84 C 12,-33.051 6.314,-40.63 -10.525,-40.63 h -34.32 v 55.158 h 29.686 C -5.896,14.528 -2.108,9.054 0,-3.577 h 9.263 v 47.79 z"
   style="fill:#ffffff;fill-rule:nonzero"
   id="path178" />
        </g><g
     transform="translate(1301.38,430.146)"
     id="g184"
     style="fill:#ffffff">
            <path
   d="m 0,-102.737 c -7.577,-9.474 -10.525,-12 -20,-12.422 v -10.106 h 42.313 l 79.582,101.686 v -76.633 c 0,-12.211 -6.527,-14.525 -20.417,-14.947 v -10.106 h 54.735 v 10.106 c -14.109,0.422 -19.999,2.736 -19.999,14.947 v 122.74 h -11.16 L 14.313,-90.949 v 88.215 c 0,12.419 6.532,14.737 20.634,15.157 V 22.528 H -20 V 12.423 C -5.897,12.003 0,9.685 0,-2.734 Z"
   style="fill:#ffffff;fill-rule:nonzero"
   id="path182" />
        </g><g
     transform="translate(1558.66,352.251)"
     id="g188"
     style="fill:#ffffff">
            <path
   d="M 0,53.053 H 11.577 L 7.154,90.318 c -13.262,7.368 -28,12.211 -50.107,12.211 -43.999,0 -71.787,-30.528 -71.787,-72.844 0,-49.053 32.84,-79.161 74.318,-79.161 21.474,0 36.839,5.686 46.947,13.897 V -2.737 H -4.846 c -5.685,-23.368 -17.685,-34.527 -36.633,-34.527 -31.16,0 -43.999,28.21 -43.999,60.843 0,38.108 15.789,66.528 46.736,66.528 20,0 30.948,-12.42 38.742,-37.054"
   style="fill:#ffffff;fill-rule:nonzero"
   id="path186" />
        </g><g
     transform="translate(1676.74,356.671)"
     id="g192"
     style="fill:#ffffff">
            <path
   d="M 0,44.213 C -2.109,31.582 -5.897,25.897 -15.16,25.897 h -29.685 v 44.632 c 0,11.369 6.109,14.317 19.999,14.317 h 16.211 c 17.475,0 21.897,-6.737 35.371,-28.422 h 9.051 L 29.262,96.003 H -91.581 V 85.898 c 14.102,-0.42 20,-2.738 20,-15.157 v -97.478 c 0,-12.211 -5.898,-14.525 -20,-14.947 V -51.79 H 28.21 v 36.633 H 19.37 C 11.999,-33.051 6.313,-40.63 -10.525,-40.63 h -34.32 v 55.158 h 29.685 c 9.263,0 13.051,-5.474 15.16,-18.105 h 9.263 v 47.79 z"
   style="fill:#ffffff;fill-rule:nonzero"
   id="path190" />
        </g><g
     transform="translate(779.208,507.322)"
     id="g196"
     style="fill:#ffffff">
            <path
   d="M 0,123.37 -1.686,88.634 H 9.683 C 16,111.159 28,125.896 48.842,125.896 c 17.685,0 28.842,-8.42 28.842,-24.42 0,-13.265 -8.42,-19.579 -33.262,-28.002 -29.474,-9.893 -44.633,-20.63 -44.633,-45.472 0,-24.843 18.525,-42.319 48.633,-42.319 18.105,0 33.896,5.474 44.842,13.053 V 30.947 H 83.158 c -5.262,-19.368 -16,-33.684 -36.211,-33.684 -16.422,0 -24.842,9.473 -24.842,21.684 0,13.895 7.369,19.791 32.211,28.211 30.948,10.316 46.739,21.686 46.739,46.95 0,28.842 -24.423,43.579 -53.687,43.579 C 27.157,137.687 9.683,131.162 0,123.37"
   style="fill:#ffffff;fill-rule:nonzero"
   id="path194" />
        </g><g
     transform="translate(1012.03,567.531)"
     id="g200"
     style="fill:#ffffff">
            <path
   d="m 0,2.951 c 0,-34.107 -13.051,-64.635 -44.21,-64.635 -26.737,0 -39.371,26.948 -39.371,61.687 0,34.105 13.266,64.633 44.213,64.633 C -12.631,64.636 0,37.687 0,2.951 m 29.053,-4.422 c 0,48.21 -31.999,78.949 -71.789,78.949 -44.422,0 -69.898,-33.896 -69.898,-73.055 0,-48.21 32.213,-78.95 72.004,-78.95 44.21,0 69.683,33.897 69.683,73.056"
   style="fill:#ffffff;fill-rule:nonzero"
   id="path198" />
        </g><g
     transform="translate(1175.58,542.482)"
     id="g204"
     style="fill:#ffffff">
            <path
   d="M 0,53.051 H 11.576 L 7.159,90.317 c -13.262,7.368 -27.999,12.211 -50.106,12.211 -44.002,0 -71.793,-30.529 -71.793,-72.844 0,-49.054 32.844,-79.161 74.318,-79.161 21.474,0 36.845,5.685 46.947,13.896 V -2.739 H -4.84 c -5.685,-23.367 -17.685,-34.527 -36.634,-34.527 -31.159,0 -44.002,28.211 -44.002,60.844 0,38.108 15.791,66.527 46.74,66.527 19.999,0 30.947,-12.42 38.736,-37.054"
   style="fill:#ffffff;fill-rule:nonzero"
   id="path202" />
        </g><g
     transform="translate(1202.07,495.11)"
     id="g208"
     style="fill:#ffffff">
            <path
   d="m 0,147.793 v -10.104 c 14.103,-0.421 20,-2.738 20,-15.158 V 25.054 C 20,12.843 14.103,10.528 0,10.106 V 0 H 66.735 V 10.106 C 52.633,10.528 46.736,12.843 46.736,25.054 v 97.477 c 0,12.42 5.897,14.737 19.999,15.158 v 10.104 z"
   style="fill:#ffffff;fill-rule:nonzero"
   id="path206" />
        </g><g
     transform="translate(1384.92,546.9)"
     id="g212"
     style="fill:#ffffff">
            <path
   d="M 0,44.213 C -2.108,31.582 -5.897,25.897 -15.16,25.897 H -44.845 V 70.53 c 0,11.369 6.109,14.317 19.999,14.317 h 16.211 c 17.475,0 21.898,-6.738 35.371,-28.422 h 9.051 L 29.262,96.003 H -91.581 V 85.899 c 14.102,-0.421 20,-2.738 20,-15.158 v -97.477 c 0,-12.211 -5.898,-14.526 -20,-14.948 V -51.79 H 28.21 v 36.634 H 19.371 C 11.999,-33.051 6.313,-40.63 -10.525,-40.63 h -34.32 v 55.158 h 29.685 c 9.263,0 13.052,-5.473 15.16,-18.105 h 9.263 v 47.79 z"
   style="fill:#ffffff;fill-rule:nonzero"
   id="path210" />
        </g><g
     transform="translate(1569.27,642.903)"
     id="g216"
     style="fill:#ffffff">
            <path
   d="m 0,-147.793 3.154,45.688 h -9.679 c -11.583,-27.16 -14.532,-34.74 -32.845,-34.74 h -12.423 v 111.583 c 0,12.42 6.948,14.737 20.845,15.157 V 0 h -68.427 v -10.105 c 14.108,-0.42 20.846,-2.737 20.846,-15.157 V -136.845 H -90.74 c -18.315,0 -21.263,7.58 -33.051,34.74 h -9.475 l 3.155,-45.688 z"
   style="fill:#ffffff;fill-rule:nonzero"
   id="path214" />
        </g><g
     transform="translate(1686.29,614.269)"
     id="g220"
     style="fill:#ffffff">
            <path
   d="m 0,-90.525 c 2.525,-4.211 4,-7.368 4,-10.528 0,-5.683 -4.417,-7.577 -17.686,-8 v -10.106 h 47.793 v 10.106 c -6.102,0.842 -9.473,2.317 -12.633,7.791 l -44.627,72.001 V 3.372 c 0,12.42 6.525,14.737 20.416,15.158 V 28.634 H -69.896 V 18.53 c 14.109,-0.421 20.423,-2.738 20.423,-15.158 v -32.633 l -44.211,-72.001 c -3.159,-5.474 -6.525,-6.949 -12.421,-7.791 v -10.106 h 60.843 v 10.106 c -13.473,0.423 -17.473,2.317 -17.473,8 0,3.371 1.474,6.317 4,10.528 l 29.05,48.21 z"
   style="fill:#ffffff;fill-rule:nonzero"
   id="path218" />
        </g><g
     transform="translate(347.493,647.187)"
     id="g224"
     style="fill:#ffffff">
            <path
   d="m 0,30.406 c -0.642,4.377 2.945,8.374 8.011,8.929 0.435,0.048 0.874,0.068 1.312,0.062 6.616,0 23.213,-5.549 24.49,-27.806 C 34.78,-4.686 29.286,-8.997 29.286,-8.997 L 19.15,6.978 C 19.15,29.938 0,30.406 0,30.406"
   style="fill:#ffffff;fill-rule:nonzero"
   id="path222" />
        </g><g
     transform="translate(320.682,670.726)"
     id="g228"
     style="fill:#ffffff">
            <path
   d="m 0,-16.527 -10.136,-15.976 c 0,0 -5.455,4.312 -4.681,20.622 1.315,22.258 17.874,27.806 24.45,27.806 5.128,0.051 9.332,-3.499 9.391,-7.929 C 19.029,7.642 19.006,7.287 18.957,6.935 18.957,6.935 0,6.4 0,-16.527"
   style="fill:#ffffff;fill-rule:nonzero"
   id="path226" />
        </g><g
     transform="translate(354.224,645.174)"
     id="g232"
     style="fill:#ffffff">
            <path
   d="m 0,11.933 c -0.259,-7.642 0.771,-15.275 3.056,-22.66 1.625,-5.014 11.607,-10.294 11.607,-10.294 -9.982,-9.592 -18.725,3.343 -18.338,1.805 0.187,-3.722 -0.635,-7.43 -2.399,-10.829 -1.183,-2.098 -2.622,-4.082 -4.294,-5.916 -1.658,1.836 -3.085,3.82 -4.256,5.916 -1.761,3.4 -2.583,7.108 -2.398,10.829 0.348,1.604 -8.357,-11.397 -18.338,-1.805 0,0 9.826,5.28 11.606,10.294 2.291,7.385 3.321,15.018 3.056,22.66 0,8.923 5.455,11.296 7.97,12.266 v 23.695 h 4.681 V 24.499 C -6.229,23.697 0.155,21.491 0,11.933"
   style="fill:#ffffff;fill-rule:nonzero"
   id="path230" />
        </g></g>
</svg>
