<?xml version="1.0" encoding="UTF-8" standalone="no"?>
<!DOCTYPE svg PUBLIC "-//W3C//DTD SVG 1.1//EN" "http://www.w3.org/Graphics/SVG/1.1/DTD/svg11.dtd">
<svg width="100%" height="100%" viewBox="0 0 2040 810" version="1.1" xmlns="http://www.w3.org/2000/svg" xmlns:xlink="http://www.w3.org/1999/xlink" xml:space="preserve" xmlns:serif="http://www.serif.com/" style="fill-rule:evenodd;clip-rule:evenodd;stroke-linejoin:round;stroke-miterlimit:2;">
    <g id="Layer-1" serif:id="Layer 1">
        <g transform="matrix(1,0,0,1,343.603,371.223)">
            <path d="M0,-331.197L-302.909,-331.197L-302.909,-31.235L-303.093,0L0,0L0,-331.197Z" style="fill:rgb(0,85,150);fill-rule:nonzero;"/>
        </g>
        <g transform="matrix(1,0,0,1,646.712,40.0256)">
            <path d="M0,331.197L-0.156,299.963L-0.156,0L-303.109,0L-303.109,331.197L0,331.197Z" style="fill:rgb(3,59,94);fill-rule:nonzero;"/>
        </g>
        <g transform="matrix(1,0,0,1,40.5103,768.369)">
            <path d="M0,-397.146L-0.189,-364.828C-0.324,-347.43 -0.484,-331.207 -0.484,-316.162C-0.484,-226.905 4.405,-177.425 40.683,-142.627C88.738,-96.541 182.654,-35.475 303.088,0C303.09,-0.001 303.091,-0.001 303.093,-0.002L303.093,-397.146L0,-397.146Z" style="fill:rgb(3,59,94);fill-rule:nonzero;"/>
        </g>
        <g transform="matrix(1,0,0,1,646.712,768.367)">
            <path d="M0,-397.144L-303.109,-397.144L-303.109,0C-182.668,-35.475 -88.743,-96.54 -40.7,-142.625C-4.387,-177.514 0.467,-226.949 0.467,-316.16C0.467,-331.249 0.342,-347.428 0.161,-364.894L0,-397.144Z" style="fill:rgb(0,85,150);fill-rule:nonzero;"/>
        </g>
        <g transform="matrix(1,0,0,1,281.406,121.115)">
            <path d="M0,23.452C0,23.452 6.883,16.981 6.883,10.717C6.883,-3.503 -0.742,-2.514 -4.08,-2.514C-11.705,-2.514 -22.091,9.356 -22.091,9.356C-20.937,6.76 -18.959,2.144 -18.382,0.701C-18.135,0.124 -17.846,-0.618 -17.517,-1.401C-15.849,-5.565 -15.746,-10.192 -17.228,-14.425C-19,-19.906 -22.792,-22.256 -25.883,-26.089C-28.974,-29.922 -30.458,-31.488 -30.458,-31.488C-30.458,-31.488 -31.653,-30.128 -34.992,-26.006C-38.33,-21.885 -41.875,-19.824 -43.647,-14.342C-45.109,-10.086 -44.977,-5.444 -43.276,-1.277C-42.987,-0.453 -42.658,0.248 -42.411,0.825C-41.833,2.267 -39.855,6.884 -38.701,9.48C-38.701,9.48 -49.087,-2.39 -56.712,-2.39C-60.009,-2.39 -67.675,-3.338 -67.675,10.84C-67.675,17.105 -60.792,23.576 -60.792,23.576C-60.792,23.576 -59.803,18.465 -52.302,18.465C-47.15,18.465 -43.647,23.864 -43.647,29.964C-43.647,34.951 -44.677,39.155 -45.914,39.691C-43.485,41.337 -41.146,43.112 -38.907,45.008C-37.341,46.574 -30.417,54.94 -30.417,54.94C-30.417,54.94 -23.493,46.697 -21.926,45.008C-19.671,43.114 -17.318,41.34 -14.878,39.691C-16.115,39.155 -17.146,34.992 -17.146,29.964C-17.146,23.905 -13.642,18.465 -8.49,18.465C-1.03,18.424 0,23.452 0,23.452" style="fill:rgb(255,207,1);fill-rule:nonzero;"/>
        </g>
        <g transform="matrix(1,0,0,1,417.382,111.388)">
            <path d="M0,42.864L-0.577,45.831L12.694,38.165L12.694,64.172L19.124,64.172L19.124,38.165L32.395,45.831L31.777,42.864L45.873,42.575L39.072,30.293L41.916,29.304L34.95,25.306L52.137,15.373L49.293,14.426L56.094,2.102L42.04,1.814L42.616,-1.154L25.1,8.944L25.1,-11.252L22.833,-9.273L15.909,-21.308L8.985,-9.273L6.677,-11.252L6.677,8.944L-10.798,-1.154L-10.222,1.814L-24.276,2.102L-17.517,14.426L-20.36,15.373L-3.174,25.306L-10.139,29.304L-7.254,30.293L-14.055,42.575L0,42.864Z" style="fill:rgb(255,207,1);fill-rule:nonzero;"/>
        </g>
        <g transform="matrix(-1,0,0,1,197.094,52.029)">
            <rect x="40.672" y="370.364" width="115.75" height="16.486" style="fill:rgb(255,207,1);"/>
        </g>
        <g transform="matrix(-1,0,0,1,197.094,-82.859)">
            <rect x="40.672" y="437.808" width="115.75" height="16.486" style="fill:rgb(255,207,1);"/>
        </g>
        <g transform="matrix(-1,0,0,1,197.094,-15.413)">
            <rect x="40.672" y="404.085" width="115.75" height="16.486" style="fill:rgb(255,207,1);"/>
        </g>
        <g transform="matrix(-1,0,0,1,197.094,-150.301)">
            <rect x="40.672" y="471.529" width="115.75" height="16.486" style="fill:rgb(255,207,1);"/>
        </g>
        <g transform="matrix(1,0,0,1,0,-150.301)">
            <rect x="530.784" y="471.529" width="115.749" height="16.486" style="fill:rgb(255,207,1);"/>
        </g>
        <g transform="matrix(1,0,0,1,0,-82.859)">
            <rect x="530.784" y="437.808" width="115.749" height="16.486" style="fill:rgb(255,207,1);"/>
        </g>
        <g transform="matrix(1,0,0,1,0,52.029)">
            <rect x="530.784" y="370.364" width="115.749" height="16.486" style="fill:rgb(255,207,1);"/>
        </g>
        <g transform="matrix(1,0,0,1,0,-15.413)">
            <rect x="530.784" y="404.085" width="115.749" height="16.486" style="fill:rgb(255,207,1);"/>
        </g>
        <g transform="matrix(1,0,0,1,0,-33.823)">
            <path d="M365.995,443.925L321.212,443.925L321.212,399.141L365.995,399.141L365.995,443.925ZM379.172,385.965L308.035,385.965L308.035,457.101L379.172,457.101L379.172,385.965Z" style="fill:white;fill-rule:nonzero;"/>
        </g>
        <g transform="matrix(1,0,0,1,0,-34.578)">
            <path d="M406.784,485.468L280.424,485.468L280.424,359.108L406.784,359.108L406.784,485.468ZM419.96,415.7L419.96,389.957L454.48,389.957L454.48,326.564L465.232,326.564L465.044,313.388L441.304,313.388L441.304,376.78L419.96,376.78L419.96,345.931L390.312,345.931L390.312,304.44L449.052,304.44L474.836,278.657L464.832,270.026L443.594,291.264L422.375,291.264L422.375,281.842L409.199,281.842L409.199,291.264L377.135,291.264L377.135,345.931L350.191,345.931L350.191,281.842L337.014,281.842L337.014,345.931L310.071,345.931L310.071,291.264L278.007,291.264L278.007,282.15L264.831,281.928L264.831,291.264L243.611,291.264L221.593,269.244L212.276,278.562L238.154,304.44L296.894,304.44L296.894,345.931L267.247,345.931L267.247,376.78L245.903,376.78L245.903,313.388L221.264,313.388L221.264,326.564L232.727,326.564L232.727,389.957L267.247,389.957L267.247,415.7L221.264,415.7L221.264,428.876L267.247,428.876L267.247,454.619L232.727,454.619L232.727,518.012L221.369,518.012L221.149,531.188L245.903,531.188L245.903,467.795L267.247,467.795L267.247,498.645L296.894,498.645L296.894,540.137L238.154,540.137L213.045,565.245L222.901,574.025L243.611,553.313L264.831,553.313L264.831,564.242L278.007,564.242L278.007,553.313L310.071,553.313L310.071,498.645L337.014,498.645L337.014,564.242L350.191,564.242L350.191,498.645L377.135,498.645L377.135,553.313L409.199,553.313L409.199,564.242L422.375,564.242L422.375,553.313L443.594,553.313L464.859,574.577L474.332,565.414L449.052,540.137L390.312,540.137L390.312,498.645L419.96,498.645L419.96,467.795L441.304,467.795L441.304,531.188L465.177,531.188L465.177,518.012L454.48,518.012L454.48,454.619L419.96,454.619L419.96,428.876L465.177,428.876L465.177,415.7L419.96,415.7Z" style="fill:white;fill-rule:nonzero;"/>
        </g>
        <g transform="matrix(1,0,0,1,204.358,217.16)">
            <path d="M0,20.545C-5.665,20.545 -10.273,15.937 -10.273,10.273C-10.273,4.608 -5.665,-0 0,-0C5.664,-0 10.272,4.608 10.272,10.273C10.272,15.937 5.664,20.545 0,20.545M18.934,21.049C20.753,17.867 21.808,14.193 21.808,10.273C21.808,-1.752 12.025,-11.535 0,-11.535C-12.025,-11.535 -21.809,-1.752 -21.809,10.273C-21.809,22.297 -12.025,32.08 0,32.08C3.921,32.08 7.594,31.025 10.777,29.207L11.379,29.81L19.537,21.652L18.934,21.049Z" style="fill:white;fill-rule:nonzero;"/>
        </g>
        <g transform="matrix(1,0,0,1,211.622,277.971)">
            <path d="M0,14.527C-4.006,18.533 -10.523,18.532 -14.528,14.527C-18.533,10.522 -18.533,4.006 -14.527,0C-10.522,-4.006 -4.005,-4.006 0,0C4.005,4.005 4.005,10.522 0,14.527M13.745,1.495C12.781,-2.041 10.929,-5.385 8.157,-8.157C-0.346,-16.66 -14.181,-16.66 -22.684,-8.157C-31.187,0.346 -31.187,14.181 -22.685,22.684C-14.182,31.187 -0.347,31.187 8.157,22.684C10.929,19.911 12.781,16.568 13.745,13.031L14.598,13.031L14.598,1.495L13.745,1.495Z" style="fill:white;fill-rule:nonzero;"/>
        </g>
        <g transform="matrix(1,0,0,1,211.622,380.447)">
            <path d="M0,14.527C-4.006,18.532 -10.523,18.532 -14.528,14.527C-18.533,10.522 -18.533,4.005 -14.527,0C-10.522,-4.006 -4.005,-4.006 0,0C4.005,4.005 4.005,10.522 0,14.527M13.745,1.495C12.781,-2.041 10.929,-5.385 8.157,-8.158C-0.346,-16.66 -14.181,-16.66 -22.684,-8.157C-31.187,0.346 -31.187,14.181 -22.685,22.684C-14.182,31.187 -0.347,31.187 8.157,22.684C10.929,19.911 12.781,16.568 13.745,13.031L14.598,13.031L14.598,1.495L13.745,1.495Z" style="fill:white;fill-rule:nonzero;"/>
        </g>
        <g transform="matrix(1,0,0,1,211.622,482.759)">
            <path d="M0,14.527C-4.006,18.533 -10.523,18.532 -14.528,14.527C-18.533,10.522 -18.533,4.006 -14.527,0C-10.522,-4.006 -4.005,-4.006 0,0C4.005,4.005 4.005,10.521 0,14.527M13.745,1.495C12.781,-2.041 10.929,-5.385 8.157,-8.158C-0.346,-16.66 -14.181,-16.66 -22.684,-8.158C-31.187,0.346 -31.187,14.181 -22.685,22.684C-14.182,31.187 -0.347,31.187 8.157,22.683C10.929,19.911 12.781,16.568 13.745,13.031L14.598,13.031L14.598,1.495L13.745,1.495Z" style="fill:white;fill-rule:nonzero;"/>
        </g>
        <g transform="matrix(1,0,0,1,214.63,547.986)">
            <path d="M0,0.001C0,5.665 -4.608,10.273 -10.272,10.273C-15.937,10.273 -20.545,5.665 -20.545,0.001C-20.545,-5.664 -15.937,-10.271 -10.272,-10.271C-4.608,-10.271 0,-5.664 0,0.001M0.505,-18.934C-2.678,-20.753 -6.352,-21.808 -10.272,-21.808C-22.297,-21.808 -32.08,-12.024 -32.08,0.001C-32.08,12.026 -22.297,21.809 -10.272,21.809C1.752,21.809 11.535,12.026 11.535,0.001C11.535,-3.92 10.481,-7.594 8.662,-10.776L9.265,-11.379L1.107,-19.536L0.505,-18.934Z" style="fill:white;fill-rule:nonzero;"/>
        </g>
        <g transform="matrix(1,0,0,1,278.683,557.312)">
            <path d="M0,-16.589C4.006,-12.584 4.005,-6.067 0,-2.062C-4.005,1.944 -10.522,1.944 -14.527,-2.062C-18.533,-6.068 -18.533,-12.584 -14.527,-16.589C-10.522,-20.595 -4.005,-20.595 0,-16.589M-13.032,-30.335C-16.568,-29.37 -19.912,-27.519 -22.684,-24.746C-31.187,-16.243 -31.187,-2.408 -22.684,6.095C-14.181,14.598 -0.346,14.598 8.157,6.096C16.66,-2.407 16.66,-16.242 8.157,-24.746C5.384,-27.519 2.041,-29.37 -1.496,-30.335L-1.496,-31.187L-13.032,-31.187L-13.032,-30.335Z" style="fill:white;fill-rule:nonzero;"/>
        </g>
        <g transform="matrix(1,0,0,1,350.819,557.312)">
            <path d="M0,-16.589C4.006,-12.584 4.006,-6.067 0,-2.062C-4.005,1.944 -10.521,1.944 -14.527,-2.062C-18.533,-6.068 -18.533,-12.584 -14.527,-16.589C-10.522,-20.595 -4.005,-20.595 0,-16.589M-13.032,-30.335C-16.568,-29.37 -19.912,-27.519 -22.684,-24.746C-31.187,-16.243 -31.187,-2.408 -22.684,6.095C-14.181,14.598 -0.345,14.598 8.157,6.096C16.66,-2.407 16.66,-16.242 8.157,-24.746C5.384,-27.519 2.041,-29.37 -1.496,-30.335L-1.496,-31.187L-13.032,-31.187L-13.032,-30.335Z" style="fill:white;fill-rule:nonzero;"/>
        </g>
        <g transform="matrix(1,0,0,1,423.05,557.312)">
            <path d="M0,-16.589C4.006,-12.584 4.006,-6.067 0,-2.062C-4.005,1.944 -10.521,1.944 -14.527,-2.062C-18.532,-6.068 -18.532,-12.584 -14.527,-16.589C-10.522,-20.595 -4.005,-20.595 0,-16.589M-13.031,-30.335C-16.568,-29.37 -19.911,-27.519 -22.684,-24.746C-31.187,-16.243 -31.187,-2.408 -22.684,6.095C-14.181,14.598 -0.345,14.598 8.157,6.096C16.66,-2.407 16.66,-16.242 8.157,-24.746C5.384,-27.519 2.042,-29.37 -1.496,-30.335L-1.496,-31.187L-13.031,-31.187L-13.031,-30.335Z" style="fill:white;fill-rule:nonzero;"/>
        </g>
        <g transform="matrix(1,0,0,1,482.868,558.259)">
            <path d="M0,-20.545C5.665,-20.545 10.273,-15.937 10.273,-10.273C10.273,-4.608 5.665,-0 0,-0C-5.665,-0 -10.272,-4.608 -10.272,-10.273C-10.272,-15.937 -5.665,-20.545 0,-20.545M-18.934,-21.05C-20.753,-17.867 -21.808,-14.193 -21.808,-10.273C-21.808,1.752 -12.025,11.535 0,11.535C12.025,11.535 21.809,1.752 21.809,-10.273C21.809,-22.297 12.025,-32.08 0,-32.08C-3.921,-32.08 -7.594,-31.025 -10.777,-29.207L-11.38,-29.81L-19.537,-21.652L-18.934,-21.05Z" style="fill:white;fill-rule:nonzero;"/>
        </g>
        <g transform="matrix(1,0,0,1,472.81,227.432)">
            <path d="M0,0.001C0,-5.664 4.608,-10.272 10.272,-10.272C15.937,-10.272 20.544,-5.664 20.544,0.001C20.544,5.665 15.937,10.273 10.272,10.273C4.608,10.273 0,5.665 0,0.001M-0.505,18.935C2.678,20.754 6.351,21.809 10.272,21.809C22.297,21.809 32.08,12.025 32.08,0.001C32.08,-12.025 22.297,-21.808 10.272,-21.808C-1.752,-21.808 -11.536,-12.025 -11.536,0.001C-11.536,3.922 -10.481,7.595 -8.662,10.778L-9.265,11.38L-1.107,19.538L-0.505,18.935Z" style="fill:white;fill-rule:nonzero;"/>
        </g>
        <g transform="matrix(1,0,0,1,475.819,292.498)">
            <path d="M0,-14.527C4.006,-18.533 10.522,-18.533 14.528,-14.527C18.533,-10.522 18.533,-4.006 14.527,-0C10.522,4.005 4.005,4.005 0,-0C-4.005,-4.005 -4.005,-10.522 0,-14.527M-13.746,-1.495C-12.781,2.041 -10.929,5.385 -8.157,8.157C0.346,16.66 14.181,16.66 22.684,8.157C31.187,-0.346 31.187,-14.182 22.685,-22.684C14.182,-31.187 0.347,-31.187 -8.157,-22.684C-10.929,-19.911 -12.781,-16.569 -13.746,-13.031L-14.598,-13.031L-14.598,-1.495L-13.746,-1.495Z" style="fill:white;fill-rule:nonzero;"/>
        </g>
        <g transform="matrix(1,0,0,1,475.819,394.596)">
            <path d="M0,-14.527C4.006,-18.533 10.522,-18.532 14.528,-14.527C18.533,-10.522 18.533,-4.006 14.527,-0C10.522,4.006 4.005,4.006 0,-0C-4.005,-4.005 -4.005,-10.522 0,-14.527M-13.746,-1.495C-12.781,2.041 -10.929,5.385 -8.157,8.157C0.346,16.66 14.181,16.66 22.684,8.157C31.187,-0.346 31.187,-14.181 22.685,-22.684C14.182,-31.187 0.347,-31.187 -8.157,-22.684C-10.929,-19.911 -12.781,-16.568 -13.746,-13.031L-14.598,-13.031L-14.598,-1.495L-13.746,-1.495Z" style="fill:white;fill-rule:nonzero;"/>
        </g>
        <g transform="matrix(1,0,0,1,475.819,497.285)">
            <path d="M0,-14.527C4.006,-18.533 10.522,-18.533 14.528,-14.527C18.533,-10.522 18.533,-4.006 14.527,-0C10.522,4.005 4.005,4.005 0,-0C-4.005,-4.005 -4.005,-10.522 0,-14.527M-13.746,-1.495C-12.781,2.041 -10.929,5.385 -8.157,8.158C0.346,16.66 14.181,16.66 22.684,8.158C31.187,-0.346 31.187,-14.181 22.685,-22.684C14.182,-31.187 0.347,-31.187 -8.157,-22.683C-10.929,-19.911 -12.781,-16.568 -13.746,-13.031L-14.598,-13.031L-14.598,-1.495L-13.746,-1.495Z" style="fill:white;fill-rule:nonzero;"/>
        </g>
        <g transform="matrix(1,0,0,1,264.019,218.224)">
            <path d="M0,16.333C-3.929,12.252 -3.806,5.736 0.275,1.808C4.355,-2.121 10.871,-1.998 14.8,2.083C18.729,6.164 18.605,12.679 14.524,16.608C10.444,20.537 3.928,20.413 0,16.333M12.769,30.323C16.323,29.425 19.701,27.638 22.525,24.918C31.187,16.578 31.45,2.745 23.109,-5.917C14.769,-14.58 0.936,-14.842 -7.726,-6.502C-16.389,1.838 -16.651,15.671 -8.31,24.333C-5.59,27.158 -2.283,29.073 1.235,30.104L1.219,30.957L12.752,31.175L12.769,30.323Z" style="fill:white;fill-rule:nonzero;"/>
        </g>
        <g transform="matrix(1,0,0,1,336.476,218.224)">
            <path d="M0,16.333C-3.929,12.252 -3.806,5.736 0.275,1.808C4.355,-2.121 10.871,-1.998 14.8,2.083C18.729,6.164 18.605,12.679 14.525,16.608C10.444,20.537 3.929,20.413 0,16.333M12.769,30.323C16.323,29.425 19.701,27.638 22.525,24.918C31.188,16.578 31.45,2.745 23.11,-5.917C14.769,-14.58 0.936,-14.842 -7.726,-6.502C-16.389,1.838 -16.65,15.671 -8.31,24.333C-5.59,27.158 -2.283,29.073 1.235,30.104L1.219,30.957L12.753,31.175L12.769,30.323Z" style="fill:white;fill-rule:nonzero;"/>
        </g>
        <g transform="matrix(1,0,0,1,408.387,218.224)">
            <path d="M0,16.333C-3.929,12.252 -3.806,5.736 0.275,1.808C4.355,-2.121 10.871,-1.998 14.8,2.083C18.729,6.164 18.605,12.679 14.525,16.608C10.444,20.537 3.929,20.413 0,16.333M12.769,30.323C16.323,29.425 19.701,27.638 22.525,24.918C31.188,16.578 31.45,2.745 23.11,-5.917C14.769,-14.58 0.936,-14.842 -7.726,-6.502C-16.389,1.838 -16.65,15.671 -8.31,24.333C-5.59,27.158 -2.283,29.073 1.235,30.104L1.219,30.957L12.753,31.175L12.769,30.323Z" style="fill:white;fill-rule:nonzero;"/>
        </g>
        <g transform="matrix(1,0,0,1,60.7202,749.19)">
            <path d="M0,-689.138L0,-409.203L-0.457,-335.239C-0.565,-321.736 -0.668,-308.985 -0.668,-296.984C-0.668,-210.195 4.385,-166.629 34.334,-137.899C79.428,-94.656 168.099,-36.556 282.877,-1.724C397.684,-36.56 486.353,-94.659 531.432,-137.899C561.382,-166.673 566.437,-210.233 566.437,-296.984C566.437,-312.009 566.312,-328.118 566.131,-345.511L565.813,-409.102L565.813,-689.138L0,-689.138ZM282.877,40.052L277.218,38.386C152.794,1.738 55.85,-61.776 6.611,-108.994C-37.426,-151.236 -40.72,-210.853 -40.72,-296.984C-40.72,-309.085 -40.616,-321.945 -40.507,-335.561L-40.052,-409.322L-40.052,-729.19L605.861,-729.19L605.861,-409.203L606.179,-345.818C606.36,-328.384 606.485,-312.138 606.485,-296.984C606.485,-210.899 603.193,-151.306 559.168,-109.008C509.931,-61.78 412.991,1.731 288.534,38.386L282.877,40.052Z" style="fill:rgb(255,207,1);fill-rule:nonzero;"/>
        </g>
        <g transform="matrix(1,0,0,1,887.922,158.454)">
            <path d="M0,53.052L11.58,53.052L7.16,90.317C-6.105,97.685 -20.842,102.528 -42.947,102.528C-86.949,102.528 -114.74,72 -114.74,29.684C-114.74,-19.369 -81.895,-49.476 -40.422,-49.476C-18.948,-49.476 -3.577,-43.791 6.525,-35.58L6.525,-2.738L-4.843,-2.738C-10.525,-26.106 -22.525,-37.265 -41.473,-37.265C-72.632,-37.265 -85.475,-9.055 -85.475,23.579C-85.475,61.686 -69.684,90.106 -38.736,90.106C-18.737,90.106 -7.788,77.686 0,53.052" style="fill:rgb(3,59,94);fill-rule:nonzero;"/>
        </g>
        <g transform="matrix(1,0,0,1,1028.53,183.504)">
            <path d="M0,2.951C0,-31.156 -13.051,-61.684 -44.21,-61.684C-70.946,-61.684 -83.58,-34.737 -83.58,0.003C-83.58,34.108 -70.315,64.635 -39.367,64.635C-12.631,64.635 0,37.687 0,2.951M29.054,-1.471C29.054,46.739 -2.945,77.478 -42.735,77.478C-87.157,77.478 -112.634,43.581 -112.634,4.423C-112.634,-43.788 -80.42,-74.527 -40.63,-74.527C3.58,-74.527 29.054,-40.631 29.054,-1.471" style="fill:rgb(3,59,94);fill-rule:nonzero;"/>
        </g>
        <g transform="matrix(1,0,0,1,1205.55,223.085)">
            <path d="M0,-76.212L-41.896,35.791L-52.002,35.791L-96.423,-76.843L-107.16,7.157C-107.371,8.631 -107.58,11.58 -107.58,12.211C-107.58,22.528 -102.317,25.054 -87.581,25.685L-87.581,35.791L-139.371,35.791L-139.371,25.685C-127.371,25.265 -123.16,22.737 -121.686,13.054L-108.423,-86.526C-108.423,-97.686 -112.211,-101.474 -126.316,-101.897L-126.316,-112.003L-81.264,-112.003C-80.844,-107.16 -80.001,-104.423 -78.106,-99.792L-40.21,-2.737L-4.632,-99.792C-2.737,-104.423 -1.475,-107.16 -1.052,-112.003L42.739,-112.003L42.739,-101.897C28.842,-101.474 25.054,-97.686 25.054,-86.526L38.316,13.054C39.579,22.948 44.002,25.265 55.79,25.685L55.79,35.791L-8.631,35.791L-8.631,25.685C6.105,25.054 11.368,22.528 11.368,12.211C11.368,11.58 11.157,8.631 10.951,7.157L0,-76.212Z" style="fill:rgb(3,59,94);fill-rule:nonzero;"/>
        </g>
        <g transform="matrix(1,0,0,1,1322.01,181.189)">
            <path d="M0,7.58L13.474,7.58C36.845,7.58 47.793,-3.157 47.793,-25.685C47.793,-45.264 36.422,-58.738 13.057,-58.738L0,-58.738L0,7.58ZM0,18.528L0,52.425C0,64.844 9.057,66.739 26.107,67.581L26.107,77.687L-46.941,77.687L-46.941,67.581C-32.839,67.161 -26.942,64.844 -26.942,52.425L-26.942,-45.053C-26.942,-57.264 -32.839,-59.578 -46.941,-60.001L-46.941,-70.107L19.582,-70.107C60.004,-70.107 75.792,-49.264 75.792,-26.316C75.792,-0.209 59.164,18.528 21.896,18.528L0,18.528Z" style="fill:rgb(3,59,94);fill-rule:nonzero;"/>
        </g>
        <g transform="matrix(1,0,0,1,1458.19,166.242)">
            <path d="M0,39.37C0,64.424 12.005,78.741 35.37,78.741C60.844,78.741 75.792,68.004 75.792,37.687L75.792,-30.105C75.792,-42.317 69.055,-44.63 55.164,-45.053L55.164,-55.159L110.111,-55.159L110.111,-45.053C96.214,-44.63 90.317,-42.317 90.317,-30.105L90.317,42.319C90.317,77.898 64.004,94.529 33.268,94.529C-3.789,94.529 -26.948,77.898 -26.948,42.107L-26.948,-30.105C-26.948,-42.317 -32.84,-44.63 -46.736,-45.053L-46.736,-55.159L19.793,-55.159L19.793,-45.053C5.896,-44.63 0,-42.317 0,-30.105L0,39.37Z" style="fill:rgb(3,59,94);fill-rule:nonzero;"/>
        </g>
        <g transform="matrix(1,0,0,1,1715.43,258.876)">
            <path d="M0,-147.793L3.154,-102.105L-6.525,-102.105C-18.107,-129.265 -21.057,-136.845 -39.37,-136.845L-51.793,-136.845L-51.793,-25.262C-51.793,-12.842 -44.845,-10.525 -30.947,-10.105L-30.947,0L-99.368,0L-99.368,-10.105C-85.267,-10.525 -78.529,-12.842 -78.529,-25.262L-78.529,-136.845L-90.74,-136.845C-109.054,-136.845 -112.003,-129.265 -123.791,-102.105L-133.265,-102.105L-130.11,-147.793L0,-147.793Z" style="fill:rgb(3,59,94);fill-rule:nonzero;"/>
        </g>
        <g transform="matrix(1,0,0,1,1825.5,162.873)">
            <path d="M0,44.213C-2.108,31.582 -5.896,25.896 -15.159,25.896L-44.844,25.896L-44.844,70.529C-44.844,81.898 -38.735,84.846 -24.845,84.846L-8.634,84.846C8.84,84.846 13.263,78.109 26.736,56.424L35.788,56.424L29.263,96.003L-91.58,96.003L-91.58,85.898C-77.478,85.477 -71.581,83.16 -71.581,70.741L-71.581,-26.737C-71.581,-38.948 -77.478,-41.262 -91.58,-41.685L-91.58,-51.79L28.211,-51.79L28.211,-15.157L19.365,-15.157C12,-33.051 6.314,-40.631 -10.525,-40.631L-44.844,-40.631L-44.844,14.528L-15.159,14.528C-5.896,14.528 -2.108,9.054 0,-3.578L9.263,-3.578L9.263,44.213L0,44.213Z" style="fill:rgb(3,59,94);fill-rule:nonzero;"/>
        </g>
        <g transform="matrix(1,0,0,1,1924.42,247.508)">
            <path d="M0,-125.057L0,-62.739L11.582,-62.739C35.793,-62.739 47.158,-73.264 47.158,-94.529C47.158,-112.634 35.793,-125.057 10.948,-125.057L0,-125.057ZM19.999,-136.425C58.106,-136.425 75.158,-119.583 75.158,-94.529C75.158,-72.213 56.844,-58.739 37.896,-56.001L69.896,-13.685C76.844,-4.211 84.42,0.842 95.58,1.263L95.58,11.368L60.004,11.368C52.844,6.317 48.004,1.051 41.473,-8.631L10.319,-52.002L0,-52.002L0,-13.894C0,-1.474 5.896,0.842 19.582,1.263L19.582,11.368L-46.736,11.368L-46.736,1.263C-32.634,0.842 -26.736,-1.474 -26.736,-13.894L-26.736,-111.371C-26.736,-123.583 -32.634,-125.897 -46.736,-126.108L-46.736,-136.425L19.999,-136.425Z" style="fill:rgb(3,59,94);fill-rule:nonzero;"/>
        </g>
        <g transform="matrix(1,0,0,1,779.208,317.091)">
            <path d="M0,123.372L-1.686,88.636L9.683,88.636C16,111.161 28,125.897 48.842,125.897C66.527,125.897 77.684,117.477 77.684,101.478C77.684,88.213 69.264,81.899 44.422,73.476C14.948,63.582 -0.211,52.845 -0.211,28.003C-0.211,3.161 18.314,-14.316 48.422,-14.316C66.527,-14.316 82.318,-8.842 93.264,-1.262L93.264,30.949L83.158,30.949C77.896,11.58 67.158,-2.736 46.947,-2.736C30.525,-2.736 22.105,6.738 22.105,18.949C22.105,32.843 29.474,38.74 54.316,47.16C85.264,57.476 101.055,68.845 101.055,94.11C101.055,122.952 76.632,137.688 47.368,137.688C27.157,137.688 9.683,131.163 0,123.372" style="fill:rgb(3,59,94);fill-rule:nonzero;"/>
        </g>
        <g transform="matrix(1,0,0,1,1017.29,352.251)">
            <path d="M0,53.053L11.58,53.053L7.16,90.318C-6.105,97.686 -20.842,102.529 -42.947,102.529C-86.949,102.529 -114.737,72.001 -114.737,29.685C-114.737,-19.368 -81.895,-49.476 -40.422,-49.476C-18.948,-49.476 -3.58,-43.79 6.529,-35.579L6.529,-2.737L-4.843,-2.737C-10.525,-26.105 -22.525,-37.264 -41.473,-37.264C-72.632,-37.264 -85.475,-9.054 -85.475,23.579C-85.475,61.687 -69.684,90.107 -38.736,90.107C-18.737,90.107 -7.789,77.687 0,53.053" style="fill:rgb(3,59,94);fill-rule:nonzero;"/>
        </g>
        <g transform="matrix(1,0,0,1,1049.64,304.881)">
            <path d="M0,147.793L0,137.688C14.105,137.268 19.999,134.95 19.999,122.531L19.999,25.053C19.999,12.842 14.105,10.528 0,10.106L0,0L66.738,0L66.738,10.106C52.633,10.528 46.735,12.842 46.735,25.053L46.735,122.531C46.735,134.95 52.633,137.268 66.738,137.688L66.738,147.793L0,147.793Z" style="fill:rgb(3,59,94);fill-rule:nonzero;"/>
        </g>
        <g transform="matrix(1,0,0,1,1232.36,356.671)">
            <path d="M0,44.213C-2.108,31.582 -5.896,25.897 -15.159,25.897L-44.845,25.897L-44.845,70.529C-44.845,81.898 -38.736,84.846 -24.845,84.846L-8.634,84.846C8.84,84.846 13.263,78.109 26.736,56.424L35.788,56.424L29.262,96.003L-91.58,96.003L-91.58,85.898C-77.475,85.478 -71.581,83.16 -71.581,70.741L-71.581,-26.737C-71.581,-38.948 -77.475,-41.262 -91.58,-41.684L-91.58,-51.79L28.211,-51.79L28.211,-15.157L19.371,-15.157C12,-33.051 6.314,-40.63 -10.525,-40.63L-44.845,-40.63L-44.845,14.528L-15.159,14.528C-5.896,14.528 -2.108,9.054 0,-3.577L9.263,-3.577L9.263,44.213L0,44.213Z" style="fill:rgb(3,59,94);fill-rule:nonzero;"/>
        </g>
        <g transform="matrix(1,0,0,1,1301.38,430.146)">
            <path d="M0,-102.737C-7.577,-112.211 -10.525,-114.737 -20,-115.159L-20,-125.265L22.313,-125.265L101.895,-23.579L101.895,-100.212C101.895,-112.423 95.368,-114.737 81.478,-115.159L81.478,-125.265L136.213,-125.265L136.213,-115.159C122.104,-114.737 116.214,-112.423 116.214,-100.212L116.214,22.528L105.054,22.528L14.313,-90.949L14.313,-2.734C14.313,9.685 20.845,12.003 34.947,12.423L34.947,22.528L-20,22.528L-20,12.423C-5.897,12.003 0,9.685 0,-2.734L0,-102.737Z" style="fill:rgb(3,59,94);fill-rule:nonzero;"/>
        </g>
        <g transform="matrix(1,0,0,1,1558.66,352.251)">
            <path d="M0,53.053L11.577,53.053L7.154,90.318C-6.108,97.686 -20.846,102.529 -42.953,102.529C-86.952,102.529 -114.74,72.001 -114.74,29.685C-114.74,-19.368 -81.9,-49.476 -40.422,-49.476C-18.948,-49.476 -3.583,-43.79 6.525,-35.579L6.525,-2.737L-4.846,-2.737C-10.531,-26.105 -22.531,-37.264 -41.479,-37.264C-72.639,-37.264 -85.478,-9.054 -85.478,23.579C-85.478,61.687 -69.689,90.107 -38.742,90.107C-18.742,90.107 -7.794,77.687 0,53.053" style="fill:rgb(3,59,94);fill-rule:nonzero;"/>
        </g>
        <g transform="matrix(1,0,0,1,1676.74,356.671)">
            <path d="M0,44.213C-2.109,31.582 -5.897,25.897 -15.16,25.897L-44.845,25.897L-44.845,70.529C-44.845,81.898 -38.736,84.846 -24.846,84.846L-8.635,84.846C8.84,84.846 13.262,78.109 26.736,56.424L35.787,56.424L29.262,96.003L-91.581,96.003L-91.581,85.898C-77.479,85.478 -71.581,83.16 -71.581,70.741L-71.581,-26.737C-71.581,-38.948 -77.479,-41.262 -91.581,-41.684L-91.581,-51.79L28.21,-51.79L28.21,-15.157L19.37,-15.157C11.999,-33.051 6.313,-40.63 -10.525,-40.63L-44.845,-40.63L-44.845,14.528L-15.16,14.528C-5.897,14.528 -2.109,9.054 0,-3.577L9.263,-3.577L9.263,44.213L0,44.213Z" style="fill:rgb(3,59,94);fill-rule:nonzero;"/>
        </g>
        <g transform="matrix(1,0,0,1,779.208,507.322)">
            <path d="M0,123.37L-1.686,88.634L9.683,88.634C16,111.159 28,125.896 48.842,125.896C66.527,125.896 77.684,117.476 77.684,101.476C77.684,88.211 69.264,81.897 44.422,73.474C14.948,63.581 -0.211,52.844 -0.211,28.002C-0.211,3.159 18.314,-14.317 48.422,-14.317C66.527,-14.317 82.318,-8.843 93.264,-1.264L93.264,30.947L83.158,30.947C77.896,11.579 67.158,-2.737 46.947,-2.737C30.525,-2.737 22.105,6.736 22.105,18.947C22.105,32.842 29.474,38.738 54.316,47.158C85.264,57.474 101.055,68.844 101.055,94.108C101.055,122.95 76.632,137.687 47.368,137.687C27.157,137.687 9.683,131.162 0,123.37" style="fill:rgb(3,59,94);fill-rule:nonzero;"/>
        </g>
        <g transform="matrix(1,0,0,1,1012.03,567.531)">
            <path d="M0,2.951C0,-31.156 -13.051,-61.684 -44.21,-61.684C-70.947,-61.684 -83.581,-34.736 -83.581,0.003C-83.581,34.108 -70.315,64.636 -39.368,64.636C-12.631,64.636 0,37.687 0,2.951M29.053,-1.471C29.053,46.739 -2.946,77.478 -42.736,77.478C-87.158,77.478 -112.634,43.582 -112.634,4.423C-112.634,-43.787 -80.421,-74.527 -40.63,-74.527C3.58,-74.527 29.053,-40.63 29.053,-1.471" style="fill:rgb(3,59,94);fill-rule:nonzero;"/>
        </g>
        <g transform="matrix(1,0,0,1,1175.58,542.482)">
            <path d="M0,53.051L11.576,53.051L7.159,90.317C-6.103,97.685 -20.84,102.528 -42.947,102.528C-86.949,102.528 -114.74,71.999 -114.74,29.684C-114.74,-19.37 -81.896,-49.477 -40.422,-49.477C-18.948,-49.477 -3.577,-43.792 6.525,-35.581L6.525,-2.739L-4.84,-2.739C-10.525,-26.106 -22.525,-37.266 -41.474,-37.266C-72.633,-37.266 -85.476,-9.055 -85.476,23.578C-85.476,61.686 -69.685,90.105 -38.736,90.105C-18.737,90.105 -7.789,77.685 0,53.051" style="fill:rgb(3,59,94);fill-rule:nonzero;"/>
        </g>
        <g transform="matrix(1,0,0,1,1202.07,495.11)">
            <path d="M0,147.793L0,137.689C14.103,137.268 20,134.951 20,122.531L20,25.054C20,12.843 14.103,10.528 0,10.106L0,0L66.735,0L66.735,10.106C52.633,10.528 46.736,12.843 46.736,25.054L46.736,122.531C46.736,134.951 52.633,137.268 66.735,137.689L66.735,147.793L0,147.793Z" style="fill:rgb(3,59,94);fill-rule:nonzero;"/>
        </g>
        <g transform="matrix(1,0,0,1,1384.92,546.9)">
            <path d="M0,44.213C-2.108,31.582 -5.897,25.897 -15.16,25.897L-44.845,25.897L-44.845,70.53C-44.845,81.899 -38.736,84.847 -24.846,84.847L-8.635,84.847C8.84,84.847 13.263,78.109 26.736,56.425L35.787,56.425L29.262,96.003L-91.581,96.003L-91.581,85.899C-77.479,85.478 -71.581,83.161 -71.581,70.741L-71.581,-26.736C-71.581,-38.947 -77.479,-41.262 -91.581,-41.684L-91.581,-51.79L28.21,-51.79L28.21,-15.156L19.371,-15.156C11.999,-33.051 6.313,-40.63 -10.525,-40.63L-44.845,-40.63L-44.845,14.528L-15.16,14.528C-5.897,14.528 -2.108,9.055 0,-3.577L9.263,-3.577L9.263,44.213L0,44.213Z" style="fill:rgb(3,59,94);fill-rule:nonzero;"/>
        </g>
        <g transform="matrix(1,0,0,1,1569.27,642.903)">
            <path d="M0,-147.793L3.154,-102.105L-6.525,-102.105C-18.108,-129.265 -21.057,-136.845 -39.37,-136.845L-51.793,-136.845L-51.793,-25.262C-51.793,-12.842 -44.845,-10.525 -30.948,-10.105L-30.948,0L-99.375,0L-99.375,-10.105C-85.267,-10.525 -78.529,-12.842 -78.529,-25.262L-78.529,-136.845L-90.74,-136.845C-109.055,-136.845 -112.003,-129.265 -123.791,-102.105L-133.266,-102.105L-130.111,-147.793L0,-147.793Z" style="fill:rgb(3,59,94);fill-rule:nonzero;"/>
        </g>
        <g transform="matrix(1,0,0,1,1686.29,614.269)">
            <path d="M0,-90.525C2.525,-94.736 4,-97.893 4,-101.053C4,-106.736 -0.417,-108.63 -13.686,-109.053L-13.686,-119.159L34.107,-119.159L34.107,-109.053C28.005,-108.211 24.634,-106.736 21.474,-101.262L-23.153,-29.261L-23.153,3.372C-23.153,15.792 -16.628,18.109 -2.737,18.53L-2.737,28.634L-69.896,28.634L-69.896,18.53C-55.787,18.109 -49.473,15.792 -49.473,3.372L-49.473,-29.261L-93.684,-101.262C-96.843,-106.736 -100.209,-108.211 -106.105,-109.053L-106.105,-119.159L-45.262,-119.159L-45.262,-109.053C-58.735,-108.63 -62.735,-106.736 -62.735,-101.053C-62.735,-97.682 -61.261,-94.736 -58.735,-90.525L-29.685,-42.315L0,-90.525Z" style="fill:rgb(3,59,94);fill-rule:nonzero;"/>
        </g>
        <g transform="matrix(1,0,0,1,347.493,647.187)">
            <path d="M0,30.406C-0.642,34.783 2.945,38.78 8.011,39.335C8.446,39.383 8.885,39.403 9.323,39.397C15.939,39.397 32.536,33.848 33.813,11.591C34.78,-4.686 29.286,-8.997 29.286,-8.997L19.15,6.978C19.15,29.938 0,30.406 0,30.406" style="fill:rgb(255,207,1);fill-rule:nonzero;"/>
        </g>
        <g transform="matrix(1,0,0,1,320.682,670.726)">
            <path d="M0,-16.527L-10.136,-32.503C-10.136,-32.503 -15.591,-28.191 -14.817,-11.881C-13.502,10.377 3.057,15.925 9.633,15.925C14.761,15.976 18.965,12.426 19.024,7.996C19.029,7.642 19.006,7.287 18.957,6.935C18.957,6.935 0,6.4 0,-16.527" style="fill:rgb(255,207,1);fill-rule:nonzero;"/>
        </g>
        <g transform="matrix(1,0,0,1,354.224,645.174)">
            <path d="M0,11.933C-0.259,4.291 0.771,-3.342 3.056,-10.727C4.681,-15.741 14.663,-21.021 14.663,-21.021C4.681,-30.613 -4.062,-17.678 -3.675,-19.216C-3.488,-22.938 -4.31,-26.646 -6.074,-30.045C-7.257,-32.143 -8.696,-34.127 -10.368,-35.961C-12.026,-34.125 -13.453,-32.141 -14.624,-30.045C-16.385,-26.645 -17.207,-22.937 -17.022,-19.216C-16.674,-17.612 -25.379,-30.613 -35.36,-21.021C-35.36,-21.021 -25.534,-15.741 -23.754,-10.727C-21.463,-3.342 -20.433,4.291 -20.698,11.933C-20.698,20.856 -15.243,23.229 -12.728,24.199L-12.728,47.894L-8.047,47.894L-8.047,24.499C-6.229,23.697 0.155,21.491 0,11.933" style="fill:rgb(255,207,1);fill-rule:nonzero;"/>
        </g>
    </g>
</svg>
